<?xml version="1.0" encoding="utf-8" standalone="no"?>
<!DOCTYPE svg PUBLIC "-//W3C//DTD SVG 1.1//EN"
  "http://www.w3.org/Graphics/SVG/1.1/DTD/svg11.dtd">
<!-- Created with matplotlib (https://matplotlib.org/) -->
<svg height="345.6pt" version="1.1" viewBox="0 0 460.8 345.6" width="460.8pt" xmlns="http://www.w3.org/2000/svg" xmlns:xlink="http://www.w3.org/1999/xlink">
 <metadata>
  <rdf:RDF xmlns:cc="http://creativecommons.org/ns#" xmlns:dc="http://purl.org/dc/elements/1.1/" xmlns:rdf="http://www.w3.org/1999/02/22-rdf-syntax-ns#">
   <cc:Work>
    <dc:type rdf:resource="http://purl.org/dc/dcmitype/StillImage"/>
    <dc:date>2023-11-28T17:22:30.861542</dc:date>
    <dc:format>image/svg+xml</dc:format>
    <dc:creator>
     <cc:Agent>
      <dc:title>Matplotlib v3.3.2, https://matplotlib.org/</dc:title>
     </cc:Agent>
    </dc:creator>
   </cc:Work>
  </rdf:RDF>
 </metadata>
 <defs>
  <style type="text/css">*{stroke-linecap:butt;stroke-linejoin:round;}</style>
 </defs>
 <g id="figure_1">
  <g id="patch_1">
   <path d="M 0 345.6 
L 460.8 345.6 
L 460.8 0 
L 0 0 
z
" style="fill:#ffffff;"/>
  </g>
  <g id="axes_1">
   <g id="patch_2">
    <path d="M 57.6 307.584 
L 414.72 307.584 
L 414.72 41.472 
L 57.6 41.472 
z
" style="fill:#ffffff;"/>
   </g>
   <g id="matplotlib.axis_1">
    <g id="xtick_1">
     <g id="line2d_1">
      <defs>
       <path d="M 0 0 
L 0 3.5 
" id="m3d2b5b8c32" style="stroke:#000000;stroke-width:0.8;"/>
      </defs>
      <g>
       <use style="stroke:#000000;stroke-width:0.8;" x="73.832727" xlink:href="#m3d2b5b8c32" y="307.584"/>
      </g>
     </g>
     <g id="text_1">
      <!-- 2023-01 -->
      <g transform="translate(63.575701 342.518253)rotate(-45)scale(0.08 -0.08)">
       <defs>
        <path d="M 19.1875 8.296875 
L 53.609375 8.296875 
L 53.609375 0 
L 7.328125 0 
L 7.328125 8.296875 
Q 12.9375 14.109375 22.625 23.890625 
Q 32.328125 33.6875 34.8125 36.53125 
Q 39.546875 41.84375 41.421875 45.53125 
Q 43.3125 49.21875 43.3125 52.78125 
Q 43.3125 58.59375 39.234375 62.25 
Q 35.15625 65.921875 28.609375 65.921875 
Q 23.96875 65.921875 18.8125 64.3125 
Q 13.671875 62.703125 7.8125 59.421875 
L 7.8125 69.390625 
Q 13.765625 71.78125 18.9375 73 
Q 24.125 74.21875 28.421875 74.21875 
Q 39.75 74.21875 46.484375 68.546875 
Q 53.21875 62.890625 53.21875 53.421875 
Q 53.21875 48.921875 51.53125 44.890625 
Q 49.859375 40.875 45.40625 35.40625 
Q 44.1875 33.984375 37.640625 27.21875 
Q 31.109375 20.453125 19.1875 8.296875 
z
" id="DejaVuSans-50"/>
        <path d="M 31.78125 66.40625 
Q 24.171875 66.40625 20.328125 58.90625 
Q 16.5 51.421875 16.5 36.375 
Q 16.5 21.390625 20.328125 13.890625 
Q 24.171875 6.390625 31.78125 6.390625 
Q 39.453125 6.390625 43.28125 13.890625 
Q 47.125 21.390625 47.125 36.375 
Q 47.125 51.421875 43.28125 58.90625 
Q 39.453125 66.40625 31.78125 66.40625 
z
M 31.78125 74.21875 
Q 44.046875 74.21875 50.515625 64.515625 
Q 56.984375 54.828125 56.984375 36.375 
Q 56.984375 17.96875 50.515625 8.265625 
Q 44.046875 -1.421875 31.78125 -1.421875 
Q 19.53125 -1.421875 13.0625 8.265625 
Q 6.59375 17.96875 6.59375 36.375 
Q 6.59375 54.828125 13.0625 64.515625 
Q 19.53125 74.21875 31.78125 74.21875 
z
" id="DejaVuSans-48"/>
        <path d="M 40.578125 39.3125 
Q 47.65625 37.796875 51.625 33 
Q 55.609375 28.21875 55.609375 21.1875 
Q 55.609375 10.40625 48.1875 4.484375 
Q 40.765625 -1.421875 27.09375 -1.421875 
Q 22.515625 -1.421875 17.65625 -0.515625 
Q 12.796875 0.390625 7.625 2.203125 
L 7.625 11.71875 
Q 11.71875 9.328125 16.59375 8.109375 
Q 21.484375 6.890625 26.8125 6.890625 
Q 36.078125 6.890625 40.9375 10.546875 
Q 45.796875 14.203125 45.796875 21.1875 
Q 45.796875 27.640625 41.28125 31.265625 
Q 36.765625 34.90625 28.71875 34.90625 
L 20.21875 34.90625 
L 20.21875 43.015625 
L 29.109375 43.015625 
Q 36.375 43.015625 40.234375 45.921875 
Q 44.09375 48.828125 44.09375 54.296875 
Q 44.09375 59.90625 40.109375 62.90625 
Q 36.140625 65.921875 28.71875 65.921875 
Q 24.65625 65.921875 20.015625 65.03125 
Q 15.375 64.15625 9.8125 62.3125 
L 9.8125 71.09375 
Q 15.4375 72.65625 20.34375 73.4375 
Q 25.25 74.21875 29.59375 74.21875 
Q 40.828125 74.21875 47.359375 69.109375 
Q 53.90625 64.015625 53.90625 55.328125 
Q 53.90625 49.265625 50.4375 45.09375 
Q 46.96875 40.921875 40.578125 39.3125 
z
" id="DejaVuSans-51"/>
        <path d="M 4.890625 31.390625 
L 31.203125 31.390625 
L 31.203125 23.390625 
L 4.890625 23.390625 
z
" id="DejaVuSans-45"/>
        <path d="M 12.40625 8.296875 
L 28.515625 8.296875 
L 28.515625 63.921875 
L 10.984375 60.40625 
L 10.984375 69.390625 
L 28.421875 72.90625 
L 38.28125 72.90625 
L 38.28125 8.296875 
L 54.390625 8.296875 
L 54.390625 0 
L 12.40625 0 
z
" id="DejaVuSans-49"/>
       </defs>
       <use xlink:href="#DejaVuSans-50"/>
       <use x="63.623047" xlink:href="#DejaVuSans-48"/>
       <use x="127.246094" xlink:href="#DejaVuSans-50"/>
       <use x="190.869141" xlink:href="#DejaVuSans-51"/>
       <use x="254.492188" xlink:href="#DejaVuSans-45"/>
       <use x="290.576172" xlink:href="#DejaVuSans-48"/>
       <use x="354.199219" xlink:href="#DejaVuSans-49"/>
      </g>
     </g>
    </g>
    <g id="xtick_2">
     <g id="line2d_2">
      <g>
       <use style="stroke:#000000;stroke-width:0.8;" x="105.884609" xlink:href="#m3d2b5b8c32" y="307.584"/>
      </g>
     </g>
     <g id="text_2">
      <!-- 2023-02 -->
      <g transform="translate(95.627583 342.518253)rotate(-45)scale(0.08 -0.08)">
       <use xlink:href="#DejaVuSans-50"/>
       <use x="63.623047" xlink:href="#DejaVuSans-48"/>
       <use x="127.246094" xlink:href="#DejaVuSans-50"/>
       <use x="190.869141" xlink:href="#DejaVuSans-51"/>
       <use x="254.492188" xlink:href="#DejaVuSans-45"/>
       <use x="290.576172" xlink:href="#DejaVuSans-48"/>
       <use x="354.199219" xlink:href="#DejaVuSans-50"/>
      </g>
     </g>
    </g>
    <g id="xtick_3">
     <g id="line2d_3">
      <g>
       <use style="stroke:#000000;stroke-width:0.8;" x="134.834696" xlink:href="#m3d2b5b8c32" y="307.584"/>
      </g>
     </g>
     <g id="text_3">
      <!-- 2023-03 -->
      <g transform="translate(124.57767 342.518253)rotate(-45)scale(0.08 -0.08)">
       <use xlink:href="#DejaVuSans-50"/>
       <use x="63.623047" xlink:href="#DejaVuSans-48"/>
       <use x="127.246094" xlink:href="#DejaVuSans-50"/>
       <use x="190.869141" xlink:href="#DejaVuSans-51"/>
       <use x="254.492188" xlink:href="#DejaVuSans-45"/>
       <use x="290.576172" xlink:href="#DejaVuSans-48"/>
       <use x="354.199219" xlink:href="#DejaVuSans-51"/>
      </g>
     </g>
    </g>
    <g id="xtick_4">
     <g id="line2d_4">
      <g>
       <use style="stroke:#000000;stroke-width:0.8;" x="166.886578" xlink:href="#m3d2b5b8c32" y="307.584"/>
      </g>
     </g>
     <g id="text_4">
      <!-- 2023-04 -->
      <g transform="translate(156.629552 342.518253)rotate(-45)scale(0.08 -0.08)">
       <defs>
        <path d="M 37.796875 64.3125 
L 12.890625 25.390625 
L 37.796875 25.390625 
z
M 35.203125 72.90625 
L 47.609375 72.90625 
L 47.609375 25.390625 
L 58.015625 25.390625 
L 58.015625 17.1875 
L 47.609375 17.1875 
L 47.609375 0 
L 37.796875 0 
L 37.796875 17.1875 
L 4.890625 17.1875 
L 4.890625 26.703125 
z
" id="DejaVuSans-52"/>
       </defs>
       <use xlink:href="#DejaVuSans-50"/>
       <use x="63.623047" xlink:href="#DejaVuSans-48"/>
       <use x="127.246094" xlink:href="#DejaVuSans-50"/>
       <use x="190.869141" xlink:href="#DejaVuSans-51"/>
       <use x="254.492188" xlink:href="#DejaVuSans-45"/>
       <use x="290.576172" xlink:href="#DejaVuSans-48"/>
       <use x="354.199219" xlink:href="#DejaVuSans-52"/>
      </g>
     </g>
    </g>
    <g id="xtick_5">
     <g id="line2d_5">
      <g>
       <use style="stroke:#000000;stroke-width:0.8;" x="197.904528" xlink:href="#m3d2b5b8c32" y="307.584"/>
      </g>
     </g>
     <g id="text_5">
      <!-- 2023-05 -->
      <g transform="translate(187.647502 342.518253)rotate(-45)scale(0.08 -0.08)">
       <defs>
        <path d="M 10.796875 72.90625 
L 49.515625 72.90625 
L 49.515625 64.59375 
L 19.828125 64.59375 
L 19.828125 46.734375 
Q 21.96875 47.46875 24.109375 47.828125 
Q 26.265625 48.1875 28.421875 48.1875 
Q 40.625 48.1875 47.75 41.5 
Q 54.890625 34.8125 54.890625 23.390625 
Q 54.890625 11.625 47.5625 5.09375 
Q 40.234375 -1.421875 26.90625 -1.421875 
Q 22.3125 -1.421875 17.546875 -0.640625 
Q 12.796875 0.140625 7.71875 1.703125 
L 7.71875 11.625 
Q 12.109375 9.234375 16.796875 8.0625 
Q 21.484375 6.890625 26.703125 6.890625 
Q 35.15625 6.890625 40.078125 11.328125 
Q 45.015625 15.765625 45.015625 23.390625 
Q 45.015625 31 40.078125 35.4375 
Q 35.15625 39.890625 26.703125 39.890625 
Q 22.75 39.890625 18.8125 39.015625 
Q 14.890625 38.140625 10.796875 36.28125 
z
" id="DejaVuSans-53"/>
       </defs>
       <use xlink:href="#DejaVuSans-50"/>
       <use x="63.623047" xlink:href="#DejaVuSans-48"/>
       <use x="127.246094" xlink:href="#DejaVuSans-50"/>
       <use x="190.869141" xlink:href="#DejaVuSans-51"/>
       <use x="254.492188" xlink:href="#DejaVuSans-45"/>
       <use x="290.576172" xlink:href="#DejaVuSans-48"/>
       <use x="354.199219" xlink:href="#DejaVuSans-53"/>
      </g>
     </g>
    </g>
    <g id="xtick_6">
     <g id="line2d_6">
      <g>
       <use style="stroke:#000000;stroke-width:0.8;" x="229.95641" xlink:href="#m3d2b5b8c32" y="307.584"/>
      </g>
     </g>
     <g id="text_6">
      <!-- 2023-06 -->
      <g transform="translate(219.699384 342.518253)rotate(-45)scale(0.08 -0.08)">
       <defs>
        <path d="M 33.015625 40.375 
Q 26.375 40.375 22.484375 35.828125 
Q 18.609375 31.296875 18.609375 23.390625 
Q 18.609375 15.53125 22.484375 10.953125 
Q 26.375 6.390625 33.015625 6.390625 
Q 39.65625 6.390625 43.53125 10.953125 
Q 47.40625 15.53125 47.40625 23.390625 
Q 47.40625 31.296875 43.53125 35.828125 
Q 39.65625 40.375 33.015625 40.375 
z
M 52.59375 71.296875 
L 52.59375 62.3125 
Q 48.875 64.0625 45.09375 64.984375 
Q 41.3125 65.921875 37.59375 65.921875 
Q 27.828125 65.921875 22.671875 59.328125 
Q 17.53125 52.734375 16.796875 39.40625 
Q 19.671875 43.65625 24.015625 45.921875 
Q 28.375 48.1875 33.59375 48.1875 
Q 44.578125 48.1875 50.953125 41.515625 
Q 57.328125 34.859375 57.328125 23.390625 
Q 57.328125 12.15625 50.6875 5.359375 
Q 44.046875 -1.421875 33.015625 -1.421875 
Q 20.359375 -1.421875 13.671875 8.265625 
Q 6.984375 17.96875 6.984375 36.375 
Q 6.984375 53.65625 15.1875 63.9375 
Q 23.390625 74.21875 37.203125 74.21875 
Q 40.921875 74.21875 44.703125 73.484375 
Q 48.484375 72.75 52.59375 71.296875 
z
" id="DejaVuSans-54"/>
       </defs>
       <use xlink:href="#DejaVuSans-50"/>
       <use x="63.623047" xlink:href="#DejaVuSans-48"/>
       <use x="127.246094" xlink:href="#DejaVuSans-50"/>
       <use x="190.869141" xlink:href="#DejaVuSans-51"/>
       <use x="254.492188" xlink:href="#DejaVuSans-45"/>
       <use x="290.576172" xlink:href="#DejaVuSans-48"/>
       <use x="354.199219" xlink:href="#DejaVuSans-54"/>
      </g>
     </g>
    </g>
    <g id="xtick_7">
     <g id="line2d_7">
      <g>
       <use style="stroke:#000000;stroke-width:0.8;" x="260.97436" xlink:href="#m3d2b5b8c32" y="307.584"/>
      </g>
     </g>
     <g id="text_7">
      <!-- 2023-07 -->
      <g transform="translate(250.717334 342.518253)rotate(-45)scale(0.08 -0.08)">
       <defs>
        <path d="M 8.203125 72.90625 
L 55.078125 72.90625 
L 55.078125 68.703125 
L 28.609375 0 
L 18.3125 0 
L 43.21875 64.59375 
L 8.203125 64.59375 
z
" id="DejaVuSans-55"/>
       </defs>
       <use xlink:href="#DejaVuSans-50"/>
       <use x="63.623047" xlink:href="#DejaVuSans-48"/>
       <use x="127.246094" xlink:href="#DejaVuSans-50"/>
       <use x="190.869141" xlink:href="#DejaVuSans-51"/>
       <use x="254.492188" xlink:href="#DejaVuSans-45"/>
       <use x="290.576172" xlink:href="#DejaVuSans-48"/>
       <use x="354.199219" xlink:href="#DejaVuSans-55"/>
      </g>
     </g>
    </g>
    <g id="xtick_8">
     <g id="line2d_8">
      <g>
       <use style="stroke:#000000;stroke-width:0.8;" x="293.026242" xlink:href="#m3d2b5b8c32" y="307.584"/>
      </g>
     </g>
     <g id="text_8">
      <!-- 2023-08 -->
      <g transform="translate(282.769216 342.518253)rotate(-45)scale(0.08 -0.08)">
       <defs>
        <path d="M 31.78125 34.625 
Q 24.75 34.625 20.71875 30.859375 
Q 16.703125 27.09375 16.703125 20.515625 
Q 16.703125 13.921875 20.71875 10.15625 
Q 24.75 6.390625 31.78125 6.390625 
Q 38.8125 6.390625 42.859375 10.171875 
Q 46.921875 13.96875 46.921875 20.515625 
Q 46.921875 27.09375 42.890625 30.859375 
Q 38.875 34.625 31.78125 34.625 
z
M 21.921875 38.8125 
Q 15.578125 40.375 12.03125 44.71875 
Q 8.5 49.078125 8.5 55.328125 
Q 8.5 64.0625 14.71875 69.140625 
Q 20.953125 74.21875 31.78125 74.21875 
Q 42.671875 74.21875 48.875 69.140625 
Q 55.078125 64.0625 55.078125 55.328125 
Q 55.078125 49.078125 51.53125 44.71875 
Q 48 40.375 41.703125 38.8125 
Q 48.828125 37.15625 52.796875 32.3125 
Q 56.78125 27.484375 56.78125 20.515625 
Q 56.78125 9.90625 50.3125 4.234375 
Q 43.84375 -1.421875 31.78125 -1.421875 
Q 19.734375 -1.421875 13.25 4.234375 
Q 6.78125 9.90625 6.78125 20.515625 
Q 6.78125 27.484375 10.78125 32.3125 
Q 14.796875 37.15625 21.921875 38.8125 
z
M 18.3125 54.390625 
Q 18.3125 48.734375 21.84375 45.5625 
Q 25.390625 42.390625 31.78125 42.390625 
Q 38.140625 42.390625 41.71875 45.5625 
Q 45.3125 48.734375 45.3125 54.390625 
Q 45.3125 60.0625 41.71875 63.234375 
Q 38.140625 66.40625 31.78125 66.40625 
Q 25.390625 66.40625 21.84375 63.234375 
Q 18.3125 60.0625 18.3125 54.390625 
z
" id="DejaVuSans-56"/>
       </defs>
       <use xlink:href="#DejaVuSans-50"/>
       <use x="63.623047" xlink:href="#DejaVuSans-48"/>
       <use x="127.246094" xlink:href="#DejaVuSans-50"/>
       <use x="190.869141" xlink:href="#DejaVuSans-51"/>
       <use x="254.492188" xlink:href="#DejaVuSans-45"/>
       <use x="290.576172" xlink:href="#DejaVuSans-48"/>
       <use x="354.199219" xlink:href="#DejaVuSans-56"/>
      </g>
     </g>
    </g>
    <g id="xtick_9">
     <g id="line2d_9">
      <g>
       <use style="stroke:#000000;stroke-width:0.8;" x="325.078124" xlink:href="#m3d2b5b8c32" y="307.584"/>
      </g>
     </g>
     <g id="text_9">
      <!-- 2023-09 -->
      <g transform="translate(314.821098 342.518253)rotate(-45)scale(0.08 -0.08)">
       <defs>
        <path d="M 10.984375 1.515625 
L 10.984375 10.5 
Q 14.703125 8.734375 18.5 7.8125 
Q 22.3125 6.890625 25.984375 6.890625 
Q 35.75 6.890625 40.890625 13.453125 
Q 46.046875 20.015625 46.78125 33.40625 
Q 43.953125 29.203125 39.59375 26.953125 
Q 35.25 24.703125 29.984375 24.703125 
Q 19.046875 24.703125 12.671875 31.3125 
Q 6.296875 37.9375 6.296875 49.421875 
Q 6.296875 60.640625 12.9375 67.421875 
Q 19.578125 74.21875 30.609375 74.21875 
Q 43.265625 74.21875 49.921875 64.515625 
Q 56.59375 54.828125 56.59375 36.375 
Q 56.59375 19.140625 48.40625 8.859375 
Q 40.234375 -1.421875 26.421875 -1.421875 
Q 22.703125 -1.421875 18.890625 -0.6875 
Q 15.09375 0.046875 10.984375 1.515625 
z
M 30.609375 32.421875 
Q 37.25 32.421875 41.125 36.953125 
Q 45.015625 41.5 45.015625 49.421875 
Q 45.015625 57.28125 41.125 61.84375 
Q 37.25 66.40625 30.609375 66.40625 
Q 23.96875 66.40625 20.09375 61.84375 
Q 16.21875 57.28125 16.21875 49.421875 
Q 16.21875 41.5 20.09375 36.953125 
Q 23.96875 32.421875 30.609375 32.421875 
z
" id="DejaVuSans-57"/>
       </defs>
       <use xlink:href="#DejaVuSans-50"/>
       <use x="63.623047" xlink:href="#DejaVuSans-48"/>
       <use x="127.246094" xlink:href="#DejaVuSans-50"/>
       <use x="190.869141" xlink:href="#DejaVuSans-51"/>
       <use x="254.492188" xlink:href="#DejaVuSans-45"/>
       <use x="290.576172" xlink:href="#DejaVuSans-48"/>
       <use x="354.199219" xlink:href="#DejaVuSans-57"/>
      </g>
     </g>
    </g>
    <g id="xtick_10">
     <g id="line2d_10">
      <g>
       <use style="stroke:#000000;stroke-width:0.8;" x="356.096074" xlink:href="#m3d2b5b8c32" y="307.584"/>
      </g>
     </g>
     <g id="text_10">
      <!-- 2023-10 -->
      <g transform="translate(345.839048 342.518253)rotate(-45)scale(0.08 -0.08)">
       <use xlink:href="#DejaVuSans-50"/>
       <use x="63.623047" xlink:href="#DejaVuSans-48"/>
       <use x="127.246094" xlink:href="#DejaVuSans-50"/>
       <use x="190.869141" xlink:href="#DejaVuSans-51"/>
       <use x="254.492188" xlink:href="#DejaVuSans-45"/>
       <use x="290.576172" xlink:href="#DejaVuSans-49"/>
       <use x="354.199219" xlink:href="#DejaVuSans-48"/>
      </g>
     </g>
    </g>
    <g id="xtick_11">
     <g id="line2d_11">
      <g>
       <use style="stroke:#000000;stroke-width:0.8;" x="388.147956" xlink:href="#m3d2b5b8c32" y="307.584"/>
      </g>
     </g>
     <g id="text_11">
      <!-- 2023-11 -->
      <g transform="translate(377.89093 342.518253)rotate(-45)scale(0.08 -0.08)">
       <use xlink:href="#DejaVuSans-50"/>
       <use x="63.623047" xlink:href="#DejaVuSans-48"/>
       <use x="127.246094" xlink:href="#DejaVuSans-50"/>
       <use x="190.869141" xlink:href="#DejaVuSans-51"/>
       <use x="254.492188" xlink:href="#DejaVuSans-45"/>
       <use x="290.576172" xlink:href="#DejaVuSans-49"/>
       <use x="354.199219" xlink:href="#DejaVuSans-49"/>
      </g>
     </g>
    </g>
   </g>
   <g id="matplotlib.axis_2">
    <g id="ytick_1">
     <g id="line2d_12">
      <defs>
       <path d="M 0 0 
L -3.5 0 
" id="m2f1acf2a7b" style="stroke:#000000;stroke-width:0.8;"/>
      </defs>
      <g>
       <use style="stroke:#000000;stroke-width:0.8;" x="57.6" xlink:href="#m2f1acf2a7b" y="304.227427"/>
      </g>
     </g>
     <g id="text_12">
      <!-- 200 -->
      <g transform="translate(31.5125 308.026646)scale(0.1 -0.1)">
       <use xlink:href="#DejaVuSans-50"/>
       <use x="63.623047" xlink:href="#DejaVuSans-48"/>
       <use x="127.246094" xlink:href="#DejaVuSans-48"/>
      </g>
     </g>
    </g>
    <g id="ytick_2">
     <g id="line2d_13">
      <g>
       <use style="stroke:#000000;stroke-width:0.8;" x="57.6" xlink:href="#m2f1acf2a7b" y="271.153732"/>
      </g>
     </g>
     <g id="text_13">
      <!-- 220 -->
      <g transform="translate(31.5125 274.952951)scale(0.1 -0.1)">
       <use xlink:href="#DejaVuSans-50"/>
       <use x="63.623047" xlink:href="#DejaVuSans-50"/>
       <use x="127.246094" xlink:href="#DejaVuSans-48"/>
      </g>
     </g>
    </g>
    <g id="ytick_3">
     <g id="line2d_14">
      <g>
       <use style="stroke:#000000;stroke-width:0.8;" x="57.6" xlink:href="#m2f1acf2a7b" y="238.080036"/>
      </g>
     </g>
     <g id="text_14">
      <!-- 240 -->
      <g transform="translate(31.5125 241.879255)scale(0.1 -0.1)">
       <use xlink:href="#DejaVuSans-50"/>
       <use x="63.623047" xlink:href="#DejaVuSans-52"/>
       <use x="127.246094" xlink:href="#DejaVuSans-48"/>
      </g>
     </g>
    </g>
    <g id="ytick_4">
     <g id="line2d_15">
      <g>
       <use style="stroke:#000000;stroke-width:0.8;" x="57.6" xlink:href="#m2f1acf2a7b" y="205.006341"/>
      </g>
     </g>
     <g id="text_15">
      <!-- 260 -->
      <g transform="translate(31.5125 208.80556)scale(0.1 -0.1)">
       <use xlink:href="#DejaVuSans-50"/>
       <use x="63.623047" xlink:href="#DejaVuSans-54"/>
       <use x="127.246094" xlink:href="#DejaVuSans-48"/>
      </g>
     </g>
    </g>
    <g id="ytick_5">
     <g id="line2d_16">
      <g>
       <use style="stroke:#000000;stroke-width:0.8;" x="57.6" xlink:href="#m2f1acf2a7b" y="171.932645"/>
      </g>
     </g>
     <g id="text_16">
      <!-- 280 -->
      <g transform="translate(31.5125 175.731864)scale(0.1 -0.1)">
       <use xlink:href="#DejaVuSans-50"/>
       <use x="63.623047" xlink:href="#DejaVuSans-56"/>
       <use x="127.246094" xlink:href="#DejaVuSans-48"/>
      </g>
     </g>
    </g>
    <g id="ytick_6">
     <g id="line2d_17">
      <g>
       <use style="stroke:#000000;stroke-width:0.8;" x="57.6" xlink:href="#m2f1acf2a7b" y="138.85895"/>
      </g>
     </g>
     <g id="text_17">
      <!-- 300 -->
      <g transform="translate(31.5125 142.658169)scale(0.1 -0.1)">
       <use xlink:href="#DejaVuSans-51"/>
       <use x="63.623047" xlink:href="#DejaVuSans-48"/>
       <use x="127.246094" xlink:href="#DejaVuSans-48"/>
      </g>
     </g>
    </g>
    <g id="ytick_7">
     <g id="line2d_18">
      <g>
       <use style="stroke:#000000;stroke-width:0.8;" x="57.6" xlink:href="#m2f1acf2a7b" y="105.785254"/>
      </g>
     </g>
     <g id="text_18">
      <!-- 320 -->
      <g transform="translate(31.5125 109.584473)scale(0.1 -0.1)">
       <use xlink:href="#DejaVuSans-51"/>
       <use x="63.623047" xlink:href="#DejaVuSans-50"/>
       <use x="127.246094" xlink:href="#DejaVuSans-48"/>
      </g>
     </g>
    </g>
    <g id="ytick_8">
     <g id="line2d_19">
      <g>
       <use style="stroke:#000000;stroke-width:0.8;" x="57.6" xlink:href="#m2f1acf2a7b" y="72.711559"/>
      </g>
     </g>
     <g id="text_19">
      <!-- 340 -->
      <g transform="translate(31.5125 76.510778)scale(0.1 -0.1)">
       <use xlink:href="#DejaVuSans-51"/>
       <use x="63.623047" xlink:href="#DejaVuSans-52"/>
       <use x="127.246094" xlink:href="#DejaVuSans-48"/>
      </g>
     </g>
    </g>
    <g id="text_20">
     <!-- Ár ($) -->
     <g transform="translate(25.432812 188.675656)rotate(-90)scale(0.1 -0.1)">
      <defs>
       <path d="M 34.1875 63.1875 
L 20.796875 26.90625 
L 47.609375 26.90625 
z
M 28.609375 72.90625 
L 39.796875 72.90625 
L 67.578125 0 
L 57.328125 0 
L 50.6875 18.703125 
L 17.828125 18.703125 
L 11.1875 0 
L 0.78125 0 
z
M 36.8125 92.515625 
L 45.84375 92.515625 
L 34.71875 79.625 
L 27.234375 79.625 
z
" id="DejaVuSans-193"/>
       <path d="M 41.109375 46.296875 
Q 39.59375 47.171875 37.8125 47.578125 
Q 36.03125 48 33.890625 48 
Q 26.265625 48 22.1875 43.046875 
Q 18.109375 38.09375 18.109375 28.8125 
L 18.109375 0 
L 9.078125 0 
L 9.078125 54.6875 
L 18.109375 54.6875 
L 18.109375 46.1875 
Q 20.953125 51.171875 25.484375 53.578125 
Q 30.03125 56 36.53125 56 
Q 37.453125 56 38.578125 55.875 
Q 39.703125 55.765625 41.0625 55.515625 
z
" id="DejaVuSans-114"/>
       <path id="DejaVuSans-32"/>
       <path d="M 31 75.875 
Q 24.46875 64.65625 21.28125 53.65625 
Q 18.109375 42.671875 18.109375 31.390625 
Q 18.109375 20.125 21.3125 9.0625 
Q 24.515625 -2 31 -13.1875 
L 23.1875 -13.1875 
Q 15.875 -1.703125 12.234375 9.375 
Q 8.59375 20.453125 8.59375 31.390625 
Q 8.59375 42.28125 12.203125 53.3125 
Q 15.828125 64.359375 23.1875 75.875 
z
" id="DejaVuSans-40"/>
       <path d="M 33.796875 -14.703125 
L 28.90625 -14.703125 
L 28.859375 0 
Q 23.734375 0.09375 18.609375 1.1875 
Q 13.484375 2.296875 8.296875 4.5 
L 8.296875 13.28125 
Q 13.28125 10.15625 18.375 8.5625 
Q 23.484375 6.984375 28.90625 6.9375 
L 28.90625 29.203125 
Q 18.109375 30.953125 13.203125 35.15625 
Q 8.296875 39.359375 8.296875 46.6875 
Q 8.296875 54.640625 13.625 59.21875 
Q 18.953125 63.8125 28.90625 64.5 
L 28.90625 75.984375 
L 33.796875 75.984375 
L 33.796875 64.65625 
Q 38.328125 64.453125 42.578125 63.6875 
Q 46.828125 62.9375 50.875 61.625 
L 50.875 53.078125 
Q 46.828125 55.125 42.546875 56.25 
Q 38.28125 57.375 33.796875 57.5625 
L 33.796875 36.71875 
Q 44.875 35.015625 50.09375 30.609375 
Q 55.328125 26.21875 55.328125 18.609375 
Q 55.328125 10.359375 49.78125 5.59375 
Q 44.234375 0.828125 33.796875 0.09375 
z
M 28.90625 37.59375 
L 28.90625 57.625 
Q 23.25 56.984375 20.265625 54.390625 
Q 17.28125 51.8125 17.28125 47.515625 
Q 17.28125 43.3125 20.03125 40.96875 
Q 22.796875 38.625 28.90625 37.59375 
z
M 33.796875 28.21875 
L 33.796875 7.078125 
Q 39.984375 7.90625 43.140625 10.59375 
Q 46.296875 13.28125 46.296875 17.671875 
Q 46.296875 21.96875 43.28125 24.5 
Q 40.28125 27.046875 33.796875 28.21875 
z
" id="DejaVuSans-36"/>
       <path d="M 8.015625 75.875 
L 15.828125 75.875 
Q 23.140625 64.359375 26.78125 53.3125 
Q 30.421875 42.28125 30.421875 31.390625 
Q 30.421875 20.453125 26.78125 9.375 
Q 23.140625 -1.703125 15.828125 -13.1875 
L 8.015625 -13.1875 
Q 14.5 -2 17.703125 9.0625 
Q 20.90625 20.125 20.90625 31.390625 
Q 20.90625 42.671875 17.703125 53.65625 
Q 14.5 64.65625 8.015625 75.875 
z
" id="DejaVuSans-41"/>
      </defs>
      <use xlink:href="#DejaVuSans-193"/>
      <use x="68.408203" xlink:href="#DejaVuSans-114"/>
      <use x="109.521484" xlink:href="#DejaVuSans-32"/>
      <use x="141.308594" xlink:href="#DejaVuSans-40"/>
      <use x="180.322266" xlink:href="#DejaVuSans-36"/>
      <use x="243.945312" xlink:href="#DejaVuSans-41"/>
     </g>
    </g>
   </g>
   <g id="line2d_20">
    <path clip-path="url(#p227ee67c07)" d="M 73.832727 231.238779 
L 74.866659 228.925396 
L 75.900591 227.937389 
L 76.934522 206.462096 
L 77.968454 210.921817 
L 79.002386 205.226021 
L 80.036317 202.884933 
L 81.070249 181.217968 
L 82.104181 184.002001 
L 83.138112 176.414722 
L 84.172044 163.587311 
L 85.205976 159.013485 
L 86.239907 149.222589 
L 87.273839 130.19179 
L 89.341702 140.513896 
L 90.375634 139.149132 
L 91.409566 160.371639 
L 92.443497 147.371783 
L 93.477429 130.634886 
L 94.511361 140.080743 
L 95.545292 133.821085 
L 96.579224 129.756921 
L 97.613156 137.84634 
L 98.647087 126.774404 
L 99.681019 130.811216 
L 100.714951 125.42589 
L 101.748882 128.532807 
L 102.782814 110.19032 
L 103.816746 127.169254 
L 106.918541 100.245753 
L 107.952472 85.49673 
L 108.986404 88.227924 
L 110.020336 92.771823 
L 111.054268 98.133379 
L 112.088199 83.910519 
L 113.122131 92.409171 
L 114.156063 129.002296 
L 115.189994 129.012692 
L 116.223926 121.303386 
L 117.257858 117.477373 
L 118.291789 147.994993 
L 119.325721 145.274649 
L 120.359653 110.466472 
L 121.393584 130.981288 
L 122.427516 116.73597 
L 123.461448 111.271008 
L 124.495379 119.120813 
L 125.529311 113.429509 
L 126.563243 119.887853 
L 127.597174 117.722993 
L 128.631106 124.74651 
L 129.665038 135.462759 
L 130.698969 134.915551 
L 131.732901 123.980632 
L 132.766833 130.82898 
L 133.800764 136.420057 
L 134.834696 134.05091 
L 135.868628 138.947973 
L 136.902559 154.928074 
L 138.970423 157.546072 
L 140.004354 158.612277 
L 141.038286 156.481129 
L 142.072218 160.576785 
L 143.106149 176.404024 
L 144.140081 176.199836 
L 145.174013 175.303804 
L 146.207944 155.931953 
L 147.241876 124.120979 
L 148.275808 123.362619 
L 149.309739 127.076547 
L 150.343671 89.478483 
L 151.377603 74.231053 
L 152.411534 86.727708 
L 153.445466 77.708596 
L 154.479398 84.414679 
L 155.513329 80.468606 
L 156.547261 102.663551 
L 157.581193 89.517948 
L 158.615124 101.883642 
L 159.649056 101.364847 
L 160.682988 91.087303 
L 161.71692 120.752545 
L 162.750851 116.930064 
L 163.784783 115.969031 
L 164.818715 111.461418 
L 165.852646 110.680147 
L 166.886578 113.694307 
L 167.92051 115.825404 
L 168.954441 124.699476 
L 169.988373 120.676946 
L 171.022305 115.602897 
L 173.090168 121.16536 
L 174.1241 121.27245 
L 175.158031 117.5723 
L 176.191963 108.46578 
L 177.225895 101.223945 
L 178.259826 107.515396 
L 179.293758 97.602674 
L 181.361621 83.613827 
L 182.395553 59.116754 
L 183.429485 72.721299 
L 184.463416 67.430598 
L 185.497348 101.30787 
L 186.53128 109.274656 
L 187.565211 103.015352 
L 188.599143 85.949162 
L 189.633075 88.225048 
L 190.667006 87.188114 
L 191.700938 75.480552 
L 192.73487 87.889446 
L 193.768801 87.27209 
L 194.802733 98.343269 
L 195.836665 102.255075 
L 196.870596 76.605096 
L 197.904528 91.358157 
L 198.93846 102.556108 
L 199.972391 95.511092 
L 201.006323 99.307532 
L 202.040255 94.308173 
L 203.074186 101.197904 
L 204.108118 103.12108 
L 205.14205 115.754953 
L 206.175981 118.165231 
L 207.209913 114.752437 
L 208.243845 126.132471 
L 209.277776 124.632103 
L 210.311708 120.524739 
L 211.34564 118.790005 
L 212.379572 116.485556 
L 213.413503 120.039958 
L 214.447435 115.569236 
L 215.481367 123.220556 
L 216.515298 124.034833 
L 217.54923 121.131497 
L 218.583162 128.098896 
L 219.617093 123.569582 
L 220.651025 116.52391 
L 221.684957 129.048019 
L 222.718888 131.030997 
L 223.75282 127.471144 
L 224.786752 126.304561 
L 225.820683 115.260785 
L 226.854615 119.33358 
L 227.888547 119.536455 
L 228.922478 127.503594 
L 229.95641 130.66779 
L 230.990342 126.582329 
L 232.024273 127.745984 
L 233.058205 130.331229 
L 234.092137 177.076842 
L 235.126068 169.459436 
L 236.16 206.012692 
L 237.193932 201.453401 
L 238.227863 203.822145 
L 239.261795 239.586409 
L 240.295727 245.622828 
L 241.329658 252.878138 
L 242.36359 231.64632 
L 243.397522 242.091438 
L 244.431453 244.23061 
L 245.465385 239.544093 
L 246.499317 230.45559 
L 247.533248 231.320988 
L 248.56718 233.278784 
L 249.601112 225.388934 
L 250.635043 222.723347 
L 251.668975 236.769599 
L 252.702907 230.531062 
L 253.736838 243.603918 
L 254.77077 239.910682 
L 255.804702 244.472748 
L 256.838633 242.22636 
L 257.872565 253.541393 
L 258.906497 249.271427 
L 260.97436 225.248385 
L 262.008292 227.73141 
L 263.042224 227.525861 
L 264.076155 233.957533 
L 265.110087 239.599632 
L 266.144019 250.781282 
L 267.17795 245.321266 
L 268.211882 244.219533 
L 269.245814 247.624504 
L 270.279745 228.365849 
L 271.313677 223.96033 
L 272.347609 231.432418 
L 273.38154 210.811295 
L 274.415472 224.533679 
L 275.449404 219.72463 
L 276.483335 233.686477 
L 277.517267 230.881552 
L 278.551199 237.641912 
L 279.58513 236.160419 
L 280.619062 233.560286 
L 281.652994 231.814247 
L 282.686925 236.375507 
L 283.720857 234.018647 
L 284.754789 239.822668 
L 285.78872 241.703982 
L 286.822652 239.795971 
L 288.890515 234.810643 
L 289.924447 233.819532 
L 290.958379 233.902852 
L 291.99231 236.226832 
L 293.026242 225.669099 
L 294.060174 237.262051 
L 295.094105 236.324611 
L 296.128037 235.639176 
L 297.161969 233.186203 
L 298.1959 233.452035 
L 299.229832 235.107537 
L 300.263764 229.563721 
L 301.297695 231.641173 
L 302.331627 235.992315 
L 303.365559 238.564741 
L 304.39949 237.627554 
L 305.433422 238.024902 
L 306.467354 237.519026 
L 307.501285 243.570963 
L 308.535217 251.526571 
L 309.569149 273.574986 
L 310.60308 277.582351 
L 311.637012 276.115695 
L 312.670944 276.717053 
L 313.704876 286.633963 
L 314.738807 286.310827 
L 315.772739 277.108168 
L 316.806671 273.392171 
L 317.840602 273.913641 
L 318.874534 277.166129 
L 319.908466 273.869079 
L 320.942397 273.272818 
L 321.976329 259.804684 
L 323.010261 264.870658 
L 324.044192 276.779909 
L 325.078124 281.686787 
L 326.112056 280.334084 
L 327.145987 280.414452 
L 328.179919 279.095537 
L 329.213851 280.285157 
L 330.247782 279.199472 
L 331.281714 276.301361 
L 332.315646 280.146425 
L 333.349577 280.707158 
L 334.383509 283.857299 
L 335.417441 294.248746 
L 336.451372 286.046206 
L 337.485304 283.320563 
L 338.519236 283.915487 
L 339.553167 280.785583 
L 340.587099 279.487409 
L 341.621031 276.998227 
L 342.654962 277.761986 
L 343.688894 275.765937 
L 344.722826 280.475012 
L 345.756757 286.377644 
L 346.790689 285.787414 
L 347.824621 286.763511 
L 348.858552 290.530125 
L 349.892484 287.568526 
L 350.926416 283.757375 
L 351.960347 284.407333 
L 352.994279 279.296494 
L 354.028211 278.960085 
L 355.062142 279.717662 
L 356.096074 274.383156 
L 357.130006 279.822456 
L 358.163937 282.008612 
L 359.197869 282.046411 
L 360.231801 286.566616 
L 361.265732 281.810859 
L 362.299664 283.780489 
L 363.333596 285.176997 
L 364.367528 294.71715 
L 365.401459 290.043982 
L 366.435391 293.423215 
L 367.469323 295.488 
L 368.503254 53.568 
L 369.537186 79.209779 
L 370.571118 97.214974 
L 371.605049 149.546391 
L 372.638981 174.178075 
L 373.672913 166.207796 
L 374.706844 155.085974 
L 375.740776 158.855499 
L 376.774708 121.773776 
L 377.808639 99.68797 
L 378.842571 144.530916 
L 379.876503 161.18504 
L 380.910434 161.608343 
L 381.944366 167.349872 
L 382.978298 140.509208 
L 384.012229 142.108886 
L 385.046161 174.086673 
L 386.080093 152.481211 
L 387.114024 243.79844 
L 388.147956 241.983967 
L 389.181888 223.489906 
L 390.215819 222.295159 
L 391.249751 110.834505 
L 392.283683 88.498689 
L 393.317614 101.966563 
L 394.351546 121.402394 
L 395.385478 119.791223 
L 396.419409 147.024341 
L 397.453341 104.077912 
L 398.487273 159.596597 
L 398.487273 159.596597 
" style="fill:none;stroke:#008000;stroke-linecap:square;stroke-width:1.5;"/>
   </g>
   <g id="line2d_21">
    <path clip-path="url(#p227ee67c07)" d="M 73.832727 231.238779 
L 74.866659 228.925396 
L 75.900591 227.937389 
L 76.934522 206.462096 
L 77.968454 210.921817 
L 79.002386 205.226021 
L 80.036317 202.884933 
L 81.070249 181.217968 
L 82.104181 184.002001 
L 83.138112 176.414722 
L 84.172044 163.587311 
L 85.205976 159.013485 
L 86.239907 149.222589 
L 87.273839 130.19179 
L 89.341702 140.513896 
L 90.375634 139.149132 
L 91.409566 160.371639 
L 92.443497 147.371783 
L 93.477429 130.634886 
L 94.511361 140.080743 
L 95.545292 133.821085 
L 96.579224 129.756921 
L 97.613156 137.84634 
L 98.647087 126.774404 
L 99.681019 130.811216 
L 100.714951 125.42589 
L 101.748882 128.532807 
L 102.782814 110.19032 
L 103.816746 127.169254 
L 106.918541 100.245753 
L 107.952472 85.49673 
L 108.986404 88.227924 
L 110.020336 92.771823 
L 111.054268 98.133379 
L 112.088199 83.910519 
L 113.122131 92.409171 
L 114.156063 129.002296 
L 115.189994 129.012692 
L 116.223926 121.303386 
L 117.257858 117.477373 
L 118.291789 147.994993 
L 119.325721 145.274649 
L 120.359653 110.466472 
L 121.393584 130.981288 
L 122.427516 116.73597 
L 123.461448 111.271008 
L 124.495379 119.120813 
L 125.529311 113.429509 
L 126.563243 119.887853 
L 127.597174 117.722993 
L 128.631106 124.74651 
L 129.665038 135.462759 
L 130.698969 134.915551 
L 131.732901 123.980632 
L 132.766833 130.82898 
L 133.800764 136.420057 
L 134.834696 134.05091 
L 135.868628 138.947973 
L 136.902559 154.928074 
L 138.970423 157.546072 
L 140.004354 158.612277 
L 141.038286 156.481129 
L 142.072218 160.576785 
L 143.106149 176.404024 
L 144.140081 176.199836 
L 145.174013 175.303804 
L 146.207944 155.931953 
L 147.241876 124.120979 
L 148.275808 123.362619 
L 149.309739 127.076547 
L 150.343671 89.478483 
L 151.377603 74.231053 
L 152.411534 86.727708 
L 153.445466 77.708596 
L 154.479398 84.414679 
L 155.513329 80.468606 
L 156.547261 102.663551 
L 157.581193 89.517948 
L 158.615124 101.883642 
L 159.649056 101.364847 
L 160.682988 91.087303 
L 161.71692 120.752545 
L 162.750851 116.930064 
L 163.784783 115.969031 
L 164.818715 111.461418 
L 165.852646 110.680147 
L 166.886578 113.694307 
L 167.92051 115.825404 
L 168.954441 124.699476 
L 169.988373 120.676946 
L 171.022305 115.602897 
L 173.090168 121.16536 
L 174.1241 121.27245 
L 175.158031 117.5723 
L 176.191963 108.46578 
L 177.225895 101.223945 
L 178.259826 107.515396 
L 179.293758 97.602674 
L 181.361621 83.613827 
L 182.395553 59.116754 
L 183.429485 72.721299 
L 184.463416 67.430598 
L 185.497348 101.30787 
L 186.53128 109.274656 
L 187.565211 103.015352 
L 188.599143 85.949162 
L 189.633075 88.225048 
L 190.667006 87.188114 
L 191.700938 75.480552 
L 192.73487 87.889446 
L 193.768801 87.27209 
L 194.802733 98.343269 
L 195.836665 102.255075 
L 196.870596 76.605096 
L 197.904528 91.358157 
L 198.93846 102.556108 
L 199.972391 95.511092 
L 201.006323 99.307532 
L 202.040255 94.308173 
L 203.074186 101.197904 
L 204.108118 103.12108 
L 205.14205 115.754953 
L 206.175981 118.165231 
L 207.209913 114.752437 
L 208.243845 126.132471 
L 209.277776 124.632103 
L 210.311708 120.524739 
L 211.34564 118.790005 
L 212.379572 116.485556 
L 213.413503 120.039958 
L 214.447435 115.569236 
L 215.481367 123.220556 
L 216.515298 124.034833 
L 217.54923 121.131497 
L 218.583162 128.098896 
L 219.617093 123.569582 
L 220.651025 116.52391 
L 221.684957 129.048019 
L 222.718888 131.030997 
L 223.75282 127.471144 
L 224.786752 126.304561 
L 225.820683 115.260785 
L 226.854615 119.33358 
L 227.888547 119.536455 
L 228.922478 127.503594 
L 229.95641 130.66779 
L 230.990342 126.582329 
L 232.024273 127.745984 
L 233.058205 130.331229 
L 234.092137 177.076842 
L 235.126068 169.459436 
L 236.16 206.012692 
L 237.193932 201.453401 
L 238.227863 203.822145 
L 239.261795 239.586409 
L 240.295727 245.622828 
L 241.329658 252.878138 
L 242.36359 231.64632 
L 243.397522 242.091438 
L 244.431453 244.23061 
L 245.465385 239.544093 
L 246.499317 230.45559 
L 247.533248 231.320988 
L 248.56718 233.278784 
L 249.601112 225.388934 
L 250.635043 222.723347 
L 251.668975 236.769599 
L 252.702907 230.531062 
L 253.736838 243.603918 
L 254.77077 239.910682 
L 255.804702 244.472748 
L 256.838633 242.22636 
L 257.872565 253.541393 
L 258.906497 249.271427 
L 260.97436 225.248385 
L 262.008292 227.73141 
L 263.042224 227.525861 
L 264.076155 233.957533 
L 265.110087 239.599632 
L 266.144019 250.781282 
L 267.17795 245.321266 
L 268.211882 244.219533 
L 269.245814 247.624504 
L 270.279745 228.365849 
L 271.313677 223.96033 
L 272.347609 231.432418 
L 273.38154 210.811295 
L 274.415472 224.533679 
L 275.449404 219.72463 
L 276.483335 233.686477 
L 277.517267 230.881552 
L 278.551199 237.641912 
L 279.58513 236.160419 
L 280.619062 233.560286 
L 281.652994 231.814247 
L 282.686925 236.375507 
L 283.720857 234.018647 
L 284.754789 239.822668 
L 285.78872 241.703982 
L 286.822652 239.795971 
L 288.890515 234.810643 
L 289.924447 233.819532 
L 290.958379 233.902852 
L 291.99231 236.226832 
L 293.026242 225.669099 
L 294.060174 237.262051 
L 295.094105 236.324611 
L 296.128037 235.639176 
L 297.161969 233.186203 
L 298.1959 233.452035 
L 299.229832 235.107537 
L 300.263764 229.563721 
L 301.297695 231.641173 
L 302.331627 235.992315 
L 303.365559 238.564741 
L 304.39949 237.627554 
L 305.433422 238.024902 
L 306.467354 237.519026 
L 307.501285 243.570963 
L 308.535217 251.526571 
L 309.569149 273.574986 
L 310.60308 277.582351 
L 311.637012 276.115695 
L 312.670944 276.717053 
L 313.704876 286.633963 
L 314.738807 286.310827 
L 315.772739 277.108168 
L 316.806671 273.392171 
L 317.840602 273.913641 
L 318.874534 277.166129 
L 319.908466 273.869079 
L 320.942397 273.272818 
L 321.976329 259.804684 
L 323.010261 264.870658 
L 324.044192 276.779909 
L 325.078124 281.686787 
L 326.112056 280.334084 
L 327.145987 280.414452 
L 328.179919 279.095537 
L 329.213851 280.285157 
L 330.247782 279.199472 
L 331.281714 276.301361 
L 332.315646 280.146425 
L 333.349577 280.707158 
L 334.383509 283.857299 
L 335.417441 294.248746 
L 336.451372 286.046206 
L 337.485304 283.320563 
L 338.519236 283.915487 
L 339.553167 280.785583 
L 340.587099 279.487409 
L 341.621031 276.998227 
L 342.654962 277.761986 
L 343.688894 275.765937 
L 344.722826 280.475012 
L 345.756757 286.377644 
L 346.790689 285.787414 
L 347.824621 286.763511 
L 348.858552 290.530125 
L 349.892484 287.568526 
L 350.926416 283.757375 
L 351.960347 284.407333 
L 352.994279 279.296494 
L 354.028211 278.960085 
L 355.062142 279.717662 
L 356.096074 274.383156 
L 357.130006 279.822456 
L 358.163937 282.008612 
L 359.197869 282.046411 
L 360.231801 286.566616 
L 361.265732 281.810859 
L 362.299664 283.780489 
L 363.333596 285.176997 
L 364.367528 294.71715 
L 365.401459 290.043982 
L 366.435391 293.423215 
L 367.469323 295.488 
L 367.469323 295.488 
" style="fill:none;stroke:#000000;stroke-linecap:square;stroke-width:1.5;"/>
   </g>
   <g id="patch_3">
    <path d="M 57.6 307.584 
L 57.6 41.472 
" style="fill:none;stroke:#000000;stroke-linecap:square;stroke-linejoin:miter;stroke-width:0.8;"/>
   </g>
   <g id="patch_4">
    <path d="M 414.72 307.584 
L 414.72 41.472 
" style="fill:none;stroke:#000000;stroke-linecap:square;stroke-linejoin:miter;stroke-width:0.8;"/>
   </g>
   <g id="patch_5">
    <path d="M 57.6 307.584 
L 414.72 307.584 
" style="fill:none;stroke:#000000;stroke-linecap:square;stroke-linejoin:miter;stroke-width:0.8;"/>
   </g>
   <g id="patch_6">
    <path d="M 57.6 41.472 
L 414.72 41.472 
" style="fill:none;stroke:#000000;stroke-linecap:square;stroke-linejoin:miter;stroke-width:0.8;"/>
   </g>
   <g id="text_21">
    <!-- BNB záró árfolyam előrejelzés RandomSearch optimalizált SVM modellel -->
    <g transform="translate(19.101562 35.472)scale(0.12 -0.12)">
     <defs>
      <path d="M 19.671875 34.8125 
L 19.671875 8.109375 
L 35.5 8.109375 
Q 43.453125 8.109375 47.28125 11.40625 
Q 51.125 14.703125 51.125 21.484375 
Q 51.125 28.328125 47.28125 31.5625 
Q 43.453125 34.8125 35.5 34.8125 
z
M 19.671875 64.796875 
L 19.671875 42.828125 
L 34.28125 42.828125 
Q 41.5 42.828125 45.03125 45.53125 
Q 48.578125 48.25 48.578125 53.8125 
Q 48.578125 59.328125 45.03125 62.0625 
Q 41.5 64.796875 34.28125 64.796875 
z
M 9.8125 72.90625 
L 35.015625 72.90625 
Q 46.296875 72.90625 52.390625 68.21875 
Q 58.5 63.53125 58.5 54.890625 
Q 58.5 48.1875 55.375 44.234375 
Q 52.25 40.28125 46.1875 39.3125 
Q 53.46875 37.75 57.5 32.78125 
Q 61.53125 27.828125 61.53125 20.40625 
Q 61.53125 10.640625 54.890625 5.3125 
Q 48.25 0 35.984375 0 
L 9.8125 0 
z
" id="DejaVuSans-66"/>
      <path d="M 9.8125 72.90625 
L 23.09375 72.90625 
L 55.421875 11.921875 
L 55.421875 72.90625 
L 64.984375 72.90625 
L 64.984375 0 
L 51.703125 0 
L 19.390625 60.984375 
L 19.390625 0 
L 9.8125 0 
z
" id="DejaVuSans-78"/>
      <path d="M 5.515625 54.6875 
L 48.1875 54.6875 
L 48.1875 46.484375 
L 14.40625 7.171875 
L 48.1875 7.171875 
L 48.1875 0 
L 4.296875 0 
L 4.296875 8.203125 
L 38.09375 47.515625 
L 5.515625 47.515625 
z
" id="DejaVuSans-122"/>
      <path d="M 34.28125 27.484375 
Q 23.390625 27.484375 19.1875 25 
Q 14.984375 22.515625 14.984375 16.5 
Q 14.984375 11.71875 18.140625 8.90625 
Q 21.296875 6.109375 26.703125 6.109375 
Q 34.1875 6.109375 38.703125 11.40625 
Q 43.21875 16.703125 43.21875 25.484375 
L 43.21875 27.484375 
z
M 52.203125 31.203125 
L 52.203125 0 
L 43.21875 0 
L 43.21875 8.296875 
Q 40.140625 3.328125 35.546875 0.953125 
Q 30.953125 -1.421875 24.3125 -1.421875 
Q 15.921875 -1.421875 10.953125 3.296875 
Q 6 8.015625 6 15.921875 
Q 6 25.140625 12.171875 29.828125 
Q 18.359375 34.515625 30.609375 34.515625 
L 43.21875 34.515625 
L 43.21875 35.40625 
Q 43.21875 41.609375 39.140625 45 
Q 35.0625 48.390625 27.6875 48.390625 
Q 23 48.390625 18.546875 47.265625 
Q 14.109375 46.140625 10.015625 43.890625 
L 10.015625 52.203125 
Q 14.9375 54.109375 19.578125 55.046875 
Q 24.21875 56 28.609375 56 
Q 40.484375 56 46.34375 49.84375 
Q 52.203125 43.703125 52.203125 31.203125 
z
M 35.78125 79.984375 
L 45.5 79.984375 
L 29.59375 61.625 
L 22.109375 61.625 
z
" id="DejaVuSans-225"/>
      <path d="M 30.609375 48.390625 
Q 23.390625 48.390625 19.1875 42.75 
Q 14.984375 37.109375 14.984375 27.296875 
Q 14.984375 17.484375 19.15625 11.84375 
Q 23.34375 6.203125 30.609375 6.203125 
Q 37.796875 6.203125 41.984375 11.859375 
Q 46.1875 17.53125 46.1875 27.296875 
Q 46.1875 37.015625 41.984375 42.703125 
Q 37.796875 48.390625 30.609375 48.390625 
z
M 30.609375 56 
Q 42.328125 56 49.015625 48.375 
Q 55.71875 40.765625 55.71875 27.296875 
Q 55.71875 13.875 49.015625 6.21875 
Q 42.328125 -1.421875 30.609375 -1.421875 
Q 18.84375 -1.421875 12.171875 6.21875 
Q 5.515625 13.875 5.515625 27.296875 
Q 5.515625 40.765625 12.171875 48.375 
Q 18.84375 56 30.609375 56 
z
M 37.40625 79.984375 
L 47.125 79.984375 
L 31.21875 61.625 
L 23.734375 61.625 
z
" id="DejaVuSans-243"/>
      <path d="M 37.109375 75.984375 
L 37.109375 68.5 
L 28.515625 68.5 
Q 23.6875 68.5 21.796875 66.546875 
Q 19.921875 64.59375 19.921875 59.515625 
L 19.921875 54.6875 
L 34.71875 54.6875 
L 34.71875 47.703125 
L 19.921875 47.703125 
L 19.921875 0 
L 10.890625 0 
L 10.890625 47.703125 
L 2.296875 47.703125 
L 2.296875 54.6875 
L 10.890625 54.6875 
L 10.890625 58.5 
Q 10.890625 67.625 15.140625 71.796875 
Q 19.390625 75.984375 28.609375 75.984375 
z
" id="DejaVuSans-102"/>
      <path d="M 30.609375 48.390625 
Q 23.390625 48.390625 19.1875 42.75 
Q 14.984375 37.109375 14.984375 27.296875 
Q 14.984375 17.484375 19.15625 11.84375 
Q 23.34375 6.203125 30.609375 6.203125 
Q 37.796875 6.203125 41.984375 11.859375 
Q 46.1875 17.53125 46.1875 27.296875 
Q 46.1875 37.015625 41.984375 42.703125 
Q 37.796875 48.390625 30.609375 48.390625 
z
M 30.609375 56 
Q 42.328125 56 49.015625 48.375 
Q 55.71875 40.765625 55.71875 27.296875 
Q 55.71875 13.875 49.015625 6.21875 
Q 42.328125 -1.421875 30.609375 -1.421875 
Q 18.84375 -1.421875 12.171875 6.21875 
Q 5.515625 13.875 5.515625 27.296875 
Q 5.515625 40.765625 12.171875 48.375 
Q 18.84375 56 30.609375 56 
z
" id="DejaVuSans-111"/>
      <path d="M 9.421875 75.984375 
L 18.40625 75.984375 
L 18.40625 0 
L 9.421875 0 
z
" id="DejaVuSans-108"/>
      <path d="M 32.171875 -5.078125 
Q 28.375 -14.84375 24.75 -17.8125 
Q 21.140625 -20.796875 15.09375 -20.796875 
L 7.90625 -20.796875 
L 7.90625 -13.28125 
L 13.1875 -13.28125 
Q 16.890625 -13.28125 18.9375 -11.515625 
Q 21 -9.765625 23.484375 -3.21875 
L 25.09375 0.875 
L 2.984375 54.6875 
L 12.5 54.6875 
L 29.59375 11.921875 
L 46.6875 54.6875 
L 56.203125 54.6875 
z
" id="DejaVuSans-121"/>
      <path d="M 34.28125 27.484375 
Q 23.390625 27.484375 19.1875 25 
Q 14.984375 22.515625 14.984375 16.5 
Q 14.984375 11.71875 18.140625 8.90625 
Q 21.296875 6.109375 26.703125 6.109375 
Q 34.1875 6.109375 38.703125 11.40625 
Q 43.21875 16.703125 43.21875 25.484375 
L 43.21875 27.484375 
z
M 52.203125 31.203125 
L 52.203125 0 
L 43.21875 0 
L 43.21875 8.296875 
Q 40.140625 3.328125 35.546875 0.953125 
Q 30.953125 -1.421875 24.3125 -1.421875 
Q 15.921875 -1.421875 10.953125 3.296875 
Q 6 8.015625 6 15.921875 
Q 6 25.140625 12.171875 29.828125 
Q 18.359375 34.515625 30.609375 34.515625 
L 43.21875 34.515625 
L 43.21875 35.40625 
Q 43.21875 41.609375 39.140625 45 
Q 35.0625 48.390625 27.6875 48.390625 
Q 23 48.390625 18.546875 47.265625 
Q 14.109375 46.140625 10.015625 43.890625 
L 10.015625 52.203125 
Q 14.9375 54.109375 19.578125 55.046875 
Q 24.21875 56 28.609375 56 
Q 40.484375 56 46.34375 49.84375 
Q 52.203125 43.703125 52.203125 31.203125 
z
" id="DejaVuSans-97"/>
      <path d="M 52 44.1875 
Q 55.375 50.25 60.0625 53.125 
Q 64.75 56 71.09375 56 
Q 79.640625 56 84.28125 50.015625 
Q 88.921875 44.046875 88.921875 33.015625 
L 88.921875 0 
L 79.890625 0 
L 79.890625 32.71875 
Q 79.890625 40.578125 77.09375 44.375 
Q 74.3125 48.1875 68.609375 48.1875 
Q 61.625 48.1875 57.5625 43.546875 
Q 53.515625 38.921875 53.515625 30.90625 
L 53.515625 0 
L 44.484375 0 
L 44.484375 32.71875 
Q 44.484375 40.625 41.703125 44.40625 
Q 38.921875 48.1875 33.109375 48.1875 
Q 26.21875 48.1875 22.15625 43.53125 
Q 18.109375 38.875 18.109375 30.90625 
L 18.109375 0 
L 9.078125 0 
L 9.078125 54.6875 
L 18.109375 54.6875 
L 18.109375 46.1875 
Q 21.1875 51.21875 25.484375 53.609375 
Q 29.78125 56 35.6875 56 
Q 41.65625 56 45.828125 52.96875 
Q 50 49.953125 52 44.1875 
z
" id="DejaVuSans-109"/>
      <path d="M 56.203125 29.59375 
L 56.203125 25.203125 
L 14.890625 25.203125 
Q 15.484375 15.921875 20.484375 11.0625 
Q 25.484375 6.203125 34.421875 6.203125 
Q 39.59375 6.203125 44.453125 7.46875 
Q 49.3125 8.734375 54.109375 11.28125 
L 54.109375 2.78125 
Q 49.265625 0.734375 44.1875 -0.34375 
Q 39.109375 -1.421875 33.890625 -1.421875 
Q 20.796875 -1.421875 13.15625 6.1875 
Q 5.515625 13.8125 5.515625 26.8125 
Q 5.515625 40.234375 12.765625 48.109375 
Q 20.015625 56 32.328125 56 
Q 43.359375 56 49.78125 48.890625 
Q 56.203125 41.796875 56.203125 29.59375 
z
M 47.21875 32.234375 
Q 47.125 39.59375 43.09375 43.984375 
Q 39.0625 48.390625 32.421875 48.390625 
Q 24.90625 48.390625 20.390625 44.140625 
Q 15.875 39.890625 15.1875 32.171875 
z
" id="DejaVuSans-101"/>
      <path d="M 45.1875 79.984375 
L 53.875 79.984375 
L 41.765625 61.625 
L 35.171875 61.625 
z
M 28.875 79.984375 
L 37.171875 79.984375 
L 26.28125 61.625 
L 19.59375 61.625 
z
M 30.609375 48.390625 
Q 23.390625 48.390625 19.1875 42.75 
Q 14.984375 37.109375 14.984375 27.296875 
Q 14.984375 17.484375 19.15625 11.84375 
Q 23.34375 6.203125 30.609375 6.203125 
Q 37.796875 6.203125 41.984375 11.859375 
Q 46.1875 17.53125 46.1875 27.296875 
Q 46.1875 37.015625 41.984375 42.703125 
Q 37.796875 48.390625 30.609375 48.390625 
z
M 30.609375 56 
Q 42.328125 56 49.015625 48.375 
Q 55.71875 40.765625 55.71875 27.296875 
Q 55.71875 13.875 49.015625 6.21875 
Q 42.328125 -1.421875 30.609375 -1.421875 
Q 18.84375 -1.421875 12.171875 6.21875 
Q 5.515625 13.875 5.515625 27.296875 
Q 5.515625 40.765625 12.171875 48.375 
Q 18.84375 56 30.609375 56 
z
" id="DejaVuSans-337"/>
      <path d="M 9.421875 54.6875 
L 18.40625 54.6875 
L 18.40625 -0.984375 
Q 18.40625 -11.421875 14.421875 -16.109375 
Q 10.453125 -20.796875 1.609375 -20.796875 
L -1.8125 -20.796875 
L -1.8125 -13.1875 
L 0.59375 -13.1875 
Q 5.71875 -13.1875 7.5625 -10.8125 
Q 9.421875 -8.453125 9.421875 -0.984375 
z
M 9.421875 75.984375 
L 18.40625 75.984375 
L 18.40625 64.59375 
L 9.421875 64.59375 
z
" id="DejaVuSans-106"/>
      <path d="M 56.203125 29.59375 
L 56.203125 25.203125 
L 14.890625 25.203125 
Q 15.484375 15.921875 20.484375 11.0625 
Q 25.484375 6.203125 34.421875 6.203125 
Q 39.59375 6.203125 44.453125 7.46875 
Q 49.3125 8.734375 54.109375 11.28125 
L 54.109375 2.78125 
Q 49.265625 0.734375 44.1875 -0.34375 
Q 39.109375 -1.421875 33.890625 -1.421875 
Q 20.796875 -1.421875 13.15625 6.1875 
Q 5.515625 13.8125 5.515625 26.8125 
Q 5.515625 40.234375 12.765625 48.109375 
Q 20.015625 56 32.328125 56 
Q 43.359375 56 49.78125 48.890625 
Q 56.203125 41.796875 56.203125 29.59375 
z
M 47.21875 32.234375 
Q 47.125 39.59375 43.09375 43.984375 
Q 39.0625 48.390625 32.421875 48.390625 
Q 24.90625 48.390625 20.390625 44.140625 
Q 15.875 39.890625 15.1875 32.171875 
z
M 38.53125 79.984375 
L 48.25 79.984375 
L 32.34375 61.625 
L 24.859375 61.625 
z
" id="DejaVuSans-233"/>
      <path d="M 44.28125 53.078125 
L 44.28125 44.578125 
Q 40.484375 46.53125 36.375 47.5 
Q 32.28125 48.484375 27.875 48.484375 
Q 21.1875 48.484375 17.84375 46.4375 
Q 14.5 44.390625 14.5 40.28125 
Q 14.5 37.15625 16.890625 35.375 
Q 19.28125 33.59375 26.515625 31.984375 
L 29.59375 31.296875 
Q 39.15625 29.25 43.1875 25.515625 
Q 47.21875 21.78125 47.21875 15.09375 
Q 47.21875 7.46875 41.1875 3.015625 
Q 35.15625 -1.421875 24.609375 -1.421875 
Q 20.21875 -1.421875 15.453125 -0.5625 
Q 10.6875 0.296875 5.421875 2 
L 5.421875 11.28125 
Q 10.40625 8.6875 15.234375 7.390625 
Q 20.0625 6.109375 24.8125 6.109375 
Q 31.15625 6.109375 34.5625 8.28125 
Q 37.984375 10.453125 37.984375 14.40625 
Q 37.984375 18.0625 35.515625 20.015625 
Q 33.0625 21.96875 24.703125 23.78125 
L 21.578125 24.515625 
Q 13.234375 26.265625 9.515625 29.90625 
Q 5.8125 33.546875 5.8125 39.890625 
Q 5.8125 47.609375 11.28125 51.796875 
Q 16.75 56 26.8125 56 
Q 31.78125 56 36.171875 55.265625 
Q 40.578125 54.546875 44.28125 53.078125 
z
" id="DejaVuSans-115"/>
      <path d="M 44.390625 34.1875 
Q 47.5625 33.109375 50.5625 29.59375 
Q 53.5625 26.078125 56.59375 19.921875 
L 66.609375 0 
L 56 0 
L 46.6875 18.703125 
Q 43.0625 26.03125 39.671875 28.421875 
Q 36.28125 30.8125 30.421875 30.8125 
L 19.671875 30.8125 
L 19.671875 0 
L 9.8125 0 
L 9.8125 72.90625 
L 32.078125 72.90625 
Q 44.578125 72.90625 50.734375 67.671875 
Q 56.890625 62.453125 56.890625 51.90625 
Q 56.890625 45.015625 53.6875 40.46875 
Q 50.484375 35.9375 44.390625 34.1875 
z
M 19.671875 64.796875 
L 19.671875 38.921875 
L 32.078125 38.921875 
Q 39.203125 38.921875 42.84375 42.21875 
Q 46.484375 45.515625 46.484375 51.90625 
Q 46.484375 58.296875 42.84375 61.546875 
Q 39.203125 64.796875 32.078125 64.796875 
z
" id="DejaVuSans-82"/>
      <path d="M 54.890625 33.015625 
L 54.890625 0 
L 45.90625 0 
L 45.90625 32.71875 
Q 45.90625 40.484375 42.875 44.328125 
Q 39.84375 48.1875 33.796875 48.1875 
Q 26.515625 48.1875 22.3125 43.546875 
Q 18.109375 38.921875 18.109375 30.90625 
L 18.109375 0 
L 9.078125 0 
L 9.078125 54.6875 
L 18.109375 54.6875 
L 18.109375 46.1875 
Q 21.34375 51.125 25.703125 53.5625 
Q 30.078125 56 35.796875 56 
Q 45.21875 56 50.046875 50.171875 
Q 54.890625 44.34375 54.890625 33.015625 
z
" id="DejaVuSans-110"/>
      <path d="M 45.40625 46.390625 
L 45.40625 75.984375 
L 54.390625 75.984375 
L 54.390625 0 
L 45.40625 0 
L 45.40625 8.203125 
Q 42.578125 3.328125 38.25 0.953125 
Q 33.9375 -1.421875 27.875 -1.421875 
Q 17.96875 -1.421875 11.734375 6.484375 
Q 5.515625 14.40625 5.515625 27.296875 
Q 5.515625 40.1875 11.734375 48.09375 
Q 17.96875 56 27.875 56 
Q 33.9375 56 38.25 53.625 
Q 42.578125 51.265625 45.40625 46.390625 
z
M 14.796875 27.296875 
Q 14.796875 17.390625 18.875 11.75 
Q 22.953125 6.109375 30.078125 6.109375 
Q 37.203125 6.109375 41.296875 11.75 
Q 45.40625 17.390625 45.40625 27.296875 
Q 45.40625 37.203125 41.296875 42.84375 
Q 37.203125 48.484375 30.078125 48.484375 
Q 22.953125 48.484375 18.875 42.84375 
Q 14.796875 37.203125 14.796875 27.296875 
z
" id="DejaVuSans-100"/>
      <path d="M 53.515625 70.515625 
L 53.515625 60.890625 
Q 47.90625 63.578125 42.921875 64.890625 
Q 37.9375 66.21875 33.296875 66.21875 
Q 25.25 66.21875 20.875 63.09375 
Q 16.5 59.96875 16.5 54.203125 
Q 16.5 49.359375 19.40625 46.890625 
Q 22.3125 44.4375 30.421875 42.921875 
L 36.375 41.703125 
Q 47.40625 39.59375 52.65625 34.296875 
Q 57.90625 29 57.90625 20.125 
Q 57.90625 9.515625 50.796875 4.046875 
Q 43.703125 -1.421875 29.984375 -1.421875 
Q 24.8125 -1.421875 18.96875 -0.25 
Q 13.140625 0.921875 6.890625 3.21875 
L 6.890625 13.375 
Q 12.890625 10.015625 18.65625 8.296875 
Q 24.421875 6.59375 29.984375 6.59375 
Q 38.421875 6.59375 43.015625 9.90625 
Q 47.609375 13.234375 47.609375 19.390625 
Q 47.609375 24.75 44.3125 27.78125 
Q 41.015625 30.8125 33.5 32.328125 
L 27.484375 33.5 
Q 16.453125 35.6875 11.515625 40.375 
Q 6.59375 45.0625 6.59375 53.421875 
Q 6.59375 63.09375 13.40625 68.65625 
Q 20.21875 74.21875 32.171875 74.21875 
Q 37.3125 74.21875 42.625 73.28125 
Q 47.953125 72.359375 53.515625 70.515625 
z
" id="DejaVuSans-83"/>
      <path d="M 48.78125 52.59375 
L 48.78125 44.1875 
Q 44.96875 46.296875 41.140625 47.34375 
Q 37.3125 48.390625 33.40625 48.390625 
Q 24.65625 48.390625 19.8125 42.84375 
Q 14.984375 37.3125 14.984375 27.296875 
Q 14.984375 17.28125 19.8125 11.734375 
Q 24.65625 6.203125 33.40625 6.203125 
Q 37.3125 6.203125 41.140625 7.25 
Q 44.96875 8.296875 48.78125 10.40625 
L 48.78125 2.09375 
Q 45.015625 0.34375 40.984375 -0.53125 
Q 36.96875 -1.421875 32.421875 -1.421875 
Q 20.0625 -1.421875 12.78125 6.34375 
Q 5.515625 14.109375 5.515625 27.296875 
Q 5.515625 40.671875 12.859375 48.328125 
Q 20.21875 56 33.015625 56 
Q 37.15625 56 41.109375 55.140625 
Q 45.0625 54.296875 48.78125 52.59375 
z
" id="DejaVuSans-99"/>
      <path d="M 54.890625 33.015625 
L 54.890625 0 
L 45.90625 0 
L 45.90625 32.71875 
Q 45.90625 40.484375 42.875 44.328125 
Q 39.84375 48.1875 33.796875 48.1875 
Q 26.515625 48.1875 22.3125 43.546875 
Q 18.109375 38.921875 18.109375 30.90625 
L 18.109375 0 
L 9.078125 0 
L 9.078125 75.984375 
L 18.109375 75.984375 
L 18.109375 46.1875 
Q 21.34375 51.125 25.703125 53.5625 
Q 30.078125 56 35.796875 56 
Q 45.21875 56 50.046875 50.171875 
Q 54.890625 44.34375 54.890625 33.015625 
z
" id="DejaVuSans-104"/>
      <path d="M 18.109375 8.203125 
L 18.109375 -20.796875 
L 9.078125 -20.796875 
L 9.078125 54.6875 
L 18.109375 54.6875 
L 18.109375 46.390625 
Q 20.953125 51.265625 25.265625 53.625 
Q 29.59375 56 35.59375 56 
Q 45.5625 56 51.78125 48.09375 
Q 58.015625 40.1875 58.015625 27.296875 
Q 58.015625 14.40625 51.78125 6.484375 
Q 45.5625 -1.421875 35.59375 -1.421875 
Q 29.59375 -1.421875 25.265625 0.953125 
Q 20.953125 3.328125 18.109375 8.203125 
z
M 48.6875 27.296875 
Q 48.6875 37.203125 44.609375 42.84375 
Q 40.53125 48.484375 33.40625 48.484375 
Q 26.265625 48.484375 22.1875 42.84375 
Q 18.109375 37.203125 18.109375 27.296875 
Q 18.109375 17.390625 22.1875 11.75 
Q 26.265625 6.109375 33.40625 6.109375 
Q 40.53125 6.109375 44.609375 11.75 
Q 48.6875 17.390625 48.6875 27.296875 
z
" id="DejaVuSans-112"/>
      <path d="M 18.3125 70.21875 
L 18.3125 54.6875 
L 36.8125 54.6875 
L 36.8125 47.703125 
L 18.3125 47.703125 
L 18.3125 18.015625 
Q 18.3125 11.328125 20.140625 9.421875 
Q 21.96875 7.515625 27.59375 7.515625 
L 36.8125 7.515625 
L 36.8125 0 
L 27.59375 0 
Q 17.1875 0 13.234375 3.875 
Q 9.28125 7.765625 9.28125 18.015625 
L 9.28125 47.703125 
L 2.6875 47.703125 
L 2.6875 54.6875 
L 9.28125 54.6875 
L 9.28125 70.21875 
z
" id="DejaVuSans-116"/>
      <path d="M 9.421875 54.6875 
L 18.40625 54.6875 
L 18.40625 0 
L 9.421875 0 
z
M 9.421875 75.984375 
L 18.40625 75.984375 
L 18.40625 64.59375 
L 9.421875 64.59375 
z
" id="DejaVuSans-105"/>
      <path d="M 28.609375 0 
L 0.78125 72.90625 
L 11.078125 72.90625 
L 34.1875 11.53125 
L 57.328125 72.90625 
L 67.578125 72.90625 
L 39.796875 0 
z
" id="DejaVuSans-86"/>
      <path d="M 9.8125 72.90625 
L 24.515625 72.90625 
L 43.109375 23.296875 
L 61.8125 72.90625 
L 76.515625 72.90625 
L 76.515625 0 
L 66.890625 0 
L 66.890625 64.015625 
L 48.09375 14.015625 
L 38.1875 14.015625 
L 19.390625 64.015625 
L 19.390625 0 
L 9.8125 0 
z
" id="DejaVuSans-77"/>
     </defs>
     <use xlink:href="#DejaVuSans-66"/>
     <use x="68.603516" xlink:href="#DejaVuSans-78"/>
     <use x="143.408203" xlink:href="#DejaVuSans-66"/>
     <use x="212.011719" xlink:href="#DejaVuSans-32"/>
     <use x="243.798828" xlink:href="#DejaVuSans-122"/>
     <use x="296.289062" xlink:href="#DejaVuSans-225"/>
     <use x="357.568359" xlink:href="#DejaVuSans-114"/>
     <use x="396.431641" xlink:href="#DejaVuSans-243"/>
     <use x="457.613281" xlink:href="#DejaVuSans-32"/>
     <use x="489.400391" xlink:href="#DejaVuSans-225"/>
     <use x="550.679688" xlink:href="#DejaVuSans-114"/>
     <use x="591.792969" xlink:href="#DejaVuSans-102"/>
     <use x="626.998047" xlink:href="#DejaVuSans-111"/>
     <use x="688.179688" xlink:href="#DejaVuSans-108"/>
     <use x="715.962891" xlink:href="#DejaVuSans-121"/>
     <use x="775.142578" xlink:href="#DejaVuSans-97"/>
     <use x="836.421875" xlink:href="#DejaVuSans-109"/>
     <use x="933.833984" xlink:href="#DejaVuSans-32"/>
     <use x="965.621094" xlink:href="#DejaVuSans-101"/>
     <use x="1027.144531" xlink:href="#DejaVuSans-108"/>
     <use x="1054.927734" xlink:href="#DejaVuSans-337"/>
     <use x="1116.109375" xlink:href="#DejaVuSans-114"/>
     <use x="1154.972656" xlink:href="#DejaVuSans-101"/>
     <use x="1216.496094" xlink:href="#DejaVuSans-106"/>
     <use x="1244.279297" xlink:href="#DejaVuSans-101"/>
     <use x="1305.802734" xlink:href="#DejaVuSans-108"/>
     <use x="1333.585938" xlink:href="#DejaVuSans-122"/>
     <use x="1386.076172" xlink:href="#DejaVuSans-233"/>
     <use x="1447.599609" xlink:href="#DejaVuSans-115"/>
     <use x="1499.699219" xlink:href="#DejaVuSans-32"/>
     <use x="1531.486328" xlink:href="#DejaVuSans-82"/>
     <use x="1598.71875" xlink:href="#DejaVuSans-97"/>
     <use x="1659.998047" xlink:href="#DejaVuSans-110"/>
     <use x="1723.376953" xlink:href="#DejaVuSans-100"/>
     <use x="1786.853516" xlink:href="#DejaVuSans-111"/>
     <use x="1848.035156" xlink:href="#DejaVuSans-109"/>
     <use x="1945.447266" xlink:href="#DejaVuSans-83"/>
     <use x="2008.923828" xlink:href="#DejaVuSans-101"/>
     <use x="2070.447266" xlink:href="#DejaVuSans-97"/>
     <use x="2131.726562" xlink:href="#DejaVuSans-114"/>
     <use x="2170.589844" xlink:href="#DejaVuSans-99"/>
     <use x="2225.570312" xlink:href="#DejaVuSans-104"/>
     <use x="2288.949219" xlink:href="#DejaVuSans-32"/>
     <use x="2320.736328" xlink:href="#DejaVuSans-111"/>
     <use x="2381.917969" xlink:href="#DejaVuSans-112"/>
     <use x="2445.394531" xlink:href="#DejaVuSans-116"/>
     <use x="2484.603516" xlink:href="#DejaVuSans-105"/>
     <use x="2512.386719" xlink:href="#DejaVuSans-109"/>
     <use x="2609.798828" xlink:href="#DejaVuSans-97"/>
     <use x="2671.078125" xlink:href="#DejaVuSans-108"/>
     <use x="2698.861328" xlink:href="#DejaVuSans-105"/>
     <use x="2726.644531" xlink:href="#DejaVuSans-122"/>
     <use x="2779.134766" xlink:href="#DejaVuSans-225"/>
     <use x="2840.414062" xlink:href="#DejaVuSans-108"/>
     <use x="2868.197266" xlink:href="#DejaVuSans-116"/>
     <use x="2907.40625" xlink:href="#DejaVuSans-32"/>
     <use x="2939.193359" xlink:href="#DejaVuSans-83"/>
     <use x="3002.669922" xlink:href="#DejaVuSans-86"/>
     <use x="3071.078125" xlink:href="#DejaVuSans-77"/>
     <use x="3157.357422" xlink:href="#DejaVuSans-32"/>
     <use x="3189.144531" xlink:href="#DejaVuSans-109"/>
     <use x="3286.556641" xlink:href="#DejaVuSans-111"/>
     <use x="3347.738281" xlink:href="#DejaVuSans-100"/>
     <use x="3411.214844" xlink:href="#DejaVuSans-101"/>
     <use x="3472.738281" xlink:href="#DejaVuSans-108"/>
     <use x="3500.521484" xlink:href="#DejaVuSans-108"/>
     <use x="3528.304688" xlink:href="#DejaVuSans-101"/>
     <use x="3589.828125" xlink:href="#DejaVuSans-108"/>
    </g>
   </g>
   <g id="legend_1">
    <g id="patch_7">
     <path d="M 64.6 79.62825 
L 325.379688 79.62825 
Q 327.379688 79.62825 327.379688 77.62825 
L 327.379688 48.472 
Q 327.379688 46.472 325.379688 46.472 
L 64.6 46.472 
Q 62.6 46.472 62.6 48.472 
L 62.6 77.62825 
Q 62.6 79.62825 64.6 79.62825 
z
" style="fill:#ffffff;opacity:0.8;stroke:#cccccc;stroke-linejoin:miter;"/>
    </g>
    <g id="line2d_22">
     <path d="M 66.6 54.970438 
L 86.6 54.970438 
" style="fill:none;stroke:#008000;stroke-linecap:square;stroke-width:1.5;"/>
    </g>
    <g id="line2d_23"/>
    <g id="text_22">
     <!-- Modell alapján előrejelzett napi záró árfolyam -->
     <g transform="translate(94.6 58.470438)scale(0.1 -0.1)">
      <use xlink:href="#DejaVuSans-77"/>
      <use x="86.279297" xlink:href="#DejaVuSans-111"/>
      <use x="147.460938" xlink:href="#DejaVuSans-100"/>
      <use x="210.9375" xlink:href="#DejaVuSans-101"/>
      <use x="272.460938" xlink:href="#DejaVuSans-108"/>
      <use x="300.244141" xlink:href="#DejaVuSans-108"/>
      <use x="328.027344" xlink:href="#DejaVuSans-32"/>
      <use x="359.814453" xlink:href="#DejaVuSans-97"/>
      <use x="421.09375" xlink:href="#DejaVuSans-108"/>
      <use x="448.876953" xlink:href="#DejaVuSans-97"/>
      <use x="510.15625" xlink:href="#DejaVuSans-112"/>
      <use x="573.632812" xlink:href="#DejaVuSans-106"/>
      <use x="601.416016" xlink:href="#DejaVuSans-225"/>
      <use x="662.695312" xlink:href="#DejaVuSans-110"/>
      <use x="726.074219" xlink:href="#DejaVuSans-32"/>
      <use x="757.861328" xlink:href="#DejaVuSans-101"/>
      <use x="819.384766" xlink:href="#DejaVuSans-108"/>
      <use x="847.167969" xlink:href="#DejaVuSans-337"/>
      <use x="908.349609" xlink:href="#DejaVuSans-114"/>
      <use x="947.212891" xlink:href="#DejaVuSans-101"/>
      <use x="1008.736328" xlink:href="#DejaVuSans-106"/>
      <use x="1036.519531" xlink:href="#DejaVuSans-101"/>
      <use x="1098.042969" xlink:href="#DejaVuSans-108"/>
      <use x="1125.826172" xlink:href="#DejaVuSans-122"/>
      <use x="1178.316406" xlink:href="#DejaVuSans-101"/>
      <use x="1239.839844" xlink:href="#DejaVuSans-116"/>
      <use x="1279.048828" xlink:href="#DejaVuSans-116"/>
      <use x="1318.257812" xlink:href="#DejaVuSans-32"/>
      <use x="1350.044922" xlink:href="#DejaVuSans-110"/>
      <use x="1413.423828" xlink:href="#DejaVuSans-97"/>
      <use x="1474.703125" xlink:href="#DejaVuSans-112"/>
      <use x="1538.179688" xlink:href="#DejaVuSans-105"/>
      <use x="1565.962891" xlink:href="#DejaVuSans-32"/>
      <use x="1597.75" xlink:href="#DejaVuSans-122"/>
      <use x="1650.240234" xlink:href="#DejaVuSans-225"/>
      <use x="1711.519531" xlink:href="#DejaVuSans-114"/>
      <use x="1750.382812" xlink:href="#DejaVuSans-243"/>
      <use x="1811.564453" xlink:href="#DejaVuSans-32"/>
      <use x="1843.351562" xlink:href="#DejaVuSans-225"/>
      <use x="1904.630859" xlink:href="#DejaVuSans-114"/>
      <use x="1945.744141" xlink:href="#DejaVuSans-102"/>
      <use x="1980.949219" xlink:href="#DejaVuSans-111"/>
      <use x="2042.130859" xlink:href="#DejaVuSans-108"/>
      <use x="2069.914062" xlink:href="#DejaVuSans-121"/>
      <use x="2129.09375" xlink:href="#DejaVuSans-97"/>
      <use x="2190.373047" xlink:href="#DejaVuSans-109"/>
     </g>
    </g>
    <g id="line2d_24">
     <path d="M 66.6 70.048563 
L 86.6 70.048563 
" style="fill:none;stroke:#000000;stroke-linecap:square;stroke-width:1.5;"/>
    </g>
    <g id="line2d_25"/>
    <g id="text_23">
     <!-- Valós napi záró árfolyamok -->
     <g transform="translate(94.6 73.548563)scale(0.1 -0.1)">
      <defs>
       <path d="M 9.078125 75.984375 
L 18.109375 75.984375 
L 18.109375 31.109375 
L 44.921875 54.6875 
L 56.390625 54.6875 
L 27.390625 29.109375 
L 57.625 0 
L 45.90625 0 
L 18.109375 26.703125 
L 18.109375 0 
L 9.078125 0 
z
" id="DejaVuSans-107"/>
      </defs>
      <use xlink:href="#DejaVuSans-86"/>
      <use x="60.658203" xlink:href="#DejaVuSans-97"/>
      <use x="121.9375" xlink:href="#DejaVuSans-108"/>
      <use x="149.720703" xlink:href="#DejaVuSans-243"/>
      <use x="210.902344" xlink:href="#DejaVuSans-115"/>
      <use x="263.001953" xlink:href="#DejaVuSans-32"/>
      <use x="294.789062" xlink:href="#DejaVuSans-110"/>
      <use x="358.167969" xlink:href="#DejaVuSans-97"/>
      <use x="419.447266" xlink:href="#DejaVuSans-112"/>
      <use x="482.923828" xlink:href="#DejaVuSans-105"/>
      <use x="510.707031" xlink:href="#DejaVuSans-32"/>
      <use x="542.494141" xlink:href="#DejaVuSans-122"/>
      <use x="594.984375" xlink:href="#DejaVuSans-225"/>
      <use x="656.263672" xlink:href="#DejaVuSans-114"/>
      <use x="695.126953" xlink:href="#DejaVuSans-243"/>
      <use x="756.308594" xlink:href="#DejaVuSans-32"/>
      <use x="788.095703" xlink:href="#DejaVuSans-225"/>
      <use x="849.375" xlink:href="#DejaVuSans-114"/>
      <use x="890.488281" xlink:href="#DejaVuSans-102"/>
      <use x="925.693359" xlink:href="#DejaVuSans-111"/>
      <use x="986.875" xlink:href="#DejaVuSans-108"/>
      <use x="1014.658203" xlink:href="#DejaVuSans-121"/>
      <use x="1073.837891" xlink:href="#DejaVuSans-97"/>
      <use x="1135.117188" xlink:href="#DejaVuSans-109"/>
      <use x="1232.529297" xlink:href="#DejaVuSans-111"/>
      <use x="1293.710938" xlink:href="#DejaVuSans-107"/>
     </g>
    </g>
   </g>
  </g>
 </g>
 <defs>
  <clipPath id="p227ee67c07">
   <rect height="266.112" width="357.12" x="57.6" y="41.472"/>
  </clipPath>
 </defs>
</svg>
