<?xml version="1.0" encoding="utf-8" standalone="no"?>
<!DOCTYPE svg PUBLIC "-//W3C//DTD SVG 1.1//EN"
  "http://www.w3.org/Graphics/SVG/1.1/DTD/svg11.dtd">
<!-- Created with matplotlib (https://matplotlib.org/) -->
<svg height="345.6pt" version="1.1" viewBox="0 0 460.8 345.6" width="460.8pt" xmlns="http://www.w3.org/2000/svg" xmlns:xlink="http://www.w3.org/1999/xlink">
 <metadata>
  <rdf:RDF xmlns:cc="http://creativecommons.org/ns#" xmlns:dc="http://purl.org/dc/elements/1.1/" xmlns:rdf="http://www.w3.org/1999/02/22-rdf-syntax-ns#">
   <cc:Work>
    <dc:type rdf:resource="http://purl.org/dc/dcmitype/StillImage"/>
    <dc:date>2023-10-30T13:42:51.319827</dc:date>
    <dc:format>image/svg+xml</dc:format>
    <dc:creator>
     <cc:Agent>
      <dc:title>Matplotlib v3.3.2, https://matplotlib.org/</dc:title>
     </cc:Agent>
    </dc:creator>
   </cc:Work>
  </rdf:RDF>
 </metadata>
 <defs>
  <style type="text/css">*{stroke-linecap:butt;stroke-linejoin:round;}</style>
 </defs>
 <g id="figure_1">
  <g id="patch_1">
   <path d="M 0 345.6 
L 460.8 345.6 
L 460.8 0 
L 0 0 
z
" style="fill:#ffffff;"/>
  </g>
  <g id="axes_1">
   <g id="patch_2">
    <path d="M 57.6 307.584 
L 414.72 307.584 
L 414.72 41.472 
L 57.6 41.472 
z
" style="fill:#ffffff;"/>
   </g>
   <g id="matplotlib.axis_1">
    <g id="xtick_1">
     <g id="line2d_1">
      <defs>
       <path d="M 0 0 
L 0 3.5 
" id="m394c78d1f3" style="stroke:#000000;stroke-width:0.8;"/>
      </defs>
      <g>
       <use style="stroke:#000000;stroke-width:0.8;" x="73.832727" xlink:href="#m394c78d1f3" y="307.584"/>
      </g>
     </g>
     <g id="text_1">
      <!-- 2023-01 -->
      <g transform="translate(63.575701 342.518253)rotate(-45)scale(0.08 -0.08)">
       <defs>
        <path d="M 19.1875 8.296875 
L 53.609375 8.296875 
L 53.609375 0 
L 7.328125 0 
L 7.328125 8.296875 
Q 12.9375 14.109375 22.625 23.890625 
Q 32.328125 33.6875 34.8125 36.53125 
Q 39.546875 41.84375 41.421875 45.53125 
Q 43.3125 49.21875 43.3125 52.78125 
Q 43.3125 58.59375 39.234375 62.25 
Q 35.15625 65.921875 28.609375 65.921875 
Q 23.96875 65.921875 18.8125 64.3125 
Q 13.671875 62.703125 7.8125 59.421875 
L 7.8125 69.390625 
Q 13.765625 71.78125 18.9375 73 
Q 24.125 74.21875 28.421875 74.21875 
Q 39.75 74.21875 46.484375 68.546875 
Q 53.21875 62.890625 53.21875 53.421875 
Q 53.21875 48.921875 51.53125 44.890625 
Q 49.859375 40.875 45.40625 35.40625 
Q 44.1875 33.984375 37.640625 27.21875 
Q 31.109375 20.453125 19.1875 8.296875 
z
" id="DejaVuSans-50"/>
        <path d="M 31.78125 66.40625 
Q 24.171875 66.40625 20.328125 58.90625 
Q 16.5 51.421875 16.5 36.375 
Q 16.5 21.390625 20.328125 13.890625 
Q 24.171875 6.390625 31.78125 6.390625 
Q 39.453125 6.390625 43.28125 13.890625 
Q 47.125 21.390625 47.125 36.375 
Q 47.125 51.421875 43.28125 58.90625 
Q 39.453125 66.40625 31.78125 66.40625 
z
M 31.78125 74.21875 
Q 44.046875 74.21875 50.515625 64.515625 
Q 56.984375 54.828125 56.984375 36.375 
Q 56.984375 17.96875 50.515625 8.265625 
Q 44.046875 -1.421875 31.78125 -1.421875 
Q 19.53125 -1.421875 13.0625 8.265625 
Q 6.59375 17.96875 6.59375 36.375 
Q 6.59375 54.828125 13.0625 64.515625 
Q 19.53125 74.21875 31.78125 74.21875 
z
" id="DejaVuSans-48"/>
        <path d="M 40.578125 39.3125 
Q 47.65625 37.796875 51.625 33 
Q 55.609375 28.21875 55.609375 21.1875 
Q 55.609375 10.40625 48.1875 4.484375 
Q 40.765625 -1.421875 27.09375 -1.421875 
Q 22.515625 -1.421875 17.65625 -0.515625 
Q 12.796875 0.390625 7.625 2.203125 
L 7.625 11.71875 
Q 11.71875 9.328125 16.59375 8.109375 
Q 21.484375 6.890625 26.8125 6.890625 
Q 36.078125 6.890625 40.9375 10.546875 
Q 45.796875 14.203125 45.796875 21.1875 
Q 45.796875 27.640625 41.28125 31.265625 
Q 36.765625 34.90625 28.71875 34.90625 
L 20.21875 34.90625 
L 20.21875 43.015625 
L 29.109375 43.015625 
Q 36.375 43.015625 40.234375 45.921875 
Q 44.09375 48.828125 44.09375 54.296875 
Q 44.09375 59.90625 40.109375 62.90625 
Q 36.140625 65.921875 28.71875 65.921875 
Q 24.65625 65.921875 20.015625 65.03125 
Q 15.375 64.15625 9.8125 62.3125 
L 9.8125 71.09375 
Q 15.4375 72.65625 20.34375 73.4375 
Q 25.25 74.21875 29.59375 74.21875 
Q 40.828125 74.21875 47.359375 69.109375 
Q 53.90625 64.015625 53.90625 55.328125 
Q 53.90625 49.265625 50.4375 45.09375 
Q 46.96875 40.921875 40.578125 39.3125 
z
" id="DejaVuSans-51"/>
        <path d="M 4.890625 31.390625 
L 31.203125 31.390625 
L 31.203125 23.390625 
L 4.890625 23.390625 
z
" id="DejaVuSans-45"/>
        <path d="M 12.40625 8.296875 
L 28.515625 8.296875 
L 28.515625 63.921875 
L 10.984375 60.40625 
L 10.984375 69.390625 
L 28.421875 72.90625 
L 38.28125 72.90625 
L 38.28125 8.296875 
L 54.390625 8.296875 
L 54.390625 0 
L 12.40625 0 
z
" id="DejaVuSans-49"/>
       </defs>
       <use xlink:href="#DejaVuSans-50"/>
       <use x="63.623047" xlink:href="#DejaVuSans-48"/>
       <use x="127.246094" xlink:href="#DejaVuSans-50"/>
       <use x="190.869141" xlink:href="#DejaVuSans-51"/>
       <use x="254.492188" xlink:href="#DejaVuSans-45"/>
       <use x="290.576172" xlink:href="#DejaVuSans-48"/>
       <use x="354.199219" xlink:href="#DejaVuSans-49"/>
      </g>
     </g>
    </g>
    <g id="xtick_2">
     <g id="line2d_2">
      <g>
       <use style="stroke:#000000;stroke-width:0.8;" x="131.181884" xlink:href="#m394c78d1f3" y="307.584"/>
      </g>
     </g>
     <g id="text_2">
      <!-- 2023-03 -->
      <g transform="translate(120.924858 342.518253)rotate(-45)scale(0.08 -0.08)">
       <use xlink:href="#DejaVuSans-50"/>
       <use x="63.623047" xlink:href="#DejaVuSans-48"/>
       <use x="127.246094" xlink:href="#DejaVuSans-50"/>
       <use x="190.869141" xlink:href="#DejaVuSans-51"/>
       <use x="254.492188" xlink:href="#DejaVuSans-45"/>
       <use x="290.576172" xlink:href="#DejaVuSans-48"/>
       <use x="354.199219" xlink:href="#DejaVuSans-51"/>
      </g>
     </g>
    </g>
    <g id="xtick_3">
     <g id="line2d_3">
      <g>
       <use style="stroke:#000000;stroke-width:0.8;" x="190.475079" xlink:href="#m394c78d1f3" y="307.584"/>
      </g>
     </g>
     <g id="text_3">
      <!-- 2023-05 -->
      <g transform="translate(180.218053 342.518253)rotate(-45)scale(0.08 -0.08)">
       <defs>
        <path d="M 10.796875 72.90625 
L 49.515625 72.90625 
L 49.515625 64.59375 
L 19.828125 64.59375 
L 19.828125 46.734375 
Q 21.96875 47.46875 24.109375 47.828125 
Q 26.265625 48.1875 28.421875 48.1875 
Q 40.625 48.1875 47.75 41.5 
Q 54.890625 34.8125 54.890625 23.390625 
Q 54.890625 11.625 47.5625 5.09375 
Q 40.234375 -1.421875 26.90625 -1.421875 
Q 22.3125 -1.421875 17.546875 -0.640625 
Q 12.796875 0.140625 7.71875 1.703125 
L 7.71875 11.625 
Q 12.109375 9.234375 16.796875 8.0625 
Q 21.484375 6.890625 26.703125 6.890625 
Q 35.15625 6.890625 40.078125 11.328125 
Q 45.015625 15.765625 45.015625 23.390625 
Q 45.015625 31 40.078125 35.4375 
Q 35.15625 39.890625 26.703125 39.890625 
Q 22.75 39.890625 18.8125 39.015625 
Q 14.890625 38.140625 10.796875 36.28125 
z
" id="DejaVuSans-53"/>
       </defs>
       <use xlink:href="#DejaVuSans-50"/>
       <use x="63.623047" xlink:href="#DejaVuSans-48"/>
       <use x="127.246094" xlink:href="#DejaVuSans-50"/>
       <use x="190.869141" xlink:href="#DejaVuSans-51"/>
       <use x="254.492188" xlink:href="#DejaVuSans-45"/>
       <use x="290.576172" xlink:href="#DejaVuSans-48"/>
       <use x="354.199219" xlink:href="#DejaVuSans-53"/>
      </g>
     </g>
    </g>
    <g id="xtick_4">
     <g id="line2d_4">
      <g>
       <use style="stroke:#000000;stroke-width:0.8;" x="249.768274" xlink:href="#m394c78d1f3" y="307.584"/>
      </g>
     </g>
     <g id="text_4">
      <!-- 2023-07 -->
      <g transform="translate(239.511249 342.518253)rotate(-45)scale(0.08 -0.08)">
       <defs>
        <path d="M 8.203125 72.90625 
L 55.078125 72.90625 
L 55.078125 68.703125 
L 28.609375 0 
L 18.3125 0 
L 43.21875 64.59375 
L 8.203125 64.59375 
z
" id="DejaVuSans-55"/>
       </defs>
       <use xlink:href="#DejaVuSans-50"/>
       <use x="63.623047" xlink:href="#DejaVuSans-48"/>
       <use x="127.246094" xlink:href="#DejaVuSans-50"/>
       <use x="190.869141" xlink:href="#DejaVuSans-51"/>
       <use x="254.492188" xlink:href="#DejaVuSans-45"/>
       <use x="290.576172" xlink:href="#DejaVuSans-48"/>
       <use x="354.199219" xlink:href="#DejaVuSans-55"/>
      </g>
     </g>
    </g>
    <g id="xtick_5">
     <g id="line2d_5">
      <g>
       <use style="stroke:#000000;stroke-width:0.8;" x="310.033489" xlink:href="#m394c78d1f3" y="307.584"/>
      </g>
     </g>
     <g id="text_5">
      <!-- 2023-09 -->
      <g transform="translate(299.776464 342.518253)rotate(-45)scale(0.08 -0.08)">
       <defs>
        <path d="M 10.984375 1.515625 
L 10.984375 10.5 
Q 14.703125 8.734375 18.5 7.8125 
Q 22.3125 6.890625 25.984375 6.890625 
Q 35.75 6.890625 40.890625 13.453125 
Q 46.046875 20.015625 46.78125 33.40625 
Q 43.953125 29.203125 39.59375 26.953125 
Q 35.25 24.703125 29.984375 24.703125 
Q 19.046875 24.703125 12.671875 31.3125 
Q 6.296875 37.9375 6.296875 49.421875 
Q 6.296875 60.640625 12.9375 67.421875 
Q 19.578125 74.21875 30.609375 74.21875 
Q 43.265625 74.21875 49.921875 64.515625 
Q 56.59375 54.828125 56.59375 36.375 
Q 56.59375 19.140625 48.40625 8.859375 
Q 40.234375 -1.421875 26.421875 -1.421875 
Q 22.703125 -1.421875 18.890625 -0.6875 
Q 15.09375 0.046875 10.984375 1.515625 
z
M 30.609375 32.421875 
Q 37.25 32.421875 41.125 36.953125 
Q 45.015625 41.5 45.015625 49.421875 
Q 45.015625 57.28125 41.125 61.84375 
Q 37.25 66.40625 30.609375 66.40625 
Q 23.96875 66.40625 20.09375 61.84375 
Q 16.21875 57.28125 16.21875 49.421875 
Q 16.21875 41.5 20.09375 36.953125 
Q 23.96875 32.421875 30.609375 32.421875 
z
" id="DejaVuSans-57"/>
       </defs>
       <use xlink:href="#DejaVuSans-50"/>
       <use x="63.623047" xlink:href="#DejaVuSans-48"/>
       <use x="127.246094" xlink:href="#DejaVuSans-50"/>
       <use x="190.869141" xlink:href="#DejaVuSans-51"/>
       <use x="254.492188" xlink:href="#DejaVuSans-45"/>
       <use x="290.576172" xlink:href="#DejaVuSans-48"/>
       <use x="354.199219" xlink:href="#DejaVuSans-57"/>
      </g>
     </g>
    </g>
    <g id="xtick_6">
     <g id="line2d_6">
      <g>
       <use style="stroke:#000000;stroke-width:0.8;" x="369.326685" xlink:href="#m394c78d1f3" y="307.584"/>
      </g>
     </g>
     <g id="text_6">
      <!-- 2023-11 -->
      <g transform="translate(359.069659 342.518253)rotate(-45)scale(0.08 -0.08)">
       <use xlink:href="#DejaVuSans-50"/>
       <use x="63.623047" xlink:href="#DejaVuSans-48"/>
       <use x="127.246094" xlink:href="#DejaVuSans-50"/>
       <use x="190.869141" xlink:href="#DejaVuSans-51"/>
       <use x="254.492188" xlink:href="#DejaVuSans-45"/>
       <use x="290.576172" xlink:href="#DejaVuSans-49"/>
       <use x="354.199219" xlink:href="#DejaVuSans-49"/>
      </g>
     </g>
    </g>
   </g>
   <g id="matplotlib.axis_2">
    <g id="ytick_1">
     <g id="line2d_7">
      <defs>
       <path d="M 0 0 
L -3.5 0 
" id="m8cf272119a" style="stroke:#000000;stroke-width:0.8;"/>
      </defs>
      <g>
       <use style="stroke:#000000;stroke-width:0.8;" x="57.6" xlink:href="#m8cf272119a" y="305.670458"/>
      </g>
     </g>
     <g id="text_7">
      <!-- 16000 -->
      <g transform="translate(18.7875 309.469677)scale(0.1 -0.1)">
       <defs>
        <path d="M 33.015625 40.375 
Q 26.375 40.375 22.484375 35.828125 
Q 18.609375 31.296875 18.609375 23.390625 
Q 18.609375 15.53125 22.484375 10.953125 
Q 26.375 6.390625 33.015625 6.390625 
Q 39.65625 6.390625 43.53125 10.953125 
Q 47.40625 15.53125 47.40625 23.390625 
Q 47.40625 31.296875 43.53125 35.828125 
Q 39.65625 40.375 33.015625 40.375 
z
M 52.59375 71.296875 
L 52.59375 62.3125 
Q 48.875 64.0625 45.09375 64.984375 
Q 41.3125 65.921875 37.59375 65.921875 
Q 27.828125 65.921875 22.671875 59.328125 
Q 17.53125 52.734375 16.796875 39.40625 
Q 19.671875 43.65625 24.015625 45.921875 
Q 28.375 48.1875 33.59375 48.1875 
Q 44.578125 48.1875 50.953125 41.515625 
Q 57.328125 34.859375 57.328125 23.390625 
Q 57.328125 12.15625 50.6875 5.359375 
Q 44.046875 -1.421875 33.015625 -1.421875 
Q 20.359375 -1.421875 13.671875 8.265625 
Q 6.984375 17.96875 6.984375 36.375 
Q 6.984375 53.65625 15.1875 63.9375 
Q 23.390625 74.21875 37.203125 74.21875 
Q 40.921875 74.21875 44.703125 73.484375 
Q 48.484375 72.75 52.59375 71.296875 
z
" id="DejaVuSans-54"/>
       </defs>
       <use xlink:href="#DejaVuSans-49"/>
       <use x="63.623047" xlink:href="#DejaVuSans-54"/>
       <use x="127.246094" xlink:href="#DejaVuSans-48"/>
       <use x="190.869141" xlink:href="#DejaVuSans-48"/>
       <use x="254.492188" xlink:href="#DejaVuSans-48"/>
      </g>
     </g>
    </g>
    <g id="ytick_2">
     <g id="line2d_8">
      <g>
       <use style="stroke:#000000;stroke-width:0.8;" x="57.6" xlink:href="#m8cf272119a" y="273.090766"/>
      </g>
     </g>
     <g id="text_8">
      <!-- 18000 -->
      <g transform="translate(18.7875 276.889984)scale(0.1 -0.1)">
       <defs>
        <path d="M 31.78125 34.625 
Q 24.75 34.625 20.71875 30.859375 
Q 16.703125 27.09375 16.703125 20.515625 
Q 16.703125 13.921875 20.71875 10.15625 
Q 24.75 6.390625 31.78125 6.390625 
Q 38.8125 6.390625 42.859375 10.171875 
Q 46.921875 13.96875 46.921875 20.515625 
Q 46.921875 27.09375 42.890625 30.859375 
Q 38.875 34.625 31.78125 34.625 
z
M 21.921875 38.8125 
Q 15.578125 40.375 12.03125 44.71875 
Q 8.5 49.078125 8.5 55.328125 
Q 8.5 64.0625 14.71875 69.140625 
Q 20.953125 74.21875 31.78125 74.21875 
Q 42.671875 74.21875 48.875 69.140625 
Q 55.078125 64.0625 55.078125 55.328125 
Q 55.078125 49.078125 51.53125 44.71875 
Q 48 40.375 41.703125 38.8125 
Q 48.828125 37.15625 52.796875 32.3125 
Q 56.78125 27.484375 56.78125 20.515625 
Q 56.78125 9.90625 50.3125 4.234375 
Q 43.84375 -1.421875 31.78125 -1.421875 
Q 19.734375 -1.421875 13.25 4.234375 
Q 6.78125 9.90625 6.78125 20.515625 
Q 6.78125 27.484375 10.78125 32.3125 
Q 14.796875 37.15625 21.921875 38.8125 
z
M 18.3125 54.390625 
Q 18.3125 48.734375 21.84375 45.5625 
Q 25.390625 42.390625 31.78125 42.390625 
Q 38.140625 42.390625 41.71875 45.5625 
Q 45.3125 48.734375 45.3125 54.390625 
Q 45.3125 60.0625 41.71875 63.234375 
Q 38.140625 66.40625 31.78125 66.40625 
Q 25.390625 66.40625 21.84375 63.234375 
Q 18.3125 60.0625 18.3125 54.390625 
z
" id="DejaVuSans-56"/>
       </defs>
       <use xlink:href="#DejaVuSans-49"/>
       <use x="63.623047" xlink:href="#DejaVuSans-56"/>
       <use x="127.246094" xlink:href="#DejaVuSans-48"/>
       <use x="190.869141" xlink:href="#DejaVuSans-48"/>
       <use x="254.492188" xlink:href="#DejaVuSans-48"/>
      </g>
     </g>
    </g>
    <g id="ytick_3">
     <g id="line2d_9">
      <g>
       <use style="stroke:#000000;stroke-width:0.8;" x="57.6" xlink:href="#m8cf272119a" y="240.511073"/>
      </g>
     </g>
     <g id="text_9">
      <!-- 20000 -->
      <g transform="translate(18.7875 244.310292)scale(0.1 -0.1)">
       <use xlink:href="#DejaVuSans-50"/>
       <use x="63.623047" xlink:href="#DejaVuSans-48"/>
       <use x="127.246094" xlink:href="#DejaVuSans-48"/>
       <use x="190.869141" xlink:href="#DejaVuSans-48"/>
       <use x="254.492188" xlink:href="#DejaVuSans-48"/>
      </g>
     </g>
    </g>
    <g id="ytick_4">
     <g id="line2d_10">
      <g>
       <use style="stroke:#000000;stroke-width:0.8;" x="57.6" xlink:href="#m8cf272119a" y="207.93138"/>
      </g>
     </g>
     <g id="text_10">
      <!-- 22000 -->
      <g transform="translate(18.7875 211.730599)scale(0.1 -0.1)">
       <use xlink:href="#DejaVuSans-50"/>
       <use x="63.623047" xlink:href="#DejaVuSans-50"/>
       <use x="127.246094" xlink:href="#DejaVuSans-48"/>
       <use x="190.869141" xlink:href="#DejaVuSans-48"/>
       <use x="254.492188" xlink:href="#DejaVuSans-48"/>
      </g>
     </g>
    </g>
    <g id="ytick_5">
     <g id="line2d_11">
      <g>
       <use style="stroke:#000000;stroke-width:0.8;" x="57.6" xlink:href="#m8cf272119a" y="175.351687"/>
      </g>
     </g>
     <g id="text_11">
      <!-- 24000 -->
      <g transform="translate(18.7875 179.150906)scale(0.1 -0.1)">
       <defs>
        <path d="M 37.796875 64.3125 
L 12.890625 25.390625 
L 37.796875 25.390625 
z
M 35.203125 72.90625 
L 47.609375 72.90625 
L 47.609375 25.390625 
L 58.015625 25.390625 
L 58.015625 17.1875 
L 47.609375 17.1875 
L 47.609375 0 
L 37.796875 0 
L 37.796875 17.1875 
L 4.890625 17.1875 
L 4.890625 26.703125 
z
" id="DejaVuSans-52"/>
       </defs>
       <use xlink:href="#DejaVuSans-50"/>
       <use x="63.623047" xlink:href="#DejaVuSans-52"/>
       <use x="127.246094" xlink:href="#DejaVuSans-48"/>
       <use x="190.869141" xlink:href="#DejaVuSans-48"/>
       <use x="254.492188" xlink:href="#DejaVuSans-48"/>
      </g>
     </g>
    </g>
    <g id="ytick_6">
     <g id="line2d_12">
      <g>
       <use style="stroke:#000000;stroke-width:0.8;" x="57.6" xlink:href="#m8cf272119a" y="142.771994"/>
      </g>
     </g>
     <g id="text_12">
      <!-- 26000 -->
      <g transform="translate(18.7875 146.571213)scale(0.1 -0.1)">
       <use xlink:href="#DejaVuSans-50"/>
       <use x="63.623047" xlink:href="#DejaVuSans-54"/>
       <use x="127.246094" xlink:href="#DejaVuSans-48"/>
       <use x="190.869141" xlink:href="#DejaVuSans-48"/>
       <use x="254.492188" xlink:href="#DejaVuSans-48"/>
      </g>
     </g>
    </g>
    <g id="ytick_7">
     <g id="line2d_13">
      <g>
       <use style="stroke:#000000;stroke-width:0.8;" x="57.6" xlink:href="#m8cf272119a" y="110.192302"/>
      </g>
     </g>
     <g id="text_13">
      <!-- 28000 -->
      <g transform="translate(18.7875 113.99152)scale(0.1 -0.1)">
       <use xlink:href="#DejaVuSans-50"/>
       <use x="63.623047" xlink:href="#DejaVuSans-56"/>
       <use x="127.246094" xlink:href="#DejaVuSans-48"/>
       <use x="190.869141" xlink:href="#DejaVuSans-48"/>
       <use x="254.492188" xlink:href="#DejaVuSans-48"/>
      </g>
     </g>
    </g>
    <g id="ytick_8">
     <g id="line2d_14">
      <g>
       <use style="stroke:#000000;stroke-width:0.8;" x="57.6" xlink:href="#m8cf272119a" y="77.612609"/>
      </g>
     </g>
     <g id="text_14">
      <!-- 30000 -->
      <g transform="translate(18.7875 81.411827)scale(0.1 -0.1)">
       <use xlink:href="#DejaVuSans-51"/>
       <use x="63.623047" xlink:href="#DejaVuSans-48"/>
       <use x="127.246094" xlink:href="#DejaVuSans-48"/>
       <use x="190.869141" xlink:href="#DejaVuSans-48"/>
       <use x="254.492188" xlink:href="#DejaVuSans-48"/>
      </g>
     </g>
    </g>
    <g id="ytick_9">
     <g id="line2d_15">
      <g>
       <use style="stroke:#000000;stroke-width:0.8;" x="57.6" xlink:href="#m8cf272119a" y="45.032916"/>
      </g>
     </g>
     <g id="text_15">
      <!-- 32000 -->
      <g transform="translate(18.7875 48.832135)scale(0.1 -0.1)">
       <use xlink:href="#DejaVuSans-51"/>
       <use x="63.623047" xlink:href="#DejaVuSans-50"/>
       <use x="127.246094" xlink:href="#DejaVuSans-48"/>
       <use x="190.869141" xlink:href="#DejaVuSans-48"/>
       <use x="254.492188" xlink:href="#DejaVuSans-48"/>
      </g>
     </g>
    </g>
    <g id="text_16">
     <!-- Ár ($) -->
     <g transform="translate(12.707813 188.675656)rotate(-90)scale(0.1 -0.1)">
      <defs>
       <path d="M 34.1875 63.1875 
L 20.796875 26.90625 
L 47.609375 26.90625 
z
M 28.609375 72.90625 
L 39.796875 72.90625 
L 67.578125 0 
L 57.328125 0 
L 50.6875 18.703125 
L 17.828125 18.703125 
L 11.1875 0 
L 0.78125 0 
z
M 36.8125 92.515625 
L 45.84375 92.515625 
L 34.71875 79.625 
L 27.234375 79.625 
z
" id="DejaVuSans-193"/>
       <path d="M 41.109375 46.296875 
Q 39.59375 47.171875 37.8125 47.578125 
Q 36.03125 48 33.890625 48 
Q 26.265625 48 22.1875 43.046875 
Q 18.109375 38.09375 18.109375 28.8125 
L 18.109375 0 
L 9.078125 0 
L 9.078125 54.6875 
L 18.109375 54.6875 
L 18.109375 46.1875 
Q 20.953125 51.171875 25.484375 53.578125 
Q 30.03125 56 36.53125 56 
Q 37.453125 56 38.578125 55.875 
Q 39.703125 55.765625 41.0625 55.515625 
z
" id="DejaVuSans-114"/>
       <path id="DejaVuSans-32"/>
       <path d="M 31 75.875 
Q 24.46875 64.65625 21.28125 53.65625 
Q 18.109375 42.671875 18.109375 31.390625 
Q 18.109375 20.125 21.3125 9.0625 
Q 24.515625 -2 31 -13.1875 
L 23.1875 -13.1875 
Q 15.875 -1.703125 12.234375 9.375 
Q 8.59375 20.453125 8.59375 31.390625 
Q 8.59375 42.28125 12.203125 53.3125 
Q 15.828125 64.359375 23.1875 75.875 
z
" id="DejaVuSans-40"/>
       <path d="M 33.796875 -14.703125 
L 28.90625 -14.703125 
L 28.859375 0 
Q 23.734375 0.09375 18.609375 1.1875 
Q 13.484375 2.296875 8.296875 4.5 
L 8.296875 13.28125 
Q 13.28125 10.15625 18.375 8.5625 
Q 23.484375 6.984375 28.90625 6.9375 
L 28.90625 29.203125 
Q 18.109375 30.953125 13.203125 35.15625 
Q 8.296875 39.359375 8.296875 46.6875 
Q 8.296875 54.640625 13.625 59.21875 
Q 18.953125 63.8125 28.90625 64.5 
L 28.90625 75.984375 
L 33.796875 75.984375 
L 33.796875 64.65625 
Q 38.328125 64.453125 42.578125 63.6875 
Q 46.828125 62.9375 50.875 61.625 
L 50.875 53.078125 
Q 46.828125 55.125 42.546875 56.25 
Q 38.28125 57.375 33.796875 57.5625 
L 33.796875 36.71875 
Q 44.875 35.015625 50.09375 30.609375 
Q 55.328125 26.21875 55.328125 18.609375 
Q 55.328125 10.359375 49.78125 5.59375 
Q 44.234375 0.828125 33.796875 0.09375 
z
M 28.90625 37.59375 
L 28.90625 57.625 
Q 23.25 56.984375 20.265625 54.390625 
Q 17.28125 51.8125 17.28125 47.515625 
Q 17.28125 43.3125 20.03125 40.96875 
Q 22.796875 38.625 28.90625 37.59375 
z
M 33.796875 28.21875 
L 33.796875 7.078125 
Q 39.984375 7.90625 43.140625 10.59375 
Q 46.296875 13.28125 46.296875 17.671875 
Q 46.296875 21.96875 43.28125 24.5 
Q 40.28125 27.046875 33.796875 28.21875 
z
" id="DejaVuSans-36"/>
       <path d="M 8.015625 75.875 
L 15.828125 75.875 
Q 23.140625 64.359375 26.78125 53.3125 
Q 30.421875 42.28125 30.421875 31.390625 
Q 30.421875 20.453125 26.78125 9.375 
Q 23.140625 -1.703125 15.828125 -13.1875 
L 8.015625 -13.1875 
Q 14.5 -2 17.703125 9.0625 
Q 20.90625 20.125 20.90625 31.390625 
Q 20.90625 42.671875 17.703125 53.65625 
Q 14.5 64.65625 8.015625 75.875 
z
" id="DejaVuSans-41"/>
      </defs>
      <use xlink:href="#DejaVuSans-193"/>
      <use x="68.408203" xlink:href="#DejaVuSans-114"/>
      <use x="109.521484" xlink:href="#DejaVuSans-32"/>
      <use x="141.308594" xlink:href="#DejaVuSans-40"/>
      <use x="180.322266" xlink:href="#DejaVuSans-36"/>
      <use x="243.945312" xlink:href="#DejaVuSans-41"/>
     </g>
    </g>
   </g>
   <g id="line2d_16">
    <path clip-path="url(#p7e1966d1f8)" d="M 73.832727 295.488 
L 74.804747 294.455376 
L 75.776766 294.595685 
L 76.748786 291.608439 
L 77.720806 292.040152 
L 78.692825 290.163034 
L 79.664845 290.112383 
L 80.636864 287.895882 
L 81.608884 286.178766 
L 82.580904 282.110568 
L 83.552923 274.151292 
L 85.496962 241.984095 
L 86.468982 224.607315 
L 87.441002 226.162995 
L 88.413021 221.457934 
L 89.385041 221.590098 
L 90.35706 229.290932 
L 91.32908 222.807382 
L 92.3011 196.91044 
L 93.273119 195.263988 
L 94.245139 196.195914 
L 95.217158 192.709632 
L 96.189178 197.563402 
L 97.161198 189.721622 
L 98.133217 191.107596 
L 99.105237 190.359058 
L 100.077256 191.135085 
L 101.049276 179.023966 
L 102.021296 194.24565 
L 102.993315 189.372632 
L 103.965335 179.851439 
L 104.937354 183.954826 
L 105.909374 184.322143 
L 106.881394 186.235786 
L 107.853413 192.363727 
L 108.825433 195.549315 
L 109.797452 187.336274 
L 110.769472 192.628724 
L 111.741492 210.879206 
L 112.713511 213.613546 
L 113.685531 210.034806 
L 114.65755 211.381519 
L 115.62957 211.057376 
L 116.60159 204.334506 
L 117.573609 170.336992 
L 118.545629 181.485228 
L 119.517648 166.138125 
L 120.489668 164.905378 
L 121.461688 170.01444 
L 122.433707 161.844986 
L 123.405727 168.243555 
L 125.349766 176.207031 
L 126.321786 188.414076 
L 127.293805 188.784702 
L 128.265825 182.499462 
L 129.237844 183.124044 
L 130.209864 189.241167 
L 131.181884 181.109321 
L 132.153903 183.896252 
L 133.125923 202.023384 
L 134.097942 202.175369 
L 135.069962 200.836929 
L 136.041981 200.930691 
L 137.014001 204.351368 
L 137.986021 212.523812 
L 138.95804 234.597509 
L 139.93006 237.460895 
L 140.902079 230.209209 
L 141.874099 205.260672 
L 142.846119 172.133902 
L 143.818138 163.198253 
L 144.790158 169.227341 
L 145.762177 158.201915 
L 146.734197 119.576398 
L 147.706217 127.037975 
L 148.678236 109.562279 
L 149.650256 113.983986 
L 150.622275 107.328279 
L 151.594295 121.474038 
L 152.566315 104.751938 
L 153.538334 118.446609 
L 154.510354 118.423446 
L 155.482373 110.284664 
L 156.454393 124.203383 
L 157.426413 122.114337 
L 158.398432 104.516245 
L 159.370452 109.645574 
L 160.342471 102.397865 
L 161.314491 103.496602 
L 162.286511 106.945595 
L 163.25853 113.609574 
L 164.23055 107.454144 
L 165.202569 107.292963 
L 167.146609 111.400041 
L 168.118628 111.042714 
L 169.090648 104.766955 
L 170.062667 83.265504 
L 171.034687 73.78354 
L 172.006707 75.347461 
L 172.978726 71.111878 
L 173.950746 69.700643 
L 174.922765 72.424356 
L 175.894785 72.475517 
L 176.866805 86.652742 
L 177.838824 71.136536 
L 178.810844 96.790976 
L 179.782863 106.18519 
L 180.754883 121.971324 
L 181.726903 113.165198 
L 182.698922 116.848581 
L 183.670942 117.924443 
L 184.642961 105.181583 
L 185.614981 103.306564 
L 186.587001 86.184536 
L 187.55902 88.359644 
L 188.53104 89.854619 
L 189.503059 89.523636 
L 190.475079 108.700667 
L 191.447099 99.106457 
L 192.419118 93.799689 
L 193.391138 96.383221 
L 194.363157 85.197409 
L 195.335177 95.456131 
L 196.307197 102.780771 
L 197.279216 115.17254 
L 199.223255 116.35384 
L 200.195275 126.469294 
L 201.167295 129.658827 
L 202.139314 129.999482 
L 203.111334 127.612033 
L 204.083353 123.343203 
L 205.055373 125.885119 
L 206.027392 119.985713 
L 206.999412 129.215438 
L 207.971432 128.271931 
L 208.943451 124.371213 
L 209.915471 130.492282 
L 210.88749 128.904817 
L 211.85951 122.805097 
L 212.83153 137.317855 
L 213.803549 135.014655 
L 214.775569 131.054854 
L 215.747588 128.626649 
L 216.719608 108.797133 
L 217.691628 114.3318 
L 218.663647 115.040981 
L 219.635667 122.90395 
L 220.607686 129.414766 
L 221.579706 122.416368 
L 222.551726 125.25831 
L 223.523745 124.542574 
L 224.495765 146.679967 
L 225.467784 122.592406 
L 226.439804 137.135739 
L 227.411824 134.493221 
L 228.383843 134.946759 
L 229.355863 145.195268 
L 230.327882 143.746649 
L 231.299902 144.360254 
L 232.271922 144.095894 
L 233.243941 157.030891 
L 234.215961 149.672462 
L 235.18798 137.437674 
L 236.16 134.453164 
L 237.13202 137.295138 
L 238.104039 128.908858 
L 239.076059 104.857568 
L 240.048078 77.167947 
L 241.020098 79.041534 
L 241.992118 66.28353 
L 242.964137 68.674446 
L 243.936157 69.789219 
L 244.908176 73.195929 
L 245.880196 66.402522 
L 246.852216 76.207673 
L 247.824235 70.3579 
L 248.796255 69.838248 
L 249.768274 68.000327 
L 250.740294 67.500368 
L 251.712314 58.774388 
L 252.684333 64.945917 
L 253.656353 69.236923 
L 254.628372 79.089481 
L 255.600392 72.037154 
L 256.572412 72.84716 
L 257.544431 74.823227 
L 258.516451 70.860945 
L 259.48847 67.497409 
L 260.46049 71.232748 
L 261.43251 53.568 
L 262.404529 72.170686 
L 263.376549 72.793964 
L 264.348568 73.554273 
L 265.320588 75.236105 
L 266.292608 79.949184 
L 267.264627 79.014776 
L 268.236647 81.000642 
L 269.208666 79.099153 
L 270.180686 81.329907 
L 271.152705 76.23548 
L 272.124725 91.02052 
L 273.096745 90.198297 
L 274.068764 88.120005 
L 275.040784 90.470356 
L 276.012803 88.701985 
L 276.984823 88.088316 
L 277.956843 89.41772 
L 278.928862 90.153977 
L 279.900882 82.894878 
L 280.872901 91.427067 
L 281.844921 90.99179 
L 282.816941 92.695511 
L 283.78896 93.216214 
L 284.76098 93.220636 
L 285.732999 90.960865 
L 286.705019 81.432705 
L 287.677039 84.755802 
L 288.649058 86.904471 
L 289.621078 87.423741 
L 290.593097 87.126452 
L 291.565117 89.293828 
L 292.537137 87.248976 
L 293.509156 91.127518 
L 294.481176 98.760425 
L 295.453195 131.946564 
L 296.425215 141.964724 
L 297.397235 141.204828 
L 298.369254 139.6837 
L 299.341274 140.749763 
L 300.313293 142.256319 
L 301.285313 135.740635 
L 302.257333 140.126962 
L 303.229352 141.99549 
L 304.201372 142.634135 
L 305.173391 141.310903 
L 306.145411 141.042821 
L 307.117431 114.633035 
L 308.08945 121.639737 
L 309.06147 143.888294 
L 310.033489 146.01816 
L 311.005509 144.909241 
L 311.977529 143.267753 
L 312.949548 145.827709 
L 314.893587 146.791737 
L 315.865607 138.85925 
L 316.837627 144.308871 
L 317.809646 144.471388 
L 318.781666 145.504998 
L 319.753685 156.412227 
L 320.725705 145.486799 
L 321.697725 139.052628 
L 322.669744 133.980791 
L 323.641764 132.856473 
L 325.585803 134.070162 
L 326.557823 130.484869 
L 327.529842 123.043081 
L 328.501862 124.331761 
L 329.473881 133.525343 
L 330.445901 133.330915 
L 331.417921 133.33381 
L 332.38994 138.588335 
L 333.36196 137.909793 
L 334.333979 139.233025 
L 335.305999 137.026292 
L 336.278019 126.131153 
L 337.250038 127.920204 
L 338.222058 127.004791 
L 339.194077 110.457012 
L 340.166097 117.835739 
L 341.138116 119.477864 
L 342.110136 113.460134 
L 343.082156 119.707004 
L 344.054175 111.062218 
L 345.026195 110.699896 
L 345.998214 111.249678 
L 346.970234 116.974127 
L 347.942254 120.1125 
L 348.914273 128.545741 
L 349.886293 130.071991 
L 350.858312 71.849757 
L 351.830332 71.592111 
L 352.802352 71.182637 
L 353.774371 70.594517 
L 354.746391 69.805477 
L 355.71841 68.794648 
L 356.69043 67.524644 
L 358.634469 64.186594 
L 359.606489 62.352554 
L 360.578508 83.399386 
L 361.550528 83.368683 
L 362.522548 83.196081 
L 363.494567 82.845563 
L 364.466587 82.28509 
L 365.438606 81.484692 
L 366.410626 80.398109 
L 367.382646 78.977265 
L 369.326685 75.483729 
L 370.298704 75.747549 
L 372.242744 75.738735 
L 373.214763 75.557193 
L 374.186783 75.210779 
L 375.158802 74.663415 
L 376.130822 73.864671 
L 377.102842 72.757471 
L 378.074861 71.373884 
L 379.046881 69.796887 
L 380.0189 95.846069 
L 381.96294 95.642701 
L 382.934959 95.378595 
L 383.906979 94.974181 
L 384.878998 94.404322 
L 385.851018 93.626673 
L 386.823038 92.5944 
L 388.767077 90.025917 
L 389.739096 96.008745 
L 391.683136 96.087967 
L 392.655155 96.01024 
L 393.627175 95.818103 
L 394.599194 95.484416 
L 395.571214 94.969345 
L 396.543234 94.224275 
L 398.487273 92.210188 
L 398.487273 92.210188 
" style="fill:none;stroke:#008000;stroke-linecap:square;stroke-width:1.5;"/>
   </g>
   <g id="line2d_17">
    <path clip-path="url(#p7e1966d1f8)" d="M 73.832727 295.488 
L 74.804747 294.455376 
L 75.776766 294.595685 
L 76.748786 291.608439 
L 77.720806 292.040152 
L 78.692825 290.163034 
L 79.664845 290.112383 
L 80.636864 287.895882 
L 81.608884 286.178766 
L 82.580904 282.110568 
L 83.552923 274.151292 
L 85.496962 241.984095 
L 86.468982 224.607315 
L 87.441002 226.162995 
L 88.413021 221.457934 
L 89.385041 221.590098 
L 90.35706 229.290932 
L 91.32908 222.807382 
L 92.3011 196.91044 
L 93.273119 195.263988 
L 94.245139 196.195914 
L 95.217158 192.709632 
L 96.189178 197.563402 
L 97.161198 189.721622 
L 98.133217 191.107596 
L 99.105237 190.359058 
L 100.077256 191.135085 
L 101.049276 179.023966 
L 102.021296 194.24565 
L 102.993315 189.372632 
L 103.965335 179.851439 
L 104.937354 183.954826 
L 105.909374 184.322143 
L 106.881394 186.235786 
L 107.853413 192.363727 
L 108.825433 195.549315 
L 109.797452 187.336274 
L 110.769472 192.628724 
L 111.741492 210.879206 
L 112.713511 213.613546 
L 113.685531 210.034806 
L 114.65755 211.381519 
L 115.62957 211.057376 
L 116.60159 204.334506 
L 117.573609 170.336992 
L 118.545629 181.485228 
L 119.517648 166.138125 
L 120.489668 164.905378 
L 121.461688 170.01444 
L 122.433707 161.844986 
L 123.405727 168.243555 
L 125.349766 176.207031 
L 126.321786 188.414076 
L 127.293805 188.784702 
L 128.265825 182.499462 
L 129.237844 183.124044 
L 130.209864 189.241167 
L 131.181884 181.109321 
L 132.153903 183.896252 
L 133.125923 202.023384 
L 134.097942 202.175369 
L 135.069962 200.836929 
L 136.041981 200.930691 
L 137.014001 204.351368 
L 137.986021 212.523812 
L 138.95804 234.597509 
L 139.93006 237.460895 
L 140.902079 230.209209 
L 141.874099 205.260672 
L 142.846119 172.133902 
L 143.818138 163.198253 
L 144.790158 169.227341 
L 145.762177 158.201915 
L 146.734197 119.576398 
L 147.706217 127.037975 
L 148.678236 109.562279 
L 149.650256 113.983986 
L 150.622275 107.328279 
L 151.594295 121.474038 
L 152.566315 104.751938 
L 153.538334 118.446609 
L 154.510354 118.423446 
L 155.482373 110.284664 
L 156.454393 124.203383 
L 157.426413 122.114337 
L 158.398432 104.516245 
L 159.370452 109.645574 
L 160.342471 102.397865 
L 161.314491 103.496602 
L 162.286511 106.945595 
L 163.25853 113.609574 
L 164.23055 107.454144 
L 165.202569 107.292963 
L 167.146609 111.400041 
L 168.118628 111.042714 
L 169.090648 104.766955 
L 170.062667 83.265504 
L 171.034687 73.78354 
L 172.006707 75.347461 
L 172.978726 71.111878 
L 173.950746 69.700643 
L 174.922765 72.424356 
L 175.894785 72.475517 
L 176.866805 86.652742 
L 177.838824 71.136536 
L 178.810844 96.790976 
L 179.782863 106.18519 
L 180.754883 121.971324 
L 181.726903 113.165198 
L 182.698922 116.848581 
L 183.670942 117.924443 
L 184.642961 105.181583 
L 185.614981 103.306564 
L 186.587001 86.184536 
L 187.55902 88.359644 
L 188.53104 89.854619 
L 189.503059 89.523636 
L 190.475079 108.700667 
L 191.447099 99.106457 
L 192.419118 93.799689 
L 193.391138 96.383221 
L 194.363157 85.197409 
L 195.335177 95.456131 
L 196.307197 102.780771 
L 197.279216 115.17254 
L 199.223255 116.35384 
L 200.195275 126.469294 
L 201.167295 129.658827 
L 202.139314 129.999482 
L 203.111334 127.612033 
L 204.083353 123.343203 
L 205.055373 125.885119 
L 206.027392 119.985713 
L 206.999412 129.215438 
L 207.971432 128.271931 
L 208.943451 124.371213 
L 209.915471 130.492282 
L 210.88749 128.904817 
L 211.85951 122.805097 
L 212.83153 137.317855 
L 213.803549 135.014655 
L 214.775569 131.054854 
L 215.747588 128.626649 
L 216.719608 108.797133 
L 217.691628 114.3318 
L 218.663647 115.040981 
L 219.635667 122.90395 
L 220.607686 129.414766 
L 221.579706 122.416368 
L 222.551726 125.25831 
L 223.523745 124.542574 
L 224.495765 146.679967 
L 225.467784 122.592406 
L 226.439804 137.135739 
L 227.411824 134.493221 
L 228.383843 134.946759 
L 229.355863 145.195268 
L 230.327882 143.746649 
L 231.299902 144.360254 
L 232.271922 144.095894 
L 233.243941 157.030891 
L 234.215961 149.672462 
L 235.18798 137.437674 
L 236.16 134.453164 
L 237.13202 137.295138 
L 238.104039 128.908858 
L 239.076059 104.857568 
L 240.048078 77.167947 
L 241.020098 79.041534 
L 241.992118 66.28353 
L 242.964137 68.674446 
L 243.936157 69.789219 
L 244.908176 73.195929 
L 245.880196 66.402522 
L 246.852216 76.207673 
L 247.824235 70.3579 
L 248.796255 69.838248 
L 249.768274 68.000327 
L 250.740294 67.500368 
L 251.712314 58.774388 
L 252.684333 64.945917 
L 253.656353 69.236923 
L 254.628372 79.089481 
L 255.600392 72.037154 
L 256.572412 72.84716 
L 257.544431 74.823227 
L 258.516451 70.860945 
L 259.48847 67.497409 
L 260.46049 71.232748 
L 261.43251 53.568 
L 262.404529 72.170686 
L 263.376549 72.793964 
L 264.348568 73.554273 
L 265.320588 75.236105 
L 266.292608 79.949184 
L 267.264627 79.014776 
L 268.236647 81.000642 
L 269.208666 79.099153 
L 270.180686 81.329907 
L 271.152705 76.23548 
L 272.124725 91.02052 
L 273.096745 90.198297 
L 274.068764 88.120005 
L 275.040784 90.470356 
L 276.012803 88.701985 
L 276.984823 88.088316 
L 277.956843 89.41772 
L 278.928862 90.153977 
L 279.900882 82.894878 
L 280.872901 91.427067 
L 281.844921 90.99179 
L 282.816941 92.695511 
L 283.78896 93.216214 
L 284.76098 93.220636 
L 285.732999 90.960865 
L 286.705019 81.432705 
L 287.677039 84.755802 
L 288.649058 86.904471 
L 289.621078 87.423741 
L 290.593097 87.126452 
L 291.565117 89.293828 
L 292.537137 87.248976 
L 293.509156 91.127518 
L 294.481176 98.760425 
L 295.453195 131.946564 
L 296.425215 141.964724 
L 297.397235 141.204828 
L 298.369254 139.6837 
L 299.341274 140.749763 
L 300.313293 142.256319 
L 301.285313 135.740635 
L 302.257333 140.126962 
L 303.229352 141.99549 
L 304.201372 142.634135 
L 305.173391 141.310903 
L 306.145411 141.042821 
L 307.117431 114.633035 
L 308.08945 121.639737 
L 309.06147 143.888294 
L 310.033489 146.01816 
L 311.005509 144.909241 
L 311.977529 143.267753 
L 312.949548 145.827709 
L 314.893587 146.791737 
L 315.865607 138.85925 
L 316.837627 144.308871 
L 317.809646 144.471388 
L 318.781666 145.504998 
L 319.753685 156.412227 
L 320.725705 145.486799 
L 321.697725 139.052628 
L 322.669744 133.980791 
L 323.641764 132.856473 
L 325.585803 134.070162 
L 326.557823 130.484869 
L 327.529842 123.043081 
L 328.501862 124.331761 
L 329.473881 133.525343 
L 330.445901 133.330915 
L 331.417921 133.33381 
L 332.38994 138.588335 
L 333.36196 137.909793 
L 334.333979 139.233025 
L 335.305999 137.026292 
L 336.278019 126.131153 
L 337.250038 127.920204 
L 338.222058 127.004791 
L 339.194077 110.457012 
L 340.166097 117.835739 
L 341.138116 119.477864 
L 342.110136 113.460134 
L 343.082156 119.707004 
L 344.054175 111.062218 
L 345.026195 110.699896 
L 345.998214 111.249678 
L 346.970234 116.974127 
L 347.942254 120.1125 
L 348.914273 128.545741 
L 349.886293 130.071991 
L 349.886293 130.071991 
" style="fill:none;stroke:#000000;stroke-linecap:square;stroke-width:1.5;"/>
   </g>
   <g id="patch_3">
    <path d="M 57.6 307.584 
L 57.6 41.472 
" style="fill:none;stroke:#000000;stroke-linecap:square;stroke-linejoin:miter;stroke-width:0.8;"/>
   </g>
   <g id="patch_4">
    <path d="M 414.72 307.584 
L 414.72 41.472 
" style="fill:none;stroke:#000000;stroke-linecap:square;stroke-linejoin:miter;stroke-width:0.8;"/>
   </g>
   <g id="patch_5">
    <path d="M 57.6 307.584 
L 414.72 307.584 
" style="fill:none;stroke:#000000;stroke-linecap:square;stroke-linejoin:miter;stroke-width:0.8;"/>
   </g>
   <g id="patch_6">
    <path d="M 57.6 41.472 
L 414.72 41.472 
" style="fill:none;stroke:#000000;stroke-linecap:square;stroke-linejoin:miter;stroke-width:0.8;"/>
   </g>
   <g id="text_17">
    <!-- BTC záró árfolyam előrejelzés LSTM modellel -->
    <g transform="translate(101.76375 35.472)scale(0.12 -0.12)">
     <defs>
      <path d="M 19.671875 34.8125 
L 19.671875 8.109375 
L 35.5 8.109375 
Q 43.453125 8.109375 47.28125 11.40625 
Q 51.125 14.703125 51.125 21.484375 
Q 51.125 28.328125 47.28125 31.5625 
Q 43.453125 34.8125 35.5 34.8125 
z
M 19.671875 64.796875 
L 19.671875 42.828125 
L 34.28125 42.828125 
Q 41.5 42.828125 45.03125 45.53125 
Q 48.578125 48.25 48.578125 53.8125 
Q 48.578125 59.328125 45.03125 62.0625 
Q 41.5 64.796875 34.28125 64.796875 
z
M 9.8125 72.90625 
L 35.015625 72.90625 
Q 46.296875 72.90625 52.390625 68.21875 
Q 58.5 63.53125 58.5 54.890625 
Q 58.5 48.1875 55.375 44.234375 
Q 52.25 40.28125 46.1875 39.3125 
Q 53.46875 37.75 57.5 32.78125 
Q 61.53125 27.828125 61.53125 20.40625 
Q 61.53125 10.640625 54.890625 5.3125 
Q 48.25 0 35.984375 0 
L 9.8125 0 
z
" id="DejaVuSans-66"/>
      <path d="M -0.296875 72.90625 
L 61.375 72.90625 
L 61.375 64.59375 
L 35.5 64.59375 
L 35.5 0 
L 25.59375 0 
L 25.59375 64.59375 
L -0.296875 64.59375 
z
" id="DejaVuSans-84"/>
      <path d="M 64.40625 67.28125 
L 64.40625 56.890625 
Q 59.421875 61.53125 53.78125 63.8125 
Q 48.140625 66.109375 41.796875 66.109375 
Q 29.296875 66.109375 22.65625 58.46875 
Q 16.015625 50.828125 16.015625 36.375 
Q 16.015625 21.96875 22.65625 14.328125 
Q 29.296875 6.6875 41.796875 6.6875 
Q 48.140625 6.6875 53.78125 8.984375 
Q 59.421875 11.28125 64.40625 15.921875 
L 64.40625 5.609375 
Q 59.234375 2.09375 53.4375 0.328125 
Q 47.65625 -1.421875 41.21875 -1.421875 
Q 24.65625 -1.421875 15.125 8.703125 
Q 5.609375 18.84375 5.609375 36.375 
Q 5.609375 53.953125 15.125 64.078125 
Q 24.65625 74.21875 41.21875 74.21875 
Q 47.75 74.21875 53.53125 72.484375 
Q 59.328125 70.75 64.40625 67.28125 
z
" id="DejaVuSans-67"/>
      <path d="M 5.515625 54.6875 
L 48.1875 54.6875 
L 48.1875 46.484375 
L 14.40625 7.171875 
L 48.1875 7.171875 
L 48.1875 0 
L 4.296875 0 
L 4.296875 8.203125 
L 38.09375 47.515625 
L 5.515625 47.515625 
z
" id="DejaVuSans-122"/>
      <path d="M 34.28125 27.484375 
Q 23.390625 27.484375 19.1875 25 
Q 14.984375 22.515625 14.984375 16.5 
Q 14.984375 11.71875 18.140625 8.90625 
Q 21.296875 6.109375 26.703125 6.109375 
Q 34.1875 6.109375 38.703125 11.40625 
Q 43.21875 16.703125 43.21875 25.484375 
L 43.21875 27.484375 
z
M 52.203125 31.203125 
L 52.203125 0 
L 43.21875 0 
L 43.21875 8.296875 
Q 40.140625 3.328125 35.546875 0.953125 
Q 30.953125 -1.421875 24.3125 -1.421875 
Q 15.921875 -1.421875 10.953125 3.296875 
Q 6 8.015625 6 15.921875 
Q 6 25.140625 12.171875 29.828125 
Q 18.359375 34.515625 30.609375 34.515625 
L 43.21875 34.515625 
L 43.21875 35.40625 
Q 43.21875 41.609375 39.140625 45 
Q 35.0625 48.390625 27.6875 48.390625 
Q 23 48.390625 18.546875 47.265625 
Q 14.109375 46.140625 10.015625 43.890625 
L 10.015625 52.203125 
Q 14.9375 54.109375 19.578125 55.046875 
Q 24.21875 56 28.609375 56 
Q 40.484375 56 46.34375 49.84375 
Q 52.203125 43.703125 52.203125 31.203125 
z
M 35.78125 79.984375 
L 45.5 79.984375 
L 29.59375 61.625 
L 22.109375 61.625 
z
" id="DejaVuSans-225"/>
      <path d="M 30.609375 48.390625 
Q 23.390625 48.390625 19.1875 42.75 
Q 14.984375 37.109375 14.984375 27.296875 
Q 14.984375 17.484375 19.15625 11.84375 
Q 23.34375 6.203125 30.609375 6.203125 
Q 37.796875 6.203125 41.984375 11.859375 
Q 46.1875 17.53125 46.1875 27.296875 
Q 46.1875 37.015625 41.984375 42.703125 
Q 37.796875 48.390625 30.609375 48.390625 
z
M 30.609375 56 
Q 42.328125 56 49.015625 48.375 
Q 55.71875 40.765625 55.71875 27.296875 
Q 55.71875 13.875 49.015625 6.21875 
Q 42.328125 -1.421875 30.609375 -1.421875 
Q 18.84375 -1.421875 12.171875 6.21875 
Q 5.515625 13.875 5.515625 27.296875 
Q 5.515625 40.765625 12.171875 48.375 
Q 18.84375 56 30.609375 56 
z
M 37.40625 79.984375 
L 47.125 79.984375 
L 31.21875 61.625 
L 23.734375 61.625 
z
" id="DejaVuSans-243"/>
      <path d="M 37.109375 75.984375 
L 37.109375 68.5 
L 28.515625 68.5 
Q 23.6875 68.5 21.796875 66.546875 
Q 19.921875 64.59375 19.921875 59.515625 
L 19.921875 54.6875 
L 34.71875 54.6875 
L 34.71875 47.703125 
L 19.921875 47.703125 
L 19.921875 0 
L 10.890625 0 
L 10.890625 47.703125 
L 2.296875 47.703125 
L 2.296875 54.6875 
L 10.890625 54.6875 
L 10.890625 58.5 
Q 10.890625 67.625 15.140625 71.796875 
Q 19.390625 75.984375 28.609375 75.984375 
z
" id="DejaVuSans-102"/>
      <path d="M 30.609375 48.390625 
Q 23.390625 48.390625 19.1875 42.75 
Q 14.984375 37.109375 14.984375 27.296875 
Q 14.984375 17.484375 19.15625 11.84375 
Q 23.34375 6.203125 30.609375 6.203125 
Q 37.796875 6.203125 41.984375 11.859375 
Q 46.1875 17.53125 46.1875 27.296875 
Q 46.1875 37.015625 41.984375 42.703125 
Q 37.796875 48.390625 30.609375 48.390625 
z
M 30.609375 56 
Q 42.328125 56 49.015625 48.375 
Q 55.71875 40.765625 55.71875 27.296875 
Q 55.71875 13.875 49.015625 6.21875 
Q 42.328125 -1.421875 30.609375 -1.421875 
Q 18.84375 -1.421875 12.171875 6.21875 
Q 5.515625 13.875 5.515625 27.296875 
Q 5.515625 40.765625 12.171875 48.375 
Q 18.84375 56 30.609375 56 
z
" id="DejaVuSans-111"/>
      <path d="M 9.421875 75.984375 
L 18.40625 75.984375 
L 18.40625 0 
L 9.421875 0 
z
" id="DejaVuSans-108"/>
      <path d="M 32.171875 -5.078125 
Q 28.375 -14.84375 24.75 -17.8125 
Q 21.140625 -20.796875 15.09375 -20.796875 
L 7.90625 -20.796875 
L 7.90625 -13.28125 
L 13.1875 -13.28125 
Q 16.890625 -13.28125 18.9375 -11.515625 
Q 21 -9.765625 23.484375 -3.21875 
L 25.09375 0.875 
L 2.984375 54.6875 
L 12.5 54.6875 
L 29.59375 11.921875 
L 46.6875 54.6875 
L 56.203125 54.6875 
z
" id="DejaVuSans-121"/>
      <path d="M 34.28125 27.484375 
Q 23.390625 27.484375 19.1875 25 
Q 14.984375 22.515625 14.984375 16.5 
Q 14.984375 11.71875 18.140625 8.90625 
Q 21.296875 6.109375 26.703125 6.109375 
Q 34.1875 6.109375 38.703125 11.40625 
Q 43.21875 16.703125 43.21875 25.484375 
L 43.21875 27.484375 
z
M 52.203125 31.203125 
L 52.203125 0 
L 43.21875 0 
L 43.21875 8.296875 
Q 40.140625 3.328125 35.546875 0.953125 
Q 30.953125 -1.421875 24.3125 -1.421875 
Q 15.921875 -1.421875 10.953125 3.296875 
Q 6 8.015625 6 15.921875 
Q 6 25.140625 12.171875 29.828125 
Q 18.359375 34.515625 30.609375 34.515625 
L 43.21875 34.515625 
L 43.21875 35.40625 
Q 43.21875 41.609375 39.140625 45 
Q 35.0625 48.390625 27.6875 48.390625 
Q 23 48.390625 18.546875 47.265625 
Q 14.109375 46.140625 10.015625 43.890625 
L 10.015625 52.203125 
Q 14.9375 54.109375 19.578125 55.046875 
Q 24.21875 56 28.609375 56 
Q 40.484375 56 46.34375 49.84375 
Q 52.203125 43.703125 52.203125 31.203125 
z
" id="DejaVuSans-97"/>
      <path d="M 52 44.1875 
Q 55.375 50.25 60.0625 53.125 
Q 64.75 56 71.09375 56 
Q 79.640625 56 84.28125 50.015625 
Q 88.921875 44.046875 88.921875 33.015625 
L 88.921875 0 
L 79.890625 0 
L 79.890625 32.71875 
Q 79.890625 40.578125 77.09375 44.375 
Q 74.3125 48.1875 68.609375 48.1875 
Q 61.625 48.1875 57.5625 43.546875 
Q 53.515625 38.921875 53.515625 30.90625 
L 53.515625 0 
L 44.484375 0 
L 44.484375 32.71875 
Q 44.484375 40.625 41.703125 44.40625 
Q 38.921875 48.1875 33.109375 48.1875 
Q 26.21875 48.1875 22.15625 43.53125 
Q 18.109375 38.875 18.109375 30.90625 
L 18.109375 0 
L 9.078125 0 
L 9.078125 54.6875 
L 18.109375 54.6875 
L 18.109375 46.1875 
Q 21.1875 51.21875 25.484375 53.609375 
Q 29.78125 56 35.6875 56 
Q 41.65625 56 45.828125 52.96875 
Q 50 49.953125 52 44.1875 
z
" id="DejaVuSans-109"/>
      <path d="M 56.203125 29.59375 
L 56.203125 25.203125 
L 14.890625 25.203125 
Q 15.484375 15.921875 20.484375 11.0625 
Q 25.484375 6.203125 34.421875 6.203125 
Q 39.59375 6.203125 44.453125 7.46875 
Q 49.3125 8.734375 54.109375 11.28125 
L 54.109375 2.78125 
Q 49.265625 0.734375 44.1875 -0.34375 
Q 39.109375 -1.421875 33.890625 -1.421875 
Q 20.796875 -1.421875 13.15625 6.1875 
Q 5.515625 13.8125 5.515625 26.8125 
Q 5.515625 40.234375 12.765625 48.109375 
Q 20.015625 56 32.328125 56 
Q 43.359375 56 49.78125 48.890625 
Q 56.203125 41.796875 56.203125 29.59375 
z
M 47.21875 32.234375 
Q 47.125 39.59375 43.09375 43.984375 
Q 39.0625 48.390625 32.421875 48.390625 
Q 24.90625 48.390625 20.390625 44.140625 
Q 15.875 39.890625 15.1875 32.171875 
z
" id="DejaVuSans-101"/>
      <path d="M 45.1875 79.984375 
L 53.875 79.984375 
L 41.765625 61.625 
L 35.171875 61.625 
z
M 28.875 79.984375 
L 37.171875 79.984375 
L 26.28125 61.625 
L 19.59375 61.625 
z
M 30.609375 48.390625 
Q 23.390625 48.390625 19.1875 42.75 
Q 14.984375 37.109375 14.984375 27.296875 
Q 14.984375 17.484375 19.15625 11.84375 
Q 23.34375 6.203125 30.609375 6.203125 
Q 37.796875 6.203125 41.984375 11.859375 
Q 46.1875 17.53125 46.1875 27.296875 
Q 46.1875 37.015625 41.984375 42.703125 
Q 37.796875 48.390625 30.609375 48.390625 
z
M 30.609375 56 
Q 42.328125 56 49.015625 48.375 
Q 55.71875 40.765625 55.71875 27.296875 
Q 55.71875 13.875 49.015625 6.21875 
Q 42.328125 -1.421875 30.609375 -1.421875 
Q 18.84375 -1.421875 12.171875 6.21875 
Q 5.515625 13.875 5.515625 27.296875 
Q 5.515625 40.765625 12.171875 48.375 
Q 18.84375 56 30.609375 56 
z
" id="DejaVuSans-337"/>
      <path d="M 9.421875 54.6875 
L 18.40625 54.6875 
L 18.40625 -0.984375 
Q 18.40625 -11.421875 14.421875 -16.109375 
Q 10.453125 -20.796875 1.609375 -20.796875 
L -1.8125 -20.796875 
L -1.8125 -13.1875 
L 0.59375 -13.1875 
Q 5.71875 -13.1875 7.5625 -10.8125 
Q 9.421875 -8.453125 9.421875 -0.984375 
z
M 9.421875 75.984375 
L 18.40625 75.984375 
L 18.40625 64.59375 
L 9.421875 64.59375 
z
" id="DejaVuSans-106"/>
      <path d="M 56.203125 29.59375 
L 56.203125 25.203125 
L 14.890625 25.203125 
Q 15.484375 15.921875 20.484375 11.0625 
Q 25.484375 6.203125 34.421875 6.203125 
Q 39.59375 6.203125 44.453125 7.46875 
Q 49.3125 8.734375 54.109375 11.28125 
L 54.109375 2.78125 
Q 49.265625 0.734375 44.1875 -0.34375 
Q 39.109375 -1.421875 33.890625 -1.421875 
Q 20.796875 -1.421875 13.15625 6.1875 
Q 5.515625 13.8125 5.515625 26.8125 
Q 5.515625 40.234375 12.765625 48.109375 
Q 20.015625 56 32.328125 56 
Q 43.359375 56 49.78125 48.890625 
Q 56.203125 41.796875 56.203125 29.59375 
z
M 47.21875 32.234375 
Q 47.125 39.59375 43.09375 43.984375 
Q 39.0625 48.390625 32.421875 48.390625 
Q 24.90625 48.390625 20.390625 44.140625 
Q 15.875 39.890625 15.1875 32.171875 
z
M 38.53125 79.984375 
L 48.25 79.984375 
L 32.34375 61.625 
L 24.859375 61.625 
z
" id="DejaVuSans-233"/>
      <path d="M 44.28125 53.078125 
L 44.28125 44.578125 
Q 40.484375 46.53125 36.375 47.5 
Q 32.28125 48.484375 27.875 48.484375 
Q 21.1875 48.484375 17.84375 46.4375 
Q 14.5 44.390625 14.5 40.28125 
Q 14.5 37.15625 16.890625 35.375 
Q 19.28125 33.59375 26.515625 31.984375 
L 29.59375 31.296875 
Q 39.15625 29.25 43.1875 25.515625 
Q 47.21875 21.78125 47.21875 15.09375 
Q 47.21875 7.46875 41.1875 3.015625 
Q 35.15625 -1.421875 24.609375 -1.421875 
Q 20.21875 -1.421875 15.453125 -0.5625 
Q 10.6875 0.296875 5.421875 2 
L 5.421875 11.28125 
Q 10.40625 8.6875 15.234375 7.390625 
Q 20.0625 6.109375 24.8125 6.109375 
Q 31.15625 6.109375 34.5625 8.28125 
Q 37.984375 10.453125 37.984375 14.40625 
Q 37.984375 18.0625 35.515625 20.015625 
Q 33.0625 21.96875 24.703125 23.78125 
L 21.578125 24.515625 
Q 13.234375 26.265625 9.515625 29.90625 
Q 5.8125 33.546875 5.8125 39.890625 
Q 5.8125 47.609375 11.28125 51.796875 
Q 16.75 56 26.8125 56 
Q 31.78125 56 36.171875 55.265625 
Q 40.578125 54.546875 44.28125 53.078125 
z
" id="DejaVuSans-115"/>
      <path d="M 9.8125 72.90625 
L 19.671875 72.90625 
L 19.671875 8.296875 
L 55.171875 8.296875 
L 55.171875 0 
L 9.8125 0 
z
" id="DejaVuSans-76"/>
      <path d="M 53.515625 70.515625 
L 53.515625 60.890625 
Q 47.90625 63.578125 42.921875 64.890625 
Q 37.9375 66.21875 33.296875 66.21875 
Q 25.25 66.21875 20.875 63.09375 
Q 16.5 59.96875 16.5 54.203125 
Q 16.5 49.359375 19.40625 46.890625 
Q 22.3125 44.4375 30.421875 42.921875 
L 36.375 41.703125 
Q 47.40625 39.59375 52.65625 34.296875 
Q 57.90625 29 57.90625 20.125 
Q 57.90625 9.515625 50.796875 4.046875 
Q 43.703125 -1.421875 29.984375 -1.421875 
Q 24.8125 -1.421875 18.96875 -0.25 
Q 13.140625 0.921875 6.890625 3.21875 
L 6.890625 13.375 
Q 12.890625 10.015625 18.65625 8.296875 
Q 24.421875 6.59375 29.984375 6.59375 
Q 38.421875 6.59375 43.015625 9.90625 
Q 47.609375 13.234375 47.609375 19.390625 
Q 47.609375 24.75 44.3125 27.78125 
Q 41.015625 30.8125 33.5 32.328125 
L 27.484375 33.5 
Q 16.453125 35.6875 11.515625 40.375 
Q 6.59375 45.0625 6.59375 53.421875 
Q 6.59375 63.09375 13.40625 68.65625 
Q 20.21875 74.21875 32.171875 74.21875 
Q 37.3125 74.21875 42.625 73.28125 
Q 47.953125 72.359375 53.515625 70.515625 
z
" id="DejaVuSans-83"/>
      <path d="M 9.8125 72.90625 
L 24.515625 72.90625 
L 43.109375 23.296875 
L 61.8125 72.90625 
L 76.515625 72.90625 
L 76.515625 0 
L 66.890625 0 
L 66.890625 64.015625 
L 48.09375 14.015625 
L 38.1875 14.015625 
L 19.390625 64.015625 
L 19.390625 0 
L 9.8125 0 
z
" id="DejaVuSans-77"/>
      <path d="M 45.40625 46.390625 
L 45.40625 75.984375 
L 54.390625 75.984375 
L 54.390625 0 
L 45.40625 0 
L 45.40625 8.203125 
Q 42.578125 3.328125 38.25 0.953125 
Q 33.9375 -1.421875 27.875 -1.421875 
Q 17.96875 -1.421875 11.734375 6.484375 
Q 5.515625 14.40625 5.515625 27.296875 
Q 5.515625 40.1875 11.734375 48.09375 
Q 17.96875 56 27.875 56 
Q 33.9375 56 38.25 53.625 
Q 42.578125 51.265625 45.40625 46.390625 
z
M 14.796875 27.296875 
Q 14.796875 17.390625 18.875 11.75 
Q 22.953125 6.109375 30.078125 6.109375 
Q 37.203125 6.109375 41.296875 11.75 
Q 45.40625 17.390625 45.40625 27.296875 
Q 45.40625 37.203125 41.296875 42.84375 
Q 37.203125 48.484375 30.078125 48.484375 
Q 22.953125 48.484375 18.875 42.84375 
Q 14.796875 37.203125 14.796875 27.296875 
z
" id="DejaVuSans-100"/>
     </defs>
     <use xlink:href="#DejaVuSans-66"/>
     <use x="68.603516" xlink:href="#DejaVuSans-84"/>
     <use x="123.8125" xlink:href="#DejaVuSans-67"/>
     <use x="193.636719" xlink:href="#DejaVuSans-32"/>
     <use x="225.423828" xlink:href="#DejaVuSans-122"/>
     <use x="277.914062" xlink:href="#DejaVuSans-225"/>
     <use x="339.193359" xlink:href="#DejaVuSans-114"/>
     <use x="378.056641" xlink:href="#DejaVuSans-243"/>
     <use x="439.238281" xlink:href="#DejaVuSans-32"/>
     <use x="471.025391" xlink:href="#DejaVuSans-225"/>
     <use x="532.304688" xlink:href="#DejaVuSans-114"/>
     <use x="573.417969" xlink:href="#DejaVuSans-102"/>
     <use x="608.623047" xlink:href="#DejaVuSans-111"/>
     <use x="669.804688" xlink:href="#DejaVuSans-108"/>
     <use x="697.587891" xlink:href="#DejaVuSans-121"/>
     <use x="756.767578" xlink:href="#DejaVuSans-97"/>
     <use x="818.046875" xlink:href="#DejaVuSans-109"/>
     <use x="915.458984" xlink:href="#DejaVuSans-32"/>
     <use x="947.246094" xlink:href="#DejaVuSans-101"/>
     <use x="1008.769531" xlink:href="#DejaVuSans-108"/>
     <use x="1036.552734" xlink:href="#DejaVuSans-337"/>
     <use x="1097.734375" xlink:href="#DejaVuSans-114"/>
     <use x="1136.597656" xlink:href="#DejaVuSans-101"/>
     <use x="1198.121094" xlink:href="#DejaVuSans-106"/>
     <use x="1225.904297" xlink:href="#DejaVuSans-101"/>
     <use x="1287.427734" xlink:href="#DejaVuSans-108"/>
     <use x="1315.210938" xlink:href="#DejaVuSans-122"/>
     <use x="1367.701172" xlink:href="#DejaVuSans-233"/>
     <use x="1429.224609" xlink:href="#DejaVuSans-115"/>
     <use x="1481.324219" xlink:href="#DejaVuSans-32"/>
     <use x="1513.111328" xlink:href="#DejaVuSans-76"/>
     <use x="1568.824219" xlink:href="#DejaVuSans-83"/>
     <use x="1632.300781" xlink:href="#DejaVuSans-84"/>
     <use x="1693.384766" xlink:href="#DejaVuSans-77"/>
     <use x="1779.664062" xlink:href="#DejaVuSans-32"/>
     <use x="1811.451172" xlink:href="#DejaVuSans-109"/>
     <use x="1908.863281" xlink:href="#DejaVuSans-111"/>
     <use x="1970.044922" xlink:href="#DejaVuSans-100"/>
     <use x="2033.521484" xlink:href="#DejaVuSans-101"/>
     <use x="2095.044922" xlink:href="#DejaVuSans-108"/>
     <use x="2122.828125" xlink:href="#DejaVuSans-108"/>
     <use x="2150.611328" xlink:href="#DejaVuSans-101"/>
     <use x="2212.134766" xlink:href="#DejaVuSans-108"/>
    </g>
   </g>
   <g id="legend_1">
    <g id="patch_7">
     <path d="M 64.6 79.62825 
L 325.379688 79.62825 
Q 327.379688 79.62825 327.379688 77.62825 
L 327.379688 48.472 
Q 327.379688 46.472 325.379688 46.472 
L 64.6 46.472 
Q 62.6 46.472 62.6 48.472 
L 62.6 77.62825 
Q 62.6 79.62825 64.6 79.62825 
z
" style="fill:#ffffff;opacity:0.8;stroke:#cccccc;stroke-linejoin:miter;"/>
    </g>
    <g id="line2d_18">
     <path d="M 66.6 54.970438 
L 86.6 54.970438 
" style="fill:none;stroke:#008000;stroke-linecap:square;stroke-width:1.5;"/>
    </g>
    <g id="line2d_19"/>
    <g id="text_18">
     <!-- Modell alapján előrejelzett napi záró árfolyam -->
     <g transform="translate(94.6 58.470438)scale(0.1 -0.1)">
      <defs>
       <path d="M 18.109375 8.203125 
L 18.109375 -20.796875 
L 9.078125 -20.796875 
L 9.078125 54.6875 
L 18.109375 54.6875 
L 18.109375 46.390625 
Q 20.953125 51.265625 25.265625 53.625 
Q 29.59375 56 35.59375 56 
Q 45.5625 56 51.78125 48.09375 
Q 58.015625 40.1875 58.015625 27.296875 
Q 58.015625 14.40625 51.78125 6.484375 
Q 45.5625 -1.421875 35.59375 -1.421875 
Q 29.59375 -1.421875 25.265625 0.953125 
Q 20.953125 3.328125 18.109375 8.203125 
z
M 48.6875 27.296875 
Q 48.6875 37.203125 44.609375 42.84375 
Q 40.53125 48.484375 33.40625 48.484375 
Q 26.265625 48.484375 22.1875 42.84375 
Q 18.109375 37.203125 18.109375 27.296875 
Q 18.109375 17.390625 22.1875 11.75 
Q 26.265625 6.109375 33.40625 6.109375 
Q 40.53125 6.109375 44.609375 11.75 
Q 48.6875 17.390625 48.6875 27.296875 
z
" id="DejaVuSans-112"/>
       <path d="M 54.890625 33.015625 
L 54.890625 0 
L 45.90625 0 
L 45.90625 32.71875 
Q 45.90625 40.484375 42.875 44.328125 
Q 39.84375 48.1875 33.796875 48.1875 
Q 26.515625 48.1875 22.3125 43.546875 
Q 18.109375 38.921875 18.109375 30.90625 
L 18.109375 0 
L 9.078125 0 
L 9.078125 54.6875 
L 18.109375 54.6875 
L 18.109375 46.1875 
Q 21.34375 51.125 25.703125 53.5625 
Q 30.078125 56 35.796875 56 
Q 45.21875 56 50.046875 50.171875 
Q 54.890625 44.34375 54.890625 33.015625 
z
" id="DejaVuSans-110"/>
       <path d="M 18.3125 70.21875 
L 18.3125 54.6875 
L 36.8125 54.6875 
L 36.8125 47.703125 
L 18.3125 47.703125 
L 18.3125 18.015625 
Q 18.3125 11.328125 20.140625 9.421875 
Q 21.96875 7.515625 27.59375 7.515625 
L 36.8125 7.515625 
L 36.8125 0 
L 27.59375 0 
Q 17.1875 0 13.234375 3.875 
Q 9.28125 7.765625 9.28125 18.015625 
L 9.28125 47.703125 
L 2.6875 47.703125 
L 2.6875 54.6875 
L 9.28125 54.6875 
L 9.28125 70.21875 
z
" id="DejaVuSans-116"/>
       <path d="M 9.421875 54.6875 
L 18.40625 54.6875 
L 18.40625 0 
L 9.421875 0 
z
M 9.421875 75.984375 
L 18.40625 75.984375 
L 18.40625 64.59375 
L 9.421875 64.59375 
z
" id="DejaVuSans-105"/>
      </defs>
      <use xlink:href="#DejaVuSans-77"/>
      <use x="86.279297" xlink:href="#DejaVuSans-111"/>
      <use x="147.460938" xlink:href="#DejaVuSans-100"/>
      <use x="210.9375" xlink:href="#DejaVuSans-101"/>
      <use x="272.460938" xlink:href="#DejaVuSans-108"/>
      <use x="300.244141" xlink:href="#DejaVuSans-108"/>
      <use x="328.027344" xlink:href="#DejaVuSans-32"/>
      <use x="359.814453" xlink:href="#DejaVuSans-97"/>
      <use x="421.09375" xlink:href="#DejaVuSans-108"/>
      <use x="448.876953" xlink:href="#DejaVuSans-97"/>
      <use x="510.15625" xlink:href="#DejaVuSans-112"/>
      <use x="573.632812" xlink:href="#DejaVuSans-106"/>
      <use x="601.416016" xlink:href="#DejaVuSans-225"/>
      <use x="662.695312" xlink:href="#DejaVuSans-110"/>
      <use x="726.074219" xlink:href="#DejaVuSans-32"/>
      <use x="757.861328" xlink:href="#DejaVuSans-101"/>
      <use x="819.384766" xlink:href="#DejaVuSans-108"/>
      <use x="847.167969" xlink:href="#DejaVuSans-337"/>
      <use x="908.349609" xlink:href="#DejaVuSans-114"/>
      <use x="947.212891" xlink:href="#DejaVuSans-101"/>
      <use x="1008.736328" xlink:href="#DejaVuSans-106"/>
      <use x="1036.519531" xlink:href="#DejaVuSans-101"/>
      <use x="1098.042969" xlink:href="#DejaVuSans-108"/>
      <use x="1125.826172" xlink:href="#DejaVuSans-122"/>
      <use x="1178.316406" xlink:href="#DejaVuSans-101"/>
      <use x="1239.839844" xlink:href="#DejaVuSans-116"/>
      <use x="1279.048828" xlink:href="#DejaVuSans-116"/>
      <use x="1318.257812" xlink:href="#DejaVuSans-32"/>
      <use x="1350.044922" xlink:href="#DejaVuSans-110"/>
      <use x="1413.423828" xlink:href="#DejaVuSans-97"/>
      <use x="1474.703125" xlink:href="#DejaVuSans-112"/>
      <use x="1538.179688" xlink:href="#DejaVuSans-105"/>
      <use x="1565.962891" xlink:href="#DejaVuSans-32"/>
      <use x="1597.75" xlink:href="#DejaVuSans-122"/>
      <use x="1650.240234" xlink:href="#DejaVuSans-225"/>
      <use x="1711.519531" xlink:href="#DejaVuSans-114"/>
      <use x="1750.382812" xlink:href="#DejaVuSans-243"/>
      <use x="1811.564453" xlink:href="#DejaVuSans-32"/>
      <use x="1843.351562" xlink:href="#DejaVuSans-225"/>
      <use x="1904.630859" xlink:href="#DejaVuSans-114"/>
      <use x="1945.744141" xlink:href="#DejaVuSans-102"/>
      <use x="1980.949219" xlink:href="#DejaVuSans-111"/>
      <use x="2042.130859" xlink:href="#DejaVuSans-108"/>
      <use x="2069.914062" xlink:href="#DejaVuSans-121"/>
      <use x="2129.09375" xlink:href="#DejaVuSans-97"/>
      <use x="2190.373047" xlink:href="#DejaVuSans-109"/>
     </g>
    </g>
    <g id="line2d_20">
     <path d="M 66.6 70.048563 
L 86.6 70.048563 
" style="fill:none;stroke:#000000;stroke-linecap:square;stroke-width:1.5;"/>
    </g>
    <g id="line2d_21"/>
    <g id="text_19">
     <!-- Valós napi záró árfolyamok -->
     <g transform="translate(94.6 73.548563)scale(0.1 -0.1)">
      <defs>
       <path d="M 28.609375 0 
L 0.78125 72.90625 
L 11.078125 72.90625 
L 34.1875 11.53125 
L 57.328125 72.90625 
L 67.578125 72.90625 
L 39.796875 0 
z
" id="DejaVuSans-86"/>
       <path d="M 9.078125 75.984375 
L 18.109375 75.984375 
L 18.109375 31.109375 
L 44.921875 54.6875 
L 56.390625 54.6875 
L 27.390625 29.109375 
L 57.625 0 
L 45.90625 0 
L 18.109375 26.703125 
L 18.109375 0 
L 9.078125 0 
z
" id="DejaVuSans-107"/>
      </defs>
      <use xlink:href="#DejaVuSans-86"/>
      <use x="60.658203" xlink:href="#DejaVuSans-97"/>
      <use x="121.9375" xlink:href="#DejaVuSans-108"/>
      <use x="149.720703" xlink:href="#DejaVuSans-243"/>
      <use x="210.902344" xlink:href="#DejaVuSans-115"/>
      <use x="263.001953" xlink:href="#DejaVuSans-32"/>
      <use x="294.789062" xlink:href="#DejaVuSans-110"/>
      <use x="358.167969" xlink:href="#DejaVuSans-97"/>
      <use x="419.447266" xlink:href="#DejaVuSans-112"/>
      <use x="482.923828" xlink:href="#DejaVuSans-105"/>
      <use x="510.707031" xlink:href="#DejaVuSans-32"/>
      <use x="542.494141" xlink:href="#DejaVuSans-122"/>
      <use x="594.984375" xlink:href="#DejaVuSans-225"/>
      <use x="656.263672" xlink:href="#DejaVuSans-114"/>
      <use x="695.126953" xlink:href="#DejaVuSans-243"/>
      <use x="756.308594" xlink:href="#DejaVuSans-32"/>
      <use x="788.095703" xlink:href="#DejaVuSans-225"/>
      <use x="849.375" xlink:href="#DejaVuSans-114"/>
      <use x="890.488281" xlink:href="#DejaVuSans-102"/>
      <use x="925.693359" xlink:href="#DejaVuSans-111"/>
      <use x="986.875" xlink:href="#DejaVuSans-108"/>
      <use x="1014.658203" xlink:href="#DejaVuSans-121"/>
      <use x="1073.837891" xlink:href="#DejaVuSans-97"/>
      <use x="1135.117188" xlink:href="#DejaVuSans-109"/>
      <use x="1232.529297" xlink:href="#DejaVuSans-111"/>
      <use x="1293.710938" xlink:href="#DejaVuSans-107"/>
     </g>
    </g>
   </g>
  </g>
 </g>
 <defs>
  <clipPath id="p7e1966d1f8">
   <rect height="266.112" width="357.12" x="57.6" y="41.472"/>
  </clipPath>
 </defs>
</svg>
