<?xml version="1.0" encoding="utf-8" standalone="no"?>
<!DOCTYPE svg PUBLIC "-//W3C//DTD SVG 1.1//EN"
  "http://www.w3.org/Graphics/SVG/1.1/DTD/svg11.dtd">
<!-- Created with matplotlib (https://matplotlib.org/) -->
<svg height="345.6pt" version="1.1" viewBox="0 0 460.8 345.6" width="460.8pt" xmlns="http://www.w3.org/2000/svg" xmlns:xlink="http://www.w3.org/1999/xlink">
 <metadata>
  <rdf:RDF xmlns:cc="http://creativecommons.org/ns#" xmlns:dc="http://purl.org/dc/elements/1.1/" xmlns:rdf="http://www.w3.org/1999/02/22-rdf-syntax-ns#">
   <cc:Work>
    <dc:type rdf:resource="http://purl.org/dc/dcmitype/StillImage"/>
    <dc:date>2023-10-30T13:43:21.465229</dc:date>
    <dc:format>image/svg+xml</dc:format>
    <dc:creator>
     <cc:Agent>
      <dc:title>Matplotlib v3.3.2, https://matplotlib.org/</dc:title>
     </cc:Agent>
    </dc:creator>
   </cc:Work>
  </rdf:RDF>
 </metadata>
 <defs>
  <style type="text/css">*{stroke-linecap:butt;stroke-linejoin:round;}</style>
 </defs>
 <g id="figure_1">
  <g id="patch_1">
   <path d="M 0 345.6 
L 460.8 345.6 
L 460.8 0 
L 0 0 
z
" style="fill:#ffffff;"/>
  </g>
  <g id="axes_1">
   <g id="patch_2">
    <path d="M 57.6 307.584 
L 414.72 307.584 
L 414.72 41.472 
L 57.6 41.472 
z
" style="fill:#ffffff;"/>
   </g>
   <g id="matplotlib.axis_1">
    <g id="xtick_1">
     <g id="line2d_1">
      <defs>
       <path d="M 0 0 
L 0 3.5 
" id="mdf21776e71" style="stroke:#000000;stroke-width:0.8;"/>
      </defs>
      <g>
       <use style="stroke:#000000;stroke-width:0.8;" x="73.832727" xlink:href="#mdf21776e71" y="307.584"/>
      </g>
     </g>
     <g id="text_1">
      <!-- 2023-01 -->
      <g transform="translate(63.575701 342.518253)rotate(-45)scale(0.08 -0.08)">
       <defs>
        <path d="M 19.1875 8.296875 
L 53.609375 8.296875 
L 53.609375 0 
L 7.328125 0 
L 7.328125 8.296875 
Q 12.9375 14.109375 22.625 23.890625 
Q 32.328125 33.6875 34.8125 36.53125 
Q 39.546875 41.84375 41.421875 45.53125 
Q 43.3125 49.21875 43.3125 52.78125 
Q 43.3125 58.59375 39.234375 62.25 
Q 35.15625 65.921875 28.609375 65.921875 
Q 23.96875 65.921875 18.8125 64.3125 
Q 13.671875 62.703125 7.8125 59.421875 
L 7.8125 69.390625 
Q 13.765625 71.78125 18.9375 73 
Q 24.125 74.21875 28.421875 74.21875 
Q 39.75 74.21875 46.484375 68.546875 
Q 53.21875 62.890625 53.21875 53.421875 
Q 53.21875 48.921875 51.53125 44.890625 
Q 49.859375 40.875 45.40625 35.40625 
Q 44.1875 33.984375 37.640625 27.21875 
Q 31.109375 20.453125 19.1875 8.296875 
z
" id="DejaVuSans-50"/>
        <path d="M 31.78125 66.40625 
Q 24.171875 66.40625 20.328125 58.90625 
Q 16.5 51.421875 16.5 36.375 
Q 16.5 21.390625 20.328125 13.890625 
Q 24.171875 6.390625 31.78125 6.390625 
Q 39.453125 6.390625 43.28125 13.890625 
Q 47.125 21.390625 47.125 36.375 
Q 47.125 51.421875 43.28125 58.90625 
Q 39.453125 66.40625 31.78125 66.40625 
z
M 31.78125 74.21875 
Q 44.046875 74.21875 50.515625 64.515625 
Q 56.984375 54.828125 56.984375 36.375 
Q 56.984375 17.96875 50.515625 8.265625 
Q 44.046875 -1.421875 31.78125 -1.421875 
Q 19.53125 -1.421875 13.0625 8.265625 
Q 6.59375 17.96875 6.59375 36.375 
Q 6.59375 54.828125 13.0625 64.515625 
Q 19.53125 74.21875 31.78125 74.21875 
z
" id="DejaVuSans-48"/>
        <path d="M 40.578125 39.3125 
Q 47.65625 37.796875 51.625 33 
Q 55.609375 28.21875 55.609375 21.1875 
Q 55.609375 10.40625 48.1875 4.484375 
Q 40.765625 -1.421875 27.09375 -1.421875 
Q 22.515625 -1.421875 17.65625 -0.515625 
Q 12.796875 0.390625 7.625 2.203125 
L 7.625 11.71875 
Q 11.71875 9.328125 16.59375 8.109375 
Q 21.484375 6.890625 26.8125 6.890625 
Q 36.078125 6.890625 40.9375 10.546875 
Q 45.796875 14.203125 45.796875 21.1875 
Q 45.796875 27.640625 41.28125 31.265625 
Q 36.765625 34.90625 28.71875 34.90625 
L 20.21875 34.90625 
L 20.21875 43.015625 
L 29.109375 43.015625 
Q 36.375 43.015625 40.234375 45.921875 
Q 44.09375 48.828125 44.09375 54.296875 
Q 44.09375 59.90625 40.109375 62.90625 
Q 36.140625 65.921875 28.71875 65.921875 
Q 24.65625 65.921875 20.015625 65.03125 
Q 15.375 64.15625 9.8125 62.3125 
L 9.8125 71.09375 
Q 15.4375 72.65625 20.34375 73.4375 
Q 25.25 74.21875 29.59375 74.21875 
Q 40.828125 74.21875 47.359375 69.109375 
Q 53.90625 64.015625 53.90625 55.328125 
Q 53.90625 49.265625 50.4375 45.09375 
Q 46.96875 40.921875 40.578125 39.3125 
z
" id="DejaVuSans-51"/>
        <path d="M 4.890625 31.390625 
L 31.203125 31.390625 
L 31.203125 23.390625 
L 4.890625 23.390625 
z
" id="DejaVuSans-45"/>
        <path d="M 12.40625 8.296875 
L 28.515625 8.296875 
L 28.515625 63.921875 
L 10.984375 60.40625 
L 10.984375 69.390625 
L 28.421875 72.90625 
L 38.28125 72.90625 
L 38.28125 8.296875 
L 54.390625 8.296875 
L 54.390625 0 
L 12.40625 0 
z
" id="DejaVuSans-49"/>
       </defs>
       <use xlink:href="#DejaVuSans-50"/>
       <use x="63.623047" xlink:href="#DejaVuSans-48"/>
       <use x="127.246094" xlink:href="#DejaVuSans-50"/>
       <use x="190.869141" xlink:href="#DejaVuSans-51"/>
       <use x="254.492188" xlink:href="#DejaVuSans-45"/>
       <use x="290.576172" xlink:href="#DejaVuSans-48"/>
       <use x="354.199219" xlink:href="#DejaVuSans-49"/>
      </g>
     </g>
    </g>
    <g id="xtick_2">
     <g id="line2d_2">
      <g>
       <use style="stroke:#000000;stroke-width:0.8;" x="131.181884" xlink:href="#mdf21776e71" y="307.584"/>
      </g>
     </g>
     <g id="text_2">
      <!-- 2023-03 -->
      <g transform="translate(120.924858 342.518253)rotate(-45)scale(0.08 -0.08)">
       <use xlink:href="#DejaVuSans-50"/>
       <use x="63.623047" xlink:href="#DejaVuSans-48"/>
       <use x="127.246094" xlink:href="#DejaVuSans-50"/>
       <use x="190.869141" xlink:href="#DejaVuSans-51"/>
       <use x="254.492188" xlink:href="#DejaVuSans-45"/>
       <use x="290.576172" xlink:href="#DejaVuSans-48"/>
       <use x="354.199219" xlink:href="#DejaVuSans-51"/>
      </g>
     </g>
    </g>
    <g id="xtick_3">
     <g id="line2d_3">
      <g>
       <use style="stroke:#000000;stroke-width:0.8;" x="190.475079" xlink:href="#mdf21776e71" y="307.584"/>
      </g>
     </g>
     <g id="text_3">
      <!-- 2023-05 -->
      <g transform="translate(180.218053 342.518253)rotate(-45)scale(0.08 -0.08)">
       <defs>
        <path d="M 10.796875 72.90625 
L 49.515625 72.90625 
L 49.515625 64.59375 
L 19.828125 64.59375 
L 19.828125 46.734375 
Q 21.96875 47.46875 24.109375 47.828125 
Q 26.265625 48.1875 28.421875 48.1875 
Q 40.625 48.1875 47.75 41.5 
Q 54.890625 34.8125 54.890625 23.390625 
Q 54.890625 11.625 47.5625 5.09375 
Q 40.234375 -1.421875 26.90625 -1.421875 
Q 22.3125 -1.421875 17.546875 -0.640625 
Q 12.796875 0.140625 7.71875 1.703125 
L 7.71875 11.625 
Q 12.109375 9.234375 16.796875 8.0625 
Q 21.484375 6.890625 26.703125 6.890625 
Q 35.15625 6.890625 40.078125 11.328125 
Q 45.015625 15.765625 45.015625 23.390625 
Q 45.015625 31 40.078125 35.4375 
Q 35.15625 39.890625 26.703125 39.890625 
Q 22.75 39.890625 18.8125 39.015625 
Q 14.890625 38.140625 10.796875 36.28125 
z
" id="DejaVuSans-53"/>
       </defs>
       <use xlink:href="#DejaVuSans-50"/>
       <use x="63.623047" xlink:href="#DejaVuSans-48"/>
       <use x="127.246094" xlink:href="#DejaVuSans-50"/>
       <use x="190.869141" xlink:href="#DejaVuSans-51"/>
       <use x="254.492188" xlink:href="#DejaVuSans-45"/>
       <use x="290.576172" xlink:href="#DejaVuSans-48"/>
       <use x="354.199219" xlink:href="#DejaVuSans-53"/>
      </g>
     </g>
    </g>
    <g id="xtick_4">
     <g id="line2d_4">
      <g>
       <use style="stroke:#000000;stroke-width:0.8;" x="249.768274" xlink:href="#mdf21776e71" y="307.584"/>
      </g>
     </g>
     <g id="text_4">
      <!-- 2023-07 -->
      <g transform="translate(239.511249 342.518253)rotate(-45)scale(0.08 -0.08)">
       <defs>
        <path d="M 8.203125 72.90625 
L 55.078125 72.90625 
L 55.078125 68.703125 
L 28.609375 0 
L 18.3125 0 
L 43.21875 64.59375 
L 8.203125 64.59375 
z
" id="DejaVuSans-55"/>
       </defs>
       <use xlink:href="#DejaVuSans-50"/>
       <use x="63.623047" xlink:href="#DejaVuSans-48"/>
       <use x="127.246094" xlink:href="#DejaVuSans-50"/>
       <use x="190.869141" xlink:href="#DejaVuSans-51"/>
       <use x="254.492188" xlink:href="#DejaVuSans-45"/>
       <use x="290.576172" xlink:href="#DejaVuSans-48"/>
       <use x="354.199219" xlink:href="#DejaVuSans-55"/>
      </g>
     </g>
    </g>
    <g id="xtick_5">
     <g id="line2d_5">
      <g>
       <use style="stroke:#000000;stroke-width:0.8;" x="310.033489" xlink:href="#mdf21776e71" y="307.584"/>
      </g>
     </g>
     <g id="text_5">
      <!-- 2023-09 -->
      <g transform="translate(299.776464 342.518253)rotate(-45)scale(0.08 -0.08)">
       <defs>
        <path d="M 10.984375 1.515625 
L 10.984375 10.5 
Q 14.703125 8.734375 18.5 7.8125 
Q 22.3125 6.890625 25.984375 6.890625 
Q 35.75 6.890625 40.890625 13.453125 
Q 46.046875 20.015625 46.78125 33.40625 
Q 43.953125 29.203125 39.59375 26.953125 
Q 35.25 24.703125 29.984375 24.703125 
Q 19.046875 24.703125 12.671875 31.3125 
Q 6.296875 37.9375 6.296875 49.421875 
Q 6.296875 60.640625 12.9375 67.421875 
Q 19.578125 74.21875 30.609375 74.21875 
Q 43.265625 74.21875 49.921875 64.515625 
Q 56.59375 54.828125 56.59375 36.375 
Q 56.59375 19.140625 48.40625 8.859375 
Q 40.234375 -1.421875 26.421875 -1.421875 
Q 22.703125 -1.421875 18.890625 -0.6875 
Q 15.09375 0.046875 10.984375 1.515625 
z
M 30.609375 32.421875 
Q 37.25 32.421875 41.125 36.953125 
Q 45.015625 41.5 45.015625 49.421875 
Q 45.015625 57.28125 41.125 61.84375 
Q 37.25 66.40625 30.609375 66.40625 
Q 23.96875 66.40625 20.09375 61.84375 
Q 16.21875 57.28125 16.21875 49.421875 
Q 16.21875 41.5 20.09375 36.953125 
Q 23.96875 32.421875 30.609375 32.421875 
z
" id="DejaVuSans-57"/>
       </defs>
       <use xlink:href="#DejaVuSans-50"/>
       <use x="63.623047" xlink:href="#DejaVuSans-48"/>
       <use x="127.246094" xlink:href="#DejaVuSans-50"/>
       <use x="190.869141" xlink:href="#DejaVuSans-51"/>
       <use x="254.492188" xlink:href="#DejaVuSans-45"/>
       <use x="290.576172" xlink:href="#DejaVuSans-48"/>
       <use x="354.199219" xlink:href="#DejaVuSans-57"/>
      </g>
     </g>
    </g>
    <g id="xtick_6">
     <g id="line2d_6">
      <g>
       <use style="stroke:#000000;stroke-width:0.8;" x="369.326685" xlink:href="#mdf21776e71" y="307.584"/>
      </g>
     </g>
     <g id="text_6">
      <!-- 2023-11 -->
      <g transform="translate(359.069659 342.518253)rotate(-45)scale(0.08 -0.08)">
       <use xlink:href="#DejaVuSans-50"/>
       <use x="63.623047" xlink:href="#DejaVuSans-48"/>
       <use x="127.246094" xlink:href="#DejaVuSans-50"/>
       <use x="190.869141" xlink:href="#DejaVuSans-51"/>
       <use x="254.492188" xlink:href="#DejaVuSans-45"/>
       <use x="290.576172" xlink:href="#DejaVuSans-49"/>
       <use x="354.199219" xlink:href="#DejaVuSans-49"/>
      </g>
     </g>
    </g>
   </g>
   <g id="matplotlib.axis_2">
    <g id="ytick_1">
     <g id="line2d_7">
      <defs>
       <path d="M 0 0 
L -3.5 0 
" id="m2b9a7b3743" style="stroke:#000000;stroke-width:0.8;"/>
      </defs>
      <g>
       <use style="stroke:#000000;stroke-width:0.8;" x="57.6" xlink:href="#m2b9a7b3743" y="299.417315"/>
      </g>
     </g>
     <g id="text_7">
      <!-- 0.00 -->
      <g transform="translate(28.334375 303.216533)scale(0.1 -0.1)">
       <defs>
        <path d="M 10.6875 12.40625 
L 21 12.40625 
L 21 0 
L 10.6875 0 
z
" id="DejaVuSans-46"/>
       </defs>
       <use xlink:href="#DejaVuSans-48"/>
       <use x="63.623047" xlink:href="#DejaVuSans-46"/>
       <use x="95.410156" xlink:href="#DejaVuSans-48"/>
       <use x="159.033203" xlink:href="#DejaVuSans-48"/>
      </g>
     </g>
    </g>
    <g id="ytick_2">
     <g id="line2d_8">
      <g>
       <use style="stroke:#000000;stroke-width:0.8;" x="57.6" xlink:href="#m2b9a7b3743" y="248.287651"/>
      </g>
     </g>
     <g id="text_8">
      <!-- 0.02 -->
      <g transform="translate(28.334375 252.086869)scale(0.1 -0.1)">
       <use xlink:href="#DejaVuSans-48"/>
       <use x="63.623047" xlink:href="#DejaVuSans-46"/>
       <use x="95.410156" xlink:href="#DejaVuSans-48"/>
       <use x="159.033203" xlink:href="#DejaVuSans-50"/>
      </g>
     </g>
    </g>
    <g id="ytick_3">
     <g id="line2d_9">
      <g>
       <use style="stroke:#000000;stroke-width:0.8;" x="57.6" xlink:href="#m2b9a7b3743" y="197.157987"/>
      </g>
     </g>
     <g id="text_9">
      <!-- 0.04 -->
      <g transform="translate(28.334375 200.957206)scale(0.1 -0.1)">
       <defs>
        <path d="M 37.796875 64.3125 
L 12.890625 25.390625 
L 37.796875 25.390625 
z
M 35.203125 72.90625 
L 47.609375 72.90625 
L 47.609375 25.390625 
L 58.015625 25.390625 
L 58.015625 17.1875 
L 47.609375 17.1875 
L 47.609375 0 
L 37.796875 0 
L 37.796875 17.1875 
L 4.890625 17.1875 
L 4.890625 26.703125 
z
" id="DejaVuSans-52"/>
       </defs>
       <use xlink:href="#DejaVuSans-48"/>
       <use x="63.623047" xlink:href="#DejaVuSans-46"/>
       <use x="95.410156" xlink:href="#DejaVuSans-48"/>
       <use x="159.033203" xlink:href="#DejaVuSans-52"/>
      </g>
     </g>
    </g>
    <g id="ytick_4">
     <g id="line2d_10">
      <g>
       <use style="stroke:#000000;stroke-width:0.8;" x="57.6" xlink:href="#m2b9a7b3743" y="146.028323"/>
      </g>
     </g>
     <g id="text_10">
      <!-- 0.06 -->
      <g transform="translate(28.334375 149.827542)scale(0.1 -0.1)">
       <defs>
        <path d="M 33.015625 40.375 
Q 26.375 40.375 22.484375 35.828125 
Q 18.609375 31.296875 18.609375 23.390625 
Q 18.609375 15.53125 22.484375 10.953125 
Q 26.375 6.390625 33.015625 6.390625 
Q 39.65625 6.390625 43.53125 10.953125 
Q 47.40625 15.53125 47.40625 23.390625 
Q 47.40625 31.296875 43.53125 35.828125 
Q 39.65625 40.375 33.015625 40.375 
z
M 52.59375 71.296875 
L 52.59375 62.3125 
Q 48.875 64.0625 45.09375 64.984375 
Q 41.3125 65.921875 37.59375 65.921875 
Q 27.828125 65.921875 22.671875 59.328125 
Q 17.53125 52.734375 16.796875 39.40625 
Q 19.671875 43.65625 24.015625 45.921875 
Q 28.375 48.1875 33.59375 48.1875 
Q 44.578125 48.1875 50.953125 41.515625 
Q 57.328125 34.859375 57.328125 23.390625 
Q 57.328125 12.15625 50.6875 5.359375 
Q 44.046875 -1.421875 33.015625 -1.421875 
Q 20.359375 -1.421875 13.671875 8.265625 
Q 6.984375 17.96875 6.984375 36.375 
Q 6.984375 53.65625 15.1875 63.9375 
Q 23.390625 74.21875 37.203125 74.21875 
Q 40.921875 74.21875 44.703125 73.484375 
Q 48.484375 72.75 52.59375 71.296875 
z
" id="DejaVuSans-54"/>
       </defs>
       <use xlink:href="#DejaVuSans-48"/>
       <use x="63.623047" xlink:href="#DejaVuSans-46"/>
       <use x="95.410156" xlink:href="#DejaVuSans-48"/>
       <use x="159.033203" xlink:href="#DejaVuSans-54"/>
      </g>
     </g>
    </g>
    <g id="ytick_5">
     <g id="line2d_11">
      <g>
       <use style="stroke:#000000;stroke-width:0.8;" x="57.6" xlink:href="#m2b9a7b3743" y="94.898659"/>
      </g>
     </g>
     <g id="text_11">
      <!-- 0.08 -->
      <g transform="translate(28.334375 98.697878)scale(0.1 -0.1)">
       <defs>
        <path d="M 31.78125 34.625 
Q 24.75 34.625 20.71875 30.859375 
Q 16.703125 27.09375 16.703125 20.515625 
Q 16.703125 13.921875 20.71875 10.15625 
Q 24.75 6.390625 31.78125 6.390625 
Q 38.8125 6.390625 42.859375 10.171875 
Q 46.921875 13.96875 46.921875 20.515625 
Q 46.921875 27.09375 42.890625 30.859375 
Q 38.875 34.625 31.78125 34.625 
z
M 21.921875 38.8125 
Q 15.578125 40.375 12.03125 44.71875 
Q 8.5 49.078125 8.5 55.328125 
Q 8.5 64.0625 14.71875 69.140625 
Q 20.953125 74.21875 31.78125 74.21875 
Q 42.671875 74.21875 48.875 69.140625 
Q 55.078125 64.0625 55.078125 55.328125 
Q 55.078125 49.078125 51.53125 44.71875 
Q 48 40.375 41.703125 38.8125 
Q 48.828125 37.15625 52.796875 32.3125 
Q 56.78125 27.484375 56.78125 20.515625 
Q 56.78125 9.90625 50.3125 4.234375 
Q 43.84375 -1.421875 31.78125 -1.421875 
Q 19.734375 -1.421875 13.25 4.234375 
Q 6.78125 9.90625 6.78125 20.515625 
Q 6.78125 27.484375 10.78125 32.3125 
Q 14.796875 37.15625 21.921875 38.8125 
z
M 18.3125 54.390625 
Q 18.3125 48.734375 21.84375 45.5625 
Q 25.390625 42.390625 31.78125 42.390625 
Q 38.140625 42.390625 41.71875 45.5625 
Q 45.3125 48.734375 45.3125 54.390625 
Q 45.3125 60.0625 41.71875 63.234375 
Q 38.140625 66.40625 31.78125 66.40625 
Q 25.390625 66.40625 21.84375 63.234375 
Q 18.3125 60.0625 18.3125 54.390625 
z
" id="DejaVuSans-56"/>
       </defs>
       <use xlink:href="#DejaVuSans-48"/>
       <use x="63.623047" xlink:href="#DejaVuSans-46"/>
       <use x="95.410156" xlink:href="#DejaVuSans-48"/>
       <use x="159.033203" xlink:href="#DejaVuSans-56"/>
      </g>
     </g>
    </g>
    <g id="ytick_6">
     <g id="line2d_12">
      <g>
       <use style="stroke:#000000;stroke-width:0.8;" x="57.6" xlink:href="#m2b9a7b3743" y="43.768995"/>
      </g>
     </g>
     <g id="text_12">
      <!-- 0.10 -->
      <g transform="translate(28.334375 47.568214)scale(0.1 -0.1)">
       <use xlink:href="#DejaVuSans-48"/>
       <use x="63.623047" xlink:href="#DejaVuSans-46"/>
       <use x="95.410156" xlink:href="#DejaVuSans-49"/>
       <use x="159.033203" xlink:href="#DejaVuSans-48"/>
      </g>
     </g>
    </g>
    <g id="text_13">
     <!-- Ár ($) -->
     <g transform="translate(22.254688 188.675656)rotate(-90)scale(0.1 -0.1)">
      <defs>
       <path d="M 34.1875 63.1875 
L 20.796875 26.90625 
L 47.609375 26.90625 
z
M 28.609375 72.90625 
L 39.796875 72.90625 
L 67.578125 0 
L 57.328125 0 
L 50.6875 18.703125 
L 17.828125 18.703125 
L 11.1875 0 
L 0.78125 0 
z
M 36.8125 92.515625 
L 45.84375 92.515625 
L 34.71875 79.625 
L 27.234375 79.625 
z
" id="DejaVuSans-193"/>
       <path d="M 41.109375 46.296875 
Q 39.59375 47.171875 37.8125 47.578125 
Q 36.03125 48 33.890625 48 
Q 26.265625 48 22.1875 43.046875 
Q 18.109375 38.09375 18.109375 28.8125 
L 18.109375 0 
L 9.078125 0 
L 9.078125 54.6875 
L 18.109375 54.6875 
L 18.109375 46.1875 
Q 20.953125 51.171875 25.484375 53.578125 
Q 30.03125 56 36.53125 56 
Q 37.453125 56 38.578125 55.875 
Q 39.703125 55.765625 41.0625 55.515625 
z
" id="DejaVuSans-114"/>
       <path id="DejaVuSans-32"/>
       <path d="M 31 75.875 
Q 24.46875 64.65625 21.28125 53.65625 
Q 18.109375 42.671875 18.109375 31.390625 
Q 18.109375 20.125 21.3125 9.0625 
Q 24.515625 -2 31 -13.1875 
L 23.1875 -13.1875 
Q 15.875 -1.703125 12.234375 9.375 
Q 8.59375 20.453125 8.59375 31.390625 
Q 8.59375 42.28125 12.203125 53.3125 
Q 15.828125 64.359375 23.1875 75.875 
z
" id="DejaVuSans-40"/>
       <path d="M 33.796875 -14.703125 
L 28.90625 -14.703125 
L 28.859375 0 
Q 23.734375 0.09375 18.609375 1.1875 
Q 13.484375 2.296875 8.296875 4.5 
L 8.296875 13.28125 
Q 13.28125 10.15625 18.375 8.5625 
Q 23.484375 6.984375 28.90625 6.9375 
L 28.90625 29.203125 
Q 18.109375 30.953125 13.203125 35.15625 
Q 8.296875 39.359375 8.296875 46.6875 
Q 8.296875 54.640625 13.625 59.21875 
Q 18.953125 63.8125 28.90625 64.5 
L 28.90625 75.984375 
L 33.796875 75.984375 
L 33.796875 64.65625 
Q 38.328125 64.453125 42.578125 63.6875 
Q 46.828125 62.9375 50.875 61.625 
L 50.875 53.078125 
Q 46.828125 55.125 42.546875 56.25 
Q 38.28125 57.375 33.796875 57.5625 
L 33.796875 36.71875 
Q 44.875 35.015625 50.09375 30.609375 
Q 55.328125 26.21875 55.328125 18.609375 
Q 55.328125 10.359375 49.78125 5.59375 
Q 44.234375 0.828125 33.796875 0.09375 
z
M 28.90625 37.59375 
L 28.90625 57.625 
Q 23.25 56.984375 20.265625 54.390625 
Q 17.28125 51.8125 17.28125 47.515625 
Q 17.28125 43.3125 20.03125 40.96875 
Q 22.796875 38.625 28.90625 37.59375 
z
M 33.796875 28.21875 
L 33.796875 7.078125 
Q 39.984375 7.90625 43.140625 10.59375 
Q 46.296875 13.28125 46.296875 17.671875 
Q 46.296875 21.96875 43.28125 24.5 
Q 40.28125 27.046875 33.796875 28.21875 
z
" id="DejaVuSans-36"/>
       <path d="M 8.015625 75.875 
L 15.828125 75.875 
Q 23.140625 64.359375 26.78125 53.3125 
Q 30.421875 42.28125 30.421875 31.390625 
Q 30.421875 20.453125 26.78125 9.375 
Q 23.140625 -1.703125 15.828125 -13.1875 
L 8.015625 -13.1875 
Q 14.5 -2 17.703125 9.0625 
Q 20.90625 20.125 20.90625 31.390625 
Q 20.90625 42.671875 17.703125 53.65625 
Q 14.5 64.65625 8.015625 75.875 
z
" id="DejaVuSans-41"/>
      </defs>
      <use xlink:href="#DejaVuSans-193"/>
      <use x="68.408203" xlink:href="#DejaVuSans-114"/>
      <use x="109.521484" xlink:href="#DejaVuSans-32"/>
      <use x="141.308594" xlink:href="#DejaVuSans-40"/>
      <use x="180.322266" xlink:href="#DejaVuSans-36"/>
      <use x="243.945312" xlink:href="#DejaVuSans-41"/>
     </g>
    </g>
   </g>
   <g id="line2d_13">
    <path clip-path="url(#pd20c7726f1)" d="M 73.832727 119.888281 
L 74.804747 116.746356 
L 75.776766 119.267054 
L 76.748786 112.18815 
L 77.720806 116.50095 
L 78.692825 114.148973 
L 79.664845 114.782981 
L 80.636864 111.257595 
L 82.580904 100.704428 
L 83.552923 99.620485 
L 84.524943 94.167496 
L 85.496962 83.552977 
L 86.468982 76.177526 
L 87.441002 79.224863 
L 88.413021 85.603284 
L 89.385041 87.275217 
L 90.35706 94.410367 
L 91.32908 90.654891 
L 92.3011 78.529504 
L 93.273119 82.717011 
L 94.245139 73.669627 
L 95.217158 72.900117 
L 96.189178 84.800555 
L 97.161198 78.041208 
L 98.133217 78.606188 
L 100.077256 74.988766 
L 101.049276 68.738171 
L 102.021296 73.585267 
L 102.993315 53.568 
L 103.965335 58.670729 
L 104.937354 66.831024 
L 105.909374 61.697609 
L 106.881394 54.552249 
L 107.853413 63.977988 
L 108.825433 70.486807 
L 109.797452 62.748334 
L 110.769472 68.935025 
L 111.741492 91.115073 
L 112.713511 92.112084 
L 113.685531 88.834675 
L 114.65755 89.41756 
L 115.62957 89.386875 
L 116.60159 85.864042 
L 117.573609 71.146377 
L 118.545629 82.003767 
L 119.517648 75.045013 
L 120.489668 72.076932 
L 121.461688 77.090196 
L 122.433707 73.915052 
L 123.405727 81.060412 
L 124.377746 80.751084 
L 125.349766 83.926228 
L 126.321786 92.597828 
L 127.293805 92.88927 
L 128.265825 89.269277 
L 129.237844 91.437182 
L 130.209864 92.983859 
L 131.181884 89.877723 
L 132.153903 93.569297 
L 133.125923 103.138195 
L 134.097942 108.816152 
L 135.069962 108.205153 
L 136.041981 108.179592 
L 137.014001 110.114853 
L 137.986021 117.574665 
L 138.95804 130.722662 
L 139.93006 131.116351 
L 140.902079 129.17088 
L 141.874099 117.90445 
L 142.846119 112.689227 
L 143.818138 108.22561 
L 144.790158 120.806056 
L 145.762177 113.514965 
L 146.734197 103.823345 
L 147.706217 112.666218 
L 148.678236 108.159135 
L 149.650256 116.661995 
L 150.622275 102.839095 
L 151.594295 110.240108 
L 152.566315 101.514833 
L 153.538334 108.499148 
L 154.510354 110.125082 
L 155.482373 109.171498 
L 156.454393 113.062478 
L 157.426413 110.690062 
L 158.398432 106.078162 
L 159.370452 109.611224 
L 160.342471 102.478626 
L 161.314491 84.542351 
L 162.286511 97.227613 
L 163.25853 53.792967 
L 164.23055 56.144926 
L 165.202569 62.132211 
L 166.174589 81.062964 
L 167.146609 88.619936 
L 168.118628 91.306803 
L 169.090648 86.487821 
L 170.062667 82.494596 
L 171.034687 84.066835 
L 172.006707 86.122247 
L 172.978726 75.765933 
L 173.950746 72.439954 
L 174.922765 71.956781 
L 175.894785 68.127173 
L 176.866805 65.629483 
L 177.838824 59.136016 
L 178.810844 74.784255 
L 179.782863 84.833793 
L 180.754883 98.787071 
L 181.726903 93.939976 
L 182.698922 97.915315 
L 183.670942 98.007352 
L 184.642961 95.2898 
L 185.614981 98.418945 
L 186.587001 94.41292 
L 187.55902 93.968109 
L 188.53104 90.731594 
L 189.503059 95.489206 
L 190.475079 97.915315 
L 191.447099 97.951105 
L 192.419118 95.632365 
L 193.391138 98.863756 
L 194.363157 93.901634 
L 195.335177 102.573214 
L 196.307197 103.309487 
L 197.279216 114.141316 
L 198.251236 112.438698 
L 199.223255 112.216283 
L 200.195275 115.133222 
L 201.167295 114.177106 
L 202.139314 115.920618 
L 203.111334 115.386322 
L 204.083353 115.232935 
L 205.055373 113.486851 
L 206.027392 107.908606 
L 206.999412 111.398202 
L 207.971432 111.446773 
L 208.943451 111.081198 
L 209.915471 114.98751 
L 210.88749 112.799149 
L 211.85951 113.141714 
L 212.83153 118.584476 
L 214.775569 117.947915 
L 215.747588 113.604449 
L 216.719608 111.22691 
L 217.691628 112.3211 
L 218.663647 114.427634 
L 219.635667 116.219736 
L 220.607686 116.649214 
L 221.579706 113.785951 
L 222.551726 113.635115 
L 223.523745 114.14642 
L 224.495765 129.224555 
L 225.467784 119.509926 
L 226.439804 127.365997 
L 227.411824 125.66338 
L 228.383843 121.769848 
L 229.355863 141.273267 
L 230.327882 141.971188 
L 231.299902 142.298411 
L 232.271922 141.623499 
L 233.243941 145.038963 
L 234.215961 142.185927 
L 235.18798 140.654592 
L 236.16 140.360597 
L 237.13202 140.488424 
L 238.104039 140.043594 
L 239.076059 138.243825 
L 240.048078 131.446135 
L 241.020098 131.602094 
L 241.992118 125.131637 
L 242.964137 128.792506 
L 243.936157 128.736278 
L 244.908176 133.887578 
L 245.880196 131.852623 
L 246.852216 139.376358 
L 247.824235 137.318394 
L 248.796255 129.464875 
L 249.768274 124.35445 
L 250.740294 125.479307 
L 251.712314 124.674026 
L 252.684333 123.170814 
L 254.628372 133.179438 
L 255.600392 132.159399 
L 256.572412 131.300423 
L 257.544431 132.133837 
L 258.516451 132.624686 
L 259.48847 132.512193 
L 260.46049 133.064392 
L 261.43251 119.167361 
L 262.404529 124.224072 
L 263.376549 115.537139 
L 264.348568 121.60368 
L 265.320588 120.706362 
L 266.292608 124.086036 
L 267.264627 120.057002 
L 268.236647 119.144352 
L 269.208666 112.039886 
L 270.180686 119.356538 
L 271.152705 115.813248 
L 272.124725 109.552425 
L 273.096745 90.181947 
L 274.068764 100.118991 
L 275.040784 101.131373 
L 276.012803 101.747477 
L 276.984823 94.418044 
L 277.956843 99.855681 
L 278.928862 100.476908 
L 279.900882 99.904252 
L 280.872901 109.693032 
L 281.844921 111.221805 
L 282.816941 111.730539 
L 283.78896 105.927327 
L 284.76098 109.55753 
L 285.732999 111.715206 
L 286.705019 107.716857 
L 287.677039 106.878339 
L 288.649058 105.628227 
L 289.621078 105.97845 
L 290.593097 103.227679 
L 291.565117 108.235839 
L 292.537137 108.36877 
L 294.481176 127.665097 
L 295.453195 142.998894 
L 296.425215 137.760653 
L 297.397235 136.421057 
L 298.369254 136.236984 
L 299.341274 139.562983 
L 300.313293 139.384015 
L 301.285313 136.369934 
L 302.257333 138.266834 
L 303.229352 138.144132 
L 304.201372 138.696331 
L 306.145411 137.239138 
L 307.117431 129.692395 
L 308.08945 131.10357 
L 309.06147 136.35203 
L 310.033489 136.188414 
L 311.977529 137.916593 
L 312.949548 137.885927 
L 313.921568 135.822839 
L 314.893587 136.791755 
L 315.865607 136.878668 
L 316.837627 136.699719 
L 317.809646 137.323498 
L 318.781666 142.635872 
L 319.753685 144.847223 
L 320.725705 143.597112 
L 321.697725 142.756022 
L 322.669744 140.731286 
L 323.641764 139.501613 
L 324.613783 140.536994 
L 325.585803 142.150137 
L 326.557823 140.874455 
L 327.529842 139.102801 
L 328.501862 139.304778 
L 329.473881 142.587301 
L 330.445901 142.114348 
L 331.417921 142.175699 
L 332.38994 144.128855 
L 333.36196 143.576655 
L 334.333979 144.496991 
L 335.305999 144.739854 
L 336.278019 142.234498 
L 337.250038 140.4603 
L 338.222058 140.554889 
L 339.194077 137.86547 
L 340.166097 140.761971 
L 341.138116 142.485036 
L 342.110136 142.224279 
L 343.082156 143.668692 
L 344.054175 142.382781 
L 345.026195 142.308639 
L 345.998214 143.451391 
L 346.970234 149.149786 
L 347.942254 148.520892 
L 348.914273 149.939743 
L 349.886293 150.343527 
L 350.858312 82.426331 
L 353.774371 82.340599 
L 356.69043 82.009347 
L 358.634469 81.575641 
L 359.606489 81.304198 
L 360.578508 295.488 
L 369.326685 295.488 
L 370.298704 107.778075 
L 375.158802 107.9987 
L 378.074861 108.341875 
L 379.046881 108.513148 
L 380.0189 62.067774 
L 387.795057 62.047222 
L 388.767077 62.144973 
L 389.739096 87.420624 
L 395.571214 83.792078 
L 396.543234 83.346391 
L 397.515253 83.028053 
L 398.487273 82.885313 
L 398.487273 82.885313 
" style="fill:none;stroke:#008000;stroke-linecap:square;stroke-width:1.5;"/>
   </g>
   <g id="line2d_14">
    <path clip-path="url(#pd20c7726f1)" d="M 73.832727 119.888281 
L 74.804747 116.746356 
L 75.776766 119.267054 
L 76.748786 112.18815 
L 77.720806 116.50095 
L 78.692825 114.148973 
L 79.664845 114.782981 
L 80.636864 111.257595 
L 82.580904 100.704428 
L 83.552923 99.620485 
L 84.524943 94.167496 
L 85.496962 83.552977 
L 86.468982 76.177526 
L 87.441002 79.224863 
L 88.413021 85.603284 
L 89.385041 87.275217 
L 90.35706 94.410367 
L 91.32908 90.654891 
L 92.3011 78.529504 
L 93.273119 82.717011 
L 94.245139 73.669627 
L 95.217158 72.900117 
L 96.189178 84.800555 
L 97.161198 78.041208 
L 98.133217 78.606188 
L 100.077256 74.988766 
L 101.049276 68.738171 
L 102.021296 73.585267 
L 102.993315 53.568 
L 103.965335 58.670729 
L 104.937354 66.831024 
L 105.909374 61.697609 
L 106.881394 54.552249 
L 107.853413 63.977988 
L 108.825433 70.486807 
L 109.797452 62.748334 
L 110.769472 68.935025 
L 111.741492 91.115073 
L 112.713511 92.112084 
L 113.685531 88.834675 
L 114.65755 89.41756 
L 115.62957 89.386875 
L 116.60159 85.864042 
L 117.573609 71.146377 
L 118.545629 82.003767 
L 119.517648 75.045013 
L 120.489668 72.076932 
L 121.461688 77.090196 
L 122.433707 73.915052 
L 123.405727 81.060412 
L 124.377746 80.751084 
L 125.349766 83.926228 
L 126.321786 92.597828 
L 127.293805 92.88927 
L 128.265825 89.269277 
L 129.237844 91.437182 
L 130.209864 92.983859 
L 131.181884 89.877723 
L 132.153903 93.569297 
L 133.125923 103.138195 
L 134.097942 108.816152 
L 135.069962 108.205153 
L 136.041981 108.179592 
L 137.014001 110.114853 
L 137.986021 117.574665 
L 138.95804 130.722662 
L 139.93006 131.116351 
L 140.902079 129.17088 
L 141.874099 117.90445 
L 142.846119 112.689227 
L 143.818138 108.22561 
L 144.790158 120.806056 
L 145.762177 113.514965 
L 146.734197 103.823345 
L 147.706217 112.666218 
L 148.678236 108.159135 
L 149.650256 116.661995 
L 150.622275 102.839095 
L 151.594295 110.240108 
L 152.566315 101.514833 
L 153.538334 108.499148 
L 154.510354 110.125082 
L 155.482373 109.171498 
L 156.454393 113.062478 
L 157.426413 110.690062 
L 158.398432 106.078162 
L 159.370452 109.611224 
L 160.342471 102.478626 
L 161.314491 84.542351 
L 162.286511 97.227613 
L 163.25853 53.792967 
L 164.23055 56.144926 
L 165.202569 62.132211 
L 166.174589 81.062964 
L 167.146609 88.619936 
L 168.118628 91.306803 
L 169.090648 86.487821 
L 170.062667 82.494596 
L 171.034687 84.066835 
L 172.006707 86.122247 
L 172.978726 75.765933 
L 173.950746 72.439954 
L 174.922765 71.956781 
L 175.894785 68.127173 
L 176.866805 65.629483 
L 177.838824 59.136016 
L 178.810844 74.784255 
L 179.782863 84.833793 
L 180.754883 98.787071 
L 181.726903 93.939976 
L 182.698922 97.915315 
L 183.670942 98.007352 
L 184.642961 95.2898 
L 185.614981 98.418945 
L 186.587001 94.41292 
L 187.55902 93.968109 
L 188.53104 90.731594 
L 189.503059 95.489206 
L 190.475079 97.915315 
L 191.447099 97.951105 
L 192.419118 95.632365 
L 193.391138 98.863756 
L 194.363157 93.901634 
L 195.335177 102.573214 
L 196.307197 103.309487 
L 197.279216 114.141316 
L 198.251236 112.438698 
L 199.223255 112.216283 
L 200.195275 115.133222 
L 201.167295 114.177106 
L 202.139314 115.920618 
L 203.111334 115.386322 
L 204.083353 115.232935 
L 205.055373 113.486851 
L 206.027392 107.908606 
L 206.999412 111.398202 
L 207.971432 111.446773 
L 208.943451 111.081198 
L 209.915471 114.98751 
L 210.88749 112.799149 
L 211.85951 113.141714 
L 212.83153 118.584476 
L 214.775569 117.947915 
L 215.747588 113.604449 
L 216.719608 111.22691 
L 217.691628 112.3211 
L 218.663647 114.427634 
L 219.635667 116.219736 
L 220.607686 116.649214 
L 221.579706 113.785951 
L 222.551726 113.635115 
L 223.523745 114.14642 
L 224.495765 129.224555 
L 225.467784 119.509926 
L 226.439804 127.365997 
L 227.411824 125.66338 
L 228.383843 121.769848 
L 229.355863 141.273267 
L 230.327882 141.971188 
L 231.299902 142.298411 
L 232.271922 141.623499 
L 233.243941 145.038963 
L 234.215961 142.185927 
L 235.18798 140.654592 
L 236.16 140.360597 
L 237.13202 140.488424 
L 238.104039 140.043594 
L 239.076059 138.243825 
L 240.048078 131.446135 
L 241.020098 131.602094 
L 241.992118 125.131637 
L 242.964137 128.792506 
L 243.936157 128.736278 
L 244.908176 133.887578 
L 245.880196 131.852623 
L 246.852216 139.376358 
L 247.824235 137.318394 
L 248.796255 129.464875 
L 249.768274 124.35445 
L 250.740294 125.479307 
L 251.712314 124.674026 
L 252.684333 123.170814 
L 254.628372 133.179438 
L 255.600392 132.159399 
L 256.572412 131.300423 
L 257.544431 132.133837 
L 258.516451 132.624686 
L 259.48847 132.512193 
L 260.46049 133.064392 
L 261.43251 119.167361 
L 262.404529 124.224072 
L 263.376549 115.537139 
L 264.348568 121.60368 
L 265.320588 120.706362 
L 266.292608 124.086036 
L 267.264627 120.057002 
L 268.236647 119.144352 
L 269.208666 112.039886 
L 270.180686 119.356538 
L 271.152705 115.813248 
L 272.124725 109.552425 
L 273.096745 90.181947 
L 274.068764 100.118991 
L 275.040784 101.131373 
L 276.012803 101.747477 
L 276.984823 94.418044 
L 277.956843 99.855681 
L 278.928862 100.476908 
L 279.900882 99.904252 
L 280.872901 109.693032 
L 281.844921 111.221805 
L 282.816941 111.730539 
L 283.78896 105.927327 
L 284.76098 109.55753 
L 285.732999 111.715206 
L 286.705019 107.716857 
L 287.677039 106.878339 
L 288.649058 105.628227 
L 289.621078 105.97845 
L 290.593097 103.227679 
L 291.565117 108.235839 
L 292.537137 108.36877 
L 294.481176 127.665097 
L 295.453195 142.998894 
L 296.425215 137.760653 
L 297.397235 136.421057 
L 298.369254 136.236984 
L 299.341274 139.562983 
L 300.313293 139.384015 
L 301.285313 136.369934 
L 302.257333 138.266834 
L 303.229352 138.144132 
L 304.201372 138.696331 
L 306.145411 137.239138 
L 307.117431 129.692395 
L 308.08945 131.10357 
L 309.06147 136.35203 
L 310.033489 136.188414 
L 311.977529 137.916593 
L 312.949548 137.885927 
L 313.921568 135.822839 
L 314.893587 136.791755 
L 315.865607 136.878668 
L 316.837627 136.699719 
L 317.809646 137.323498 
L 318.781666 142.635872 
L 319.753685 144.847223 
L 320.725705 143.597112 
L 321.697725 142.756022 
L 322.669744 140.731286 
L 323.641764 139.501613 
L 324.613783 140.536994 
L 325.585803 142.150137 
L 326.557823 140.874455 
L 327.529842 139.102801 
L 328.501862 139.304778 
L 329.473881 142.587301 
L 330.445901 142.114348 
L 331.417921 142.175699 
L 332.38994 144.128855 
L 333.36196 143.576655 
L 334.333979 144.496991 
L 335.305999 144.739854 
L 336.278019 142.234498 
L 337.250038 140.4603 
L 338.222058 140.554889 
L 339.194077 137.86547 
L 340.166097 140.761971 
L 341.138116 142.485036 
L 342.110136 142.224279 
L 343.082156 143.668692 
L 344.054175 142.382781 
L 345.026195 142.308639 
L 345.998214 143.451391 
L 346.970234 149.149786 
L 347.942254 148.520892 
L 348.914273 149.939743 
L 349.886293 150.343527 
L 349.886293 150.343527 
" style="fill:none;stroke:#000000;stroke-linecap:square;stroke-width:1.5;"/>
   </g>
   <g id="patch_3">
    <path d="M 57.6 307.584 
L 57.6 41.472 
" style="fill:none;stroke:#000000;stroke-linecap:square;stroke-linejoin:miter;stroke-width:0.8;"/>
   </g>
   <g id="patch_4">
    <path d="M 414.72 307.584 
L 414.72 41.472 
" style="fill:none;stroke:#000000;stroke-linecap:square;stroke-linejoin:miter;stroke-width:0.8;"/>
   </g>
   <g id="patch_5">
    <path d="M 57.6 307.584 
L 414.72 307.584 
" style="fill:none;stroke:#000000;stroke-linecap:square;stroke-linejoin:miter;stroke-width:0.8;"/>
   </g>
   <g id="patch_6">
    <path d="M 57.6 41.472 
L 414.72 41.472 
" style="fill:none;stroke:#000000;stroke-linecap:square;stroke-linejoin:miter;stroke-width:0.8;"/>
   </g>
   <g id="text_14">
    <!-- DOGE záró árfolyam előrejelzés LSTM-GRU hibrid modellel -->
    <g transform="translate(60.879375 35.472)scale(0.12 -0.12)">
     <defs>
      <path d="M 19.671875 64.796875 
L 19.671875 8.109375 
L 31.59375 8.109375 
Q 46.6875 8.109375 53.6875 14.9375 
Q 60.6875 21.78125 60.6875 36.53125 
Q 60.6875 51.171875 53.6875 57.984375 
Q 46.6875 64.796875 31.59375 64.796875 
z
M 9.8125 72.90625 
L 30.078125 72.90625 
Q 51.265625 72.90625 61.171875 64.09375 
Q 71.09375 55.28125 71.09375 36.53125 
Q 71.09375 17.671875 61.125 8.828125 
Q 51.171875 0 30.078125 0 
L 9.8125 0 
z
" id="DejaVuSans-68"/>
      <path d="M 39.40625 66.21875 
Q 28.65625 66.21875 22.328125 58.203125 
Q 16.015625 50.203125 16.015625 36.375 
Q 16.015625 22.609375 22.328125 14.59375 
Q 28.65625 6.59375 39.40625 6.59375 
Q 50.140625 6.59375 56.421875 14.59375 
Q 62.703125 22.609375 62.703125 36.375 
Q 62.703125 50.203125 56.421875 58.203125 
Q 50.140625 66.21875 39.40625 66.21875 
z
M 39.40625 74.21875 
Q 54.734375 74.21875 63.90625 63.9375 
Q 73.09375 53.65625 73.09375 36.375 
Q 73.09375 19.140625 63.90625 8.859375 
Q 54.734375 -1.421875 39.40625 -1.421875 
Q 24.03125 -1.421875 14.8125 8.828125 
Q 5.609375 19.09375 5.609375 36.375 
Q 5.609375 53.65625 14.8125 63.9375 
Q 24.03125 74.21875 39.40625 74.21875 
z
" id="DejaVuSans-79"/>
      <path d="M 59.515625 10.40625 
L 59.515625 29.984375 
L 43.40625 29.984375 
L 43.40625 38.09375 
L 69.28125 38.09375 
L 69.28125 6.78125 
Q 63.578125 2.734375 56.6875 0.65625 
Q 49.8125 -1.421875 42 -1.421875 
Q 24.90625 -1.421875 15.25 8.5625 
Q 5.609375 18.5625 5.609375 36.375 
Q 5.609375 54.25 15.25 64.234375 
Q 24.90625 74.21875 42 74.21875 
Q 49.125 74.21875 55.546875 72.453125 
Q 61.96875 70.703125 67.390625 67.28125 
L 67.390625 56.78125 
Q 61.921875 61.421875 55.765625 63.765625 
Q 49.609375 66.109375 42.828125 66.109375 
Q 29.4375 66.109375 22.71875 58.640625 
Q 16.015625 51.171875 16.015625 36.375 
Q 16.015625 21.625 22.71875 14.15625 
Q 29.4375 6.6875 42.828125 6.6875 
Q 48.046875 6.6875 52.140625 7.59375 
Q 56.25 8.5 59.515625 10.40625 
z
" id="DejaVuSans-71"/>
      <path d="M 9.8125 72.90625 
L 55.90625 72.90625 
L 55.90625 64.59375 
L 19.671875 64.59375 
L 19.671875 43.015625 
L 54.390625 43.015625 
L 54.390625 34.71875 
L 19.671875 34.71875 
L 19.671875 8.296875 
L 56.78125 8.296875 
L 56.78125 0 
L 9.8125 0 
z
" id="DejaVuSans-69"/>
      <path d="M 5.515625 54.6875 
L 48.1875 54.6875 
L 48.1875 46.484375 
L 14.40625 7.171875 
L 48.1875 7.171875 
L 48.1875 0 
L 4.296875 0 
L 4.296875 8.203125 
L 38.09375 47.515625 
L 5.515625 47.515625 
z
" id="DejaVuSans-122"/>
      <path d="M 34.28125 27.484375 
Q 23.390625 27.484375 19.1875 25 
Q 14.984375 22.515625 14.984375 16.5 
Q 14.984375 11.71875 18.140625 8.90625 
Q 21.296875 6.109375 26.703125 6.109375 
Q 34.1875 6.109375 38.703125 11.40625 
Q 43.21875 16.703125 43.21875 25.484375 
L 43.21875 27.484375 
z
M 52.203125 31.203125 
L 52.203125 0 
L 43.21875 0 
L 43.21875 8.296875 
Q 40.140625 3.328125 35.546875 0.953125 
Q 30.953125 -1.421875 24.3125 -1.421875 
Q 15.921875 -1.421875 10.953125 3.296875 
Q 6 8.015625 6 15.921875 
Q 6 25.140625 12.171875 29.828125 
Q 18.359375 34.515625 30.609375 34.515625 
L 43.21875 34.515625 
L 43.21875 35.40625 
Q 43.21875 41.609375 39.140625 45 
Q 35.0625 48.390625 27.6875 48.390625 
Q 23 48.390625 18.546875 47.265625 
Q 14.109375 46.140625 10.015625 43.890625 
L 10.015625 52.203125 
Q 14.9375 54.109375 19.578125 55.046875 
Q 24.21875 56 28.609375 56 
Q 40.484375 56 46.34375 49.84375 
Q 52.203125 43.703125 52.203125 31.203125 
z
M 35.78125 79.984375 
L 45.5 79.984375 
L 29.59375 61.625 
L 22.109375 61.625 
z
" id="DejaVuSans-225"/>
      <path d="M 30.609375 48.390625 
Q 23.390625 48.390625 19.1875 42.75 
Q 14.984375 37.109375 14.984375 27.296875 
Q 14.984375 17.484375 19.15625 11.84375 
Q 23.34375 6.203125 30.609375 6.203125 
Q 37.796875 6.203125 41.984375 11.859375 
Q 46.1875 17.53125 46.1875 27.296875 
Q 46.1875 37.015625 41.984375 42.703125 
Q 37.796875 48.390625 30.609375 48.390625 
z
M 30.609375 56 
Q 42.328125 56 49.015625 48.375 
Q 55.71875 40.765625 55.71875 27.296875 
Q 55.71875 13.875 49.015625 6.21875 
Q 42.328125 -1.421875 30.609375 -1.421875 
Q 18.84375 -1.421875 12.171875 6.21875 
Q 5.515625 13.875 5.515625 27.296875 
Q 5.515625 40.765625 12.171875 48.375 
Q 18.84375 56 30.609375 56 
z
M 37.40625 79.984375 
L 47.125 79.984375 
L 31.21875 61.625 
L 23.734375 61.625 
z
" id="DejaVuSans-243"/>
      <path d="M 37.109375 75.984375 
L 37.109375 68.5 
L 28.515625 68.5 
Q 23.6875 68.5 21.796875 66.546875 
Q 19.921875 64.59375 19.921875 59.515625 
L 19.921875 54.6875 
L 34.71875 54.6875 
L 34.71875 47.703125 
L 19.921875 47.703125 
L 19.921875 0 
L 10.890625 0 
L 10.890625 47.703125 
L 2.296875 47.703125 
L 2.296875 54.6875 
L 10.890625 54.6875 
L 10.890625 58.5 
Q 10.890625 67.625 15.140625 71.796875 
Q 19.390625 75.984375 28.609375 75.984375 
z
" id="DejaVuSans-102"/>
      <path d="M 30.609375 48.390625 
Q 23.390625 48.390625 19.1875 42.75 
Q 14.984375 37.109375 14.984375 27.296875 
Q 14.984375 17.484375 19.15625 11.84375 
Q 23.34375 6.203125 30.609375 6.203125 
Q 37.796875 6.203125 41.984375 11.859375 
Q 46.1875 17.53125 46.1875 27.296875 
Q 46.1875 37.015625 41.984375 42.703125 
Q 37.796875 48.390625 30.609375 48.390625 
z
M 30.609375 56 
Q 42.328125 56 49.015625 48.375 
Q 55.71875 40.765625 55.71875 27.296875 
Q 55.71875 13.875 49.015625 6.21875 
Q 42.328125 -1.421875 30.609375 -1.421875 
Q 18.84375 -1.421875 12.171875 6.21875 
Q 5.515625 13.875 5.515625 27.296875 
Q 5.515625 40.765625 12.171875 48.375 
Q 18.84375 56 30.609375 56 
z
" id="DejaVuSans-111"/>
      <path d="M 9.421875 75.984375 
L 18.40625 75.984375 
L 18.40625 0 
L 9.421875 0 
z
" id="DejaVuSans-108"/>
      <path d="M 32.171875 -5.078125 
Q 28.375 -14.84375 24.75 -17.8125 
Q 21.140625 -20.796875 15.09375 -20.796875 
L 7.90625 -20.796875 
L 7.90625 -13.28125 
L 13.1875 -13.28125 
Q 16.890625 -13.28125 18.9375 -11.515625 
Q 21 -9.765625 23.484375 -3.21875 
L 25.09375 0.875 
L 2.984375 54.6875 
L 12.5 54.6875 
L 29.59375 11.921875 
L 46.6875 54.6875 
L 56.203125 54.6875 
z
" id="DejaVuSans-121"/>
      <path d="M 34.28125 27.484375 
Q 23.390625 27.484375 19.1875 25 
Q 14.984375 22.515625 14.984375 16.5 
Q 14.984375 11.71875 18.140625 8.90625 
Q 21.296875 6.109375 26.703125 6.109375 
Q 34.1875 6.109375 38.703125 11.40625 
Q 43.21875 16.703125 43.21875 25.484375 
L 43.21875 27.484375 
z
M 52.203125 31.203125 
L 52.203125 0 
L 43.21875 0 
L 43.21875 8.296875 
Q 40.140625 3.328125 35.546875 0.953125 
Q 30.953125 -1.421875 24.3125 -1.421875 
Q 15.921875 -1.421875 10.953125 3.296875 
Q 6 8.015625 6 15.921875 
Q 6 25.140625 12.171875 29.828125 
Q 18.359375 34.515625 30.609375 34.515625 
L 43.21875 34.515625 
L 43.21875 35.40625 
Q 43.21875 41.609375 39.140625 45 
Q 35.0625 48.390625 27.6875 48.390625 
Q 23 48.390625 18.546875 47.265625 
Q 14.109375 46.140625 10.015625 43.890625 
L 10.015625 52.203125 
Q 14.9375 54.109375 19.578125 55.046875 
Q 24.21875 56 28.609375 56 
Q 40.484375 56 46.34375 49.84375 
Q 52.203125 43.703125 52.203125 31.203125 
z
" id="DejaVuSans-97"/>
      <path d="M 52 44.1875 
Q 55.375 50.25 60.0625 53.125 
Q 64.75 56 71.09375 56 
Q 79.640625 56 84.28125 50.015625 
Q 88.921875 44.046875 88.921875 33.015625 
L 88.921875 0 
L 79.890625 0 
L 79.890625 32.71875 
Q 79.890625 40.578125 77.09375 44.375 
Q 74.3125 48.1875 68.609375 48.1875 
Q 61.625 48.1875 57.5625 43.546875 
Q 53.515625 38.921875 53.515625 30.90625 
L 53.515625 0 
L 44.484375 0 
L 44.484375 32.71875 
Q 44.484375 40.625 41.703125 44.40625 
Q 38.921875 48.1875 33.109375 48.1875 
Q 26.21875 48.1875 22.15625 43.53125 
Q 18.109375 38.875 18.109375 30.90625 
L 18.109375 0 
L 9.078125 0 
L 9.078125 54.6875 
L 18.109375 54.6875 
L 18.109375 46.1875 
Q 21.1875 51.21875 25.484375 53.609375 
Q 29.78125 56 35.6875 56 
Q 41.65625 56 45.828125 52.96875 
Q 50 49.953125 52 44.1875 
z
" id="DejaVuSans-109"/>
      <path d="M 56.203125 29.59375 
L 56.203125 25.203125 
L 14.890625 25.203125 
Q 15.484375 15.921875 20.484375 11.0625 
Q 25.484375 6.203125 34.421875 6.203125 
Q 39.59375 6.203125 44.453125 7.46875 
Q 49.3125 8.734375 54.109375 11.28125 
L 54.109375 2.78125 
Q 49.265625 0.734375 44.1875 -0.34375 
Q 39.109375 -1.421875 33.890625 -1.421875 
Q 20.796875 -1.421875 13.15625 6.1875 
Q 5.515625 13.8125 5.515625 26.8125 
Q 5.515625 40.234375 12.765625 48.109375 
Q 20.015625 56 32.328125 56 
Q 43.359375 56 49.78125 48.890625 
Q 56.203125 41.796875 56.203125 29.59375 
z
M 47.21875 32.234375 
Q 47.125 39.59375 43.09375 43.984375 
Q 39.0625 48.390625 32.421875 48.390625 
Q 24.90625 48.390625 20.390625 44.140625 
Q 15.875 39.890625 15.1875 32.171875 
z
" id="DejaVuSans-101"/>
      <path d="M 45.1875 79.984375 
L 53.875 79.984375 
L 41.765625 61.625 
L 35.171875 61.625 
z
M 28.875 79.984375 
L 37.171875 79.984375 
L 26.28125 61.625 
L 19.59375 61.625 
z
M 30.609375 48.390625 
Q 23.390625 48.390625 19.1875 42.75 
Q 14.984375 37.109375 14.984375 27.296875 
Q 14.984375 17.484375 19.15625 11.84375 
Q 23.34375 6.203125 30.609375 6.203125 
Q 37.796875 6.203125 41.984375 11.859375 
Q 46.1875 17.53125 46.1875 27.296875 
Q 46.1875 37.015625 41.984375 42.703125 
Q 37.796875 48.390625 30.609375 48.390625 
z
M 30.609375 56 
Q 42.328125 56 49.015625 48.375 
Q 55.71875 40.765625 55.71875 27.296875 
Q 55.71875 13.875 49.015625 6.21875 
Q 42.328125 -1.421875 30.609375 -1.421875 
Q 18.84375 -1.421875 12.171875 6.21875 
Q 5.515625 13.875 5.515625 27.296875 
Q 5.515625 40.765625 12.171875 48.375 
Q 18.84375 56 30.609375 56 
z
" id="DejaVuSans-337"/>
      <path d="M 9.421875 54.6875 
L 18.40625 54.6875 
L 18.40625 -0.984375 
Q 18.40625 -11.421875 14.421875 -16.109375 
Q 10.453125 -20.796875 1.609375 -20.796875 
L -1.8125 -20.796875 
L -1.8125 -13.1875 
L 0.59375 -13.1875 
Q 5.71875 -13.1875 7.5625 -10.8125 
Q 9.421875 -8.453125 9.421875 -0.984375 
z
M 9.421875 75.984375 
L 18.40625 75.984375 
L 18.40625 64.59375 
L 9.421875 64.59375 
z
" id="DejaVuSans-106"/>
      <path d="M 56.203125 29.59375 
L 56.203125 25.203125 
L 14.890625 25.203125 
Q 15.484375 15.921875 20.484375 11.0625 
Q 25.484375 6.203125 34.421875 6.203125 
Q 39.59375 6.203125 44.453125 7.46875 
Q 49.3125 8.734375 54.109375 11.28125 
L 54.109375 2.78125 
Q 49.265625 0.734375 44.1875 -0.34375 
Q 39.109375 -1.421875 33.890625 -1.421875 
Q 20.796875 -1.421875 13.15625 6.1875 
Q 5.515625 13.8125 5.515625 26.8125 
Q 5.515625 40.234375 12.765625 48.109375 
Q 20.015625 56 32.328125 56 
Q 43.359375 56 49.78125 48.890625 
Q 56.203125 41.796875 56.203125 29.59375 
z
M 47.21875 32.234375 
Q 47.125 39.59375 43.09375 43.984375 
Q 39.0625 48.390625 32.421875 48.390625 
Q 24.90625 48.390625 20.390625 44.140625 
Q 15.875 39.890625 15.1875 32.171875 
z
M 38.53125 79.984375 
L 48.25 79.984375 
L 32.34375 61.625 
L 24.859375 61.625 
z
" id="DejaVuSans-233"/>
      <path d="M 44.28125 53.078125 
L 44.28125 44.578125 
Q 40.484375 46.53125 36.375 47.5 
Q 32.28125 48.484375 27.875 48.484375 
Q 21.1875 48.484375 17.84375 46.4375 
Q 14.5 44.390625 14.5 40.28125 
Q 14.5 37.15625 16.890625 35.375 
Q 19.28125 33.59375 26.515625 31.984375 
L 29.59375 31.296875 
Q 39.15625 29.25 43.1875 25.515625 
Q 47.21875 21.78125 47.21875 15.09375 
Q 47.21875 7.46875 41.1875 3.015625 
Q 35.15625 -1.421875 24.609375 -1.421875 
Q 20.21875 -1.421875 15.453125 -0.5625 
Q 10.6875 0.296875 5.421875 2 
L 5.421875 11.28125 
Q 10.40625 8.6875 15.234375 7.390625 
Q 20.0625 6.109375 24.8125 6.109375 
Q 31.15625 6.109375 34.5625 8.28125 
Q 37.984375 10.453125 37.984375 14.40625 
Q 37.984375 18.0625 35.515625 20.015625 
Q 33.0625 21.96875 24.703125 23.78125 
L 21.578125 24.515625 
Q 13.234375 26.265625 9.515625 29.90625 
Q 5.8125 33.546875 5.8125 39.890625 
Q 5.8125 47.609375 11.28125 51.796875 
Q 16.75 56 26.8125 56 
Q 31.78125 56 36.171875 55.265625 
Q 40.578125 54.546875 44.28125 53.078125 
z
" id="DejaVuSans-115"/>
      <path d="M 9.8125 72.90625 
L 19.671875 72.90625 
L 19.671875 8.296875 
L 55.171875 8.296875 
L 55.171875 0 
L 9.8125 0 
z
" id="DejaVuSans-76"/>
      <path d="M 53.515625 70.515625 
L 53.515625 60.890625 
Q 47.90625 63.578125 42.921875 64.890625 
Q 37.9375 66.21875 33.296875 66.21875 
Q 25.25 66.21875 20.875 63.09375 
Q 16.5 59.96875 16.5 54.203125 
Q 16.5 49.359375 19.40625 46.890625 
Q 22.3125 44.4375 30.421875 42.921875 
L 36.375 41.703125 
Q 47.40625 39.59375 52.65625 34.296875 
Q 57.90625 29 57.90625 20.125 
Q 57.90625 9.515625 50.796875 4.046875 
Q 43.703125 -1.421875 29.984375 -1.421875 
Q 24.8125 -1.421875 18.96875 -0.25 
Q 13.140625 0.921875 6.890625 3.21875 
L 6.890625 13.375 
Q 12.890625 10.015625 18.65625 8.296875 
Q 24.421875 6.59375 29.984375 6.59375 
Q 38.421875 6.59375 43.015625 9.90625 
Q 47.609375 13.234375 47.609375 19.390625 
Q 47.609375 24.75 44.3125 27.78125 
Q 41.015625 30.8125 33.5 32.328125 
L 27.484375 33.5 
Q 16.453125 35.6875 11.515625 40.375 
Q 6.59375 45.0625 6.59375 53.421875 
Q 6.59375 63.09375 13.40625 68.65625 
Q 20.21875 74.21875 32.171875 74.21875 
Q 37.3125 74.21875 42.625 73.28125 
Q 47.953125 72.359375 53.515625 70.515625 
z
" id="DejaVuSans-83"/>
      <path d="M -0.296875 72.90625 
L 61.375 72.90625 
L 61.375 64.59375 
L 35.5 64.59375 
L 35.5 0 
L 25.59375 0 
L 25.59375 64.59375 
L -0.296875 64.59375 
z
" id="DejaVuSans-84"/>
      <path d="M 9.8125 72.90625 
L 24.515625 72.90625 
L 43.109375 23.296875 
L 61.8125 72.90625 
L 76.515625 72.90625 
L 76.515625 0 
L 66.890625 0 
L 66.890625 64.015625 
L 48.09375 14.015625 
L 38.1875 14.015625 
L 19.390625 64.015625 
L 19.390625 0 
L 9.8125 0 
z
" id="DejaVuSans-77"/>
      <path d="M 44.390625 34.1875 
Q 47.5625 33.109375 50.5625 29.59375 
Q 53.5625 26.078125 56.59375 19.921875 
L 66.609375 0 
L 56 0 
L 46.6875 18.703125 
Q 43.0625 26.03125 39.671875 28.421875 
Q 36.28125 30.8125 30.421875 30.8125 
L 19.671875 30.8125 
L 19.671875 0 
L 9.8125 0 
L 9.8125 72.90625 
L 32.078125 72.90625 
Q 44.578125 72.90625 50.734375 67.671875 
Q 56.890625 62.453125 56.890625 51.90625 
Q 56.890625 45.015625 53.6875 40.46875 
Q 50.484375 35.9375 44.390625 34.1875 
z
M 19.671875 64.796875 
L 19.671875 38.921875 
L 32.078125 38.921875 
Q 39.203125 38.921875 42.84375 42.21875 
Q 46.484375 45.515625 46.484375 51.90625 
Q 46.484375 58.296875 42.84375 61.546875 
Q 39.203125 64.796875 32.078125 64.796875 
z
" id="DejaVuSans-82"/>
      <path d="M 8.6875 72.90625 
L 18.609375 72.90625 
L 18.609375 28.609375 
Q 18.609375 16.890625 22.84375 11.734375 
Q 27.09375 6.59375 36.625 6.59375 
Q 46.09375 6.59375 50.34375 11.734375 
Q 54.59375 16.890625 54.59375 28.609375 
L 54.59375 72.90625 
L 64.5 72.90625 
L 64.5 27.390625 
Q 64.5 13.140625 57.4375 5.859375 
Q 50.390625 -1.421875 36.625 -1.421875 
Q 22.796875 -1.421875 15.734375 5.859375 
Q 8.6875 13.140625 8.6875 27.390625 
z
" id="DejaVuSans-85"/>
      <path d="M 54.890625 33.015625 
L 54.890625 0 
L 45.90625 0 
L 45.90625 32.71875 
Q 45.90625 40.484375 42.875 44.328125 
Q 39.84375 48.1875 33.796875 48.1875 
Q 26.515625 48.1875 22.3125 43.546875 
Q 18.109375 38.921875 18.109375 30.90625 
L 18.109375 0 
L 9.078125 0 
L 9.078125 75.984375 
L 18.109375 75.984375 
L 18.109375 46.1875 
Q 21.34375 51.125 25.703125 53.5625 
Q 30.078125 56 35.796875 56 
Q 45.21875 56 50.046875 50.171875 
Q 54.890625 44.34375 54.890625 33.015625 
z
" id="DejaVuSans-104"/>
      <path d="M 9.421875 54.6875 
L 18.40625 54.6875 
L 18.40625 0 
L 9.421875 0 
z
M 9.421875 75.984375 
L 18.40625 75.984375 
L 18.40625 64.59375 
L 9.421875 64.59375 
z
" id="DejaVuSans-105"/>
      <path d="M 48.6875 27.296875 
Q 48.6875 37.203125 44.609375 42.84375 
Q 40.53125 48.484375 33.40625 48.484375 
Q 26.265625 48.484375 22.1875 42.84375 
Q 18.109375 37.203125 18.109375 27.296875 
Q 18.109375 17.390625 22.1875 11.75 
Q 26.265625 6.109375 33.40625 6.109375 
Q 40.53125 6.109375 44.609375 11.75 
Q 48.6875 17.390625 48.6875 27.296875 
z
M 18.109375 46.390625 
Q 20.953125 51.265625 25.265625 53.625 
Q 29.59375 56 35.59375 56 
Q 45.5625 56 51.78125 48.09375 
Q 58.015625 40.1875 58.015625 27.296875 
Q 58.015625 14.40625 51.78125 6.484375 
Q 45.5625 -1.421875 35.59375 -1.421875 
Q 29.59375 -1.421875 25.265625 0.953125 
Q 20.953125 3.328125 18.109375 8.203125 
L 18.109375 0 
L 9.078125 0 
L 9.078125 75.984375 
L 18.109375 75.984375 
z
" id="DejaVuSans-98"/>
      <path d="M 45.40625 46.390625 
L 45.40625 75.984375 
L 54.390625 75.984375 
L 54.390625 0 
L 45.40625 0 
L 45.40625 8.203125 
Q 42.578125 3.328125 38.25 0.953125 
Q 33.9375 -1.421875 27.875 -1.421875 
Q 17.96875 -1.421875 11.734375 6.484375 
Q 5.515625 14.40625 5.515625 27.296875 
Q 5.515625 40.1875 11.734375 48.09375 
Q 17.96875 56 27.875 56 
Q 33.9375 56 38.25 53.625 
Q 42.578125 51.265625 45.40625 46.390625 
z
M 14.796875 27.296875 
Q 14.796875 17.390625 18.875 11.75 
Q 22.953125 6.109375 30.078125 6.109375 
Q 37.203125 6.109375 41.296875 11.75 
Q 45.40625 17.390625 45.40625 27.296875 
Q 45.40625 37.203125 41.296875 42.84375 
Q 37.203125 48.484375 30.078125 48.484375 
Q 22.953125 48.484375 18.875 42.84375 
Q 14.796875 37.203125 14.796875 27.296875 
z
" id="DejaVuSans-100"/>
     </defs>
     <use xlink:href="#DejaVuSans-68"/>
     <use x="77.001953" xlink:href="#DejaVuSans-79"/>
     <use x="155.712891" xlink:href="#DejaVuSans-71"/>
     <use x="233.203125" xlink:href="#DejaVuSans-69"/>
     <use x="296.386719" xlink:href="#DejaVuSans-32"/>
     <use x="328.173828" xlink:href="#DejaVuSans-122"/>
     <use x="380.664062" xlink:href="#DejaVuSans-225"/>
     <use x="441.943359" xlink:href="#DejaVuSans-114"/>
     <use x="480.806641" xlink:href="#DejaVuSans-243"/>
     <use x="541.988281" xlink:href="#DejaVuSans-32"/>
     <use x="573.775391" xlink:href="#DejaVuSans-225"/>
     <use x="635.054688" xlink:href="#DejaVuSans-114"/>
     <use x="676.167969" xlink:href="#DejaVuSans-102"/>
     <use x="711.373047" xlink:href="#DejaVuSans-111"/>
     <use x="772.554688" xlink:href="#DejaVuSans-108"/>
     <use x="800.337891" xlink:href="#DejaVuSans-121"/>
     <use x="859.517578" xlink:href="#DejaVuSans-97"/>
     <use x="920.796875" xlink:href="#DejaVuSans-109"/>
     <use x="1018.208984" xlink:href="#DejaVuSans-32"/>
     <use x="1049.996094" xlink:href="#DejaVuSans-101"/>
     <use x="1111.519531" xlink:href="#DejaVuSans-108"/>
     <use x="1139.302734" xlink:href="#DejaVuSans-337"/>
     <use x="1200.484375" xlink:href="#DejaVuSans-114"/>
     <use x="1239.347656" xlink:href="#DejaVuSans-101"/>
     <use x="1300.871094" xlink:href="#DejaVuSans-106"/>
     <use x="1328.654297" xlink:href="#DejaVuSans-101"/>
     <use x="1390.177734" xlink:href="#DejaVuSans-108"/>
     <use x="1417.960938" xlink:href="#DejaVuSans-122"/>
     <use x="1470.451172" xlink:href="#DejaVuSans-233"/>
     <use x="1531.974609" xlink:href="#DejaVuSans-115"/>
     <use x="1584.074219" xlink:href="#DejaVuSans-32"/>
     <use x="1615.861328" xlink:href="#DejaVuSans-76"/>
     <use x="1671.574219" xlink:href="#DejaVuSans-83"/>
     <use x="1735.050781" xlink:href="#DejaVuSans-84"/>
     <use x="1796.134766" xlink:href="#DejaVuSans-77"/>
     <use x="1882.414062" xlink:href="#DejaVuSans-45"/>
     <use x="1922.123047" xlink:href="#DejaVuSans-71"/>
     <use x="1999.613281" xlink:href="#DejaVuSans-82"/>
     <use x="2069.095703" xlink:href="#DejaVuSans-85"/>
     <use x="2142.289062" xlink:href="#DejaVuSans-32"/>
     <use x="2174.076172" xlink:href="#DejaVuSans-104"/>
     <use x="2237.455078" xlink:href="#DejaVuSans-105"/>
     <use x="2265.238281" xlink:href="#DejaVuSans-98"/>
     <use x="2328.714844" xlink:href="#DejaVuSans-114"/>
     <use x="2369.828125" xlink:href="#DejaVuSans-105"/>
     <use x="2397.611328" xlink:href="#DejaVuSans-100"/>
     <use x="2461.087891" xlink:href="#DejaVuSans-32"/>
     <use x="2492.875" xlink:href="#DejaVuSans-109"/>
     <use x="2590.287109" xlink:href="#DejaVuSans-111"/>
     <use x="2651.46875" xlink:href="#DejaVuSans-100"/>
     <use x="2714.945312" xlink:href="#DejaVuSans-101"/>
     <use x="2776.46875" xlink:href="#DejaVuSans-108"/>
     <use x="2804.251953" xlink:href="#DejaVuSans-108"/>
     <use x="2832.035156" xlink:href="#DejaVuSans-101"/>
     <use x="2893.558594" xlink:href="#DejaVuSans-108"/>
    </g>
   </g>
   <g id="legend_1">
    <g id="patch_7">
     <path d="M 64.6 79.62825 
L 325.379688 79.62825 
Q 327.379688 79.62825 327.379688 77.62825 
L 327.379688 48.472 
Q 327.379688 46.472 325.379688 46.472 
L 64.6 46.472 
Q 62.6 46.472 62.6 48.472 
L 62.6 77.62825 
Q 62.6 79.62825 64.6 79.62825 
z
" style="fill:#ffffff;opacity:0.8;stroke:#cccccc;stroke-linejoin:miter;"/>
    </g>
    <g id="line2d_15">
     <path d="M 66.6 54.970438 
L 86.6 54.970438 
" style="fill:none;stroke:#008000;stroke-linecap:square;stroke-width:1.5;"/>
    </g>
    <g id="line2d_16"/>
    <g id="text_15">
     <!-- Modell alapján előrejelzett napi záró árfolyam -->
     <g transform="translate(94.6 58.470438)scale(0.1 -0.1)">
      <defs>
       <path d="M 18.109375 8.203125 
L 18.109375 -20.796875 
L 9.078125 -20.796875 
L 9.078125 54.6875 
L 18.109375 54.6875 
L 18.109375 46.390625 
Q 20.953125 51.265625 25.265625 53.625 
Q 29.59375 56 35.59375 56 
Q 45.5625 56 51.78125 48.09375 
Q 58.015625 40.1875 58.015625 27.296875 
Q 58.015625 14.40625 51.78125 6.484375 
Q 45.5625 -1.421875 35.59375 -1.421875 
Q 29.59375 -1.421875 25.265625 0.953125 
Q 20.953125 3.328125 18.109375 8.203125 
z
M 48.6875 27.296875 
Q 48.6875 37.203125 44.609375 42.84375 
Q 40.53125 48.484375 33.40625 48.484375 
Q 26.265625 48.484375 22.1875 42.84375 
Q 18.109375 37.203125 18.109375 27.296875 
Q 18.109375 17.390625 22.1875 11.75 
Q 26.265625 6.109375 33.40625 6.109375 
Q 40.53125 6.109375 44.609375 11.75 
Q 48.6875 17.390625 48.6875 27.296875 
z
" id="DejaVuSans-112"/>
       <path d="M 54.890625 33.015625 
L 54.890625 0 
L 45.90625 0 
L 45.90625 32.71875 
Q 45.90625 40.484375 42.875 44.328125 
Q 39.84375 48.1875 33.796875 48.1875 
Q 26.515625 48.1875 22.3125 43.546875 
Q 18.109375 38.921875 18.109375 30.90625 
L 18.109375 0 
L 9.078125 0 
L 9.078125 54.6875 
L 18.109375 54.6875 
L 18.109375 46.1875 
Q 21.34375 51.125 25.703125 53.5625 
Q 30.078125 56 35.796875 56 
Q 45.21875 56 50.046875 50.171875 
Q 54.890625 44.34375 54.890625 33.015625 
z
" id="DejaVuSans-110"/>
       <path d="M 18.3125 70.21875 
L 18.3125 54.6875 
L 36.8125 54.6875 
L 36.8125 47.703125 
L 18.3125 47.703125 
L 18.3125 18.015625 
Q 18.3125 11.328125 20.140625 9.421875 
Q 21.96875 7.515625 27.59375 7.515625 
L 36.8125 7.515625 
L 36.8125 0 
L 27.59375 0 
Q 17.1875 0 13.234375 3.875 
Q 9.28125 7.765625 9.28125 18.015625 
L 9.28125 47.703125 
L 2.6875 47.703125 
L 2.6875 54.6875 
L 9.28125 54.6875 
L 9.28125 70.21875 
z
" id="DejaVuSans-116"/>
      </defs>
      <use xlink:href="#DejaVuSans-77"/>
      <use x="86.279297" xlink:href="#DejaVuSans-111"/>
      <use x="147.460938" xlink:href="#DejaVuSans-100"/>
      <use x="210.9375" xlink:href="#DejaVuSans-101"/>
      <use x="272.460938" xlink:href="#DejaVuSans-108"/>
      <use x="300.244141" xlink:href="#DejaVuSans-108"/>
      <use x="328.027344" xlink:href="#DejaVuSans-32"/>
      <use x="359.814453" xlink:href="#DejaVuSans-97"/>
      <use x="421.09375" xlink:href="#DejaVuSans-108"/>
      <use x="448.876953" xlink:href="#DejaVuSans-97"/>
      <use x="510.15625" xlink:href="#DejaVuSans-112"/>
      <use x="573.632812" xlink:href="#DejaVuSans-106"/>
      <use x="601.416016" xlink:href="#DejaVuSans-225"/>
      <use x="662.695312" xlink:href="#DejaVuSans-110"/>
      <use x="726.074219" xlink:href="#DejaVuSans-32"/>
      <use x="757.861328" xlink:href="#DejaVuSans-101"/>
      <use x="819.384766" xlink:href="#DejaVuSans-108"/>
      <use x="847.167969" xlink:href="#DejaVuSans-337"/>
      <use x="908.349609" xlink:href="#DejaVuSans-114"/>
      <use x="947.212891" xlink:href="#DejaVuSans-101"/>
      <use x="1008.736328" xlink:href="#DejaVuSans-106"/>
      <use x="1036.519531" xlink:href="#DejaVuSans-101"/>
      <use x="1098.042969" xlink:href="#DejaVuSans-108"/>
      <use x="1125.826172" xlink:href="#DejaVuSans-122"/>
      <use x="1178.316406" xlink:href="#DejaVuSans-101"/>
      <use x="1239.839844" xlink:href="#DejaVuSans-116"/>
      <use x="1279.048828" xlink:href="#DejaVuSans-116"/>
      <use x="1318.257812" xlink:href="#DejaVuSans-32"/>
      <use x="1350.044922" xlink:href="#DejaVuSans-110"/>
      <use x="1413.423828" xlink:href="#DejaVuSans-97"/>
      <use x="1474.703125" xlink:href="#DejaVuSans-112"/>
      <use x="1538.179688" xlink:href="#DejaVuSans-105"/>
      <use x="1565.962891" xlink:href="#DejaVuSans-32"/>
      <use x="1597.75" xlink:href="#DejaVuSans-122"/>
      <use x="1650.240234" xlink:href="#DejaVuSans-225"/>
      <use x="1711.519531" xlink:href="#DejaVuSans-114"/>
      <use x="1750.382812" xlink:href="#DejaVuSans-243"/>
      <use x="1811.564453" xlink:href="#DejaVuSans-32"/>
      <use x="1843.351562" xlink:href="#DejaVuSans-225"/>
      <use x="1904.630859" xlink:href="#DejaVuSans-114"/>
      <use x="1945.744141" xlink:href="#DejaVuSans-102"/>
      <use x="1980.949219" xlink:href="#DejaVuSans-111"/>
      <use x="2042.130859" xlink:href="#DejaVuSans-108"/>
      <use x="2069.914062" xlink:href="#DejaVuSans-121"/>
      <use x="2129.09375" xlink:href="#DejaVuSans-97"/>
      <use x="2190.373047" xlink:href="#DejaVuSans-109"/>
     </g>
    </g>
    <g id="line2d_17">
     <path d="M 66.6 70.048563 
L 86.6 70.048563 
" style="fill:none;stroke:#000000;stroke-linecap:square;stroke-width:1.5;"/>
    </g>
    <g id="line2d_18"/>
    <g id="text_16">
     <!-- Valós napi záró árfolyamok -->
     <g transform="translate(94.6 73.548563)scale(0.1 -0.1)">
      <defs>
       <path d="M 28.609375 0 
L 0.78125 72.90625 
L 11.078125 72.90625 
L 34.1875 11.53125 
L 57.328125 72.90625 
L 67.578125 72.90625 
L 39.796875 0 
z
" id="DejaVuSans-86"/>
       <path d="M 9.078125 75.984375 
L 18.109375 75.984375 
L 18.109375 31.109375 
L 44.921875 54.6875 
L 56.390625 54.6875 
L 27.390625 29.109375 
L 57.625 0 
L 45.90625 0 
L 18.109375 26.703125 
L 18.109375 0 
L 9.078125 0 
z
" id="DejaVuSans-107"/>
      </defs>
      <use xlink:href="#DejaVuSans-86"/>
      <use x="60.658203" xlink:href="#DejaVuSans-97"/>
      <use x="121.9375" xlink:href="#DejaVuSans-108"/>
      <use x="149.720703" xlink:href="#DejaVuSans-243"/>
      <use x="210.902344" xlink:href="#DejaVuSans-115"/>
      <use x="263.001953" xlink:href="#DejaVuSans-32"/>
      <use x="294.789062" xlink:href="#DejaVuSans-110"/>
      <use x="358.167969" xlink:href="#DejaVuSans-97"/>
      <use x="419.447266" xlink:href="#DejaVuSans-112"/>
      <use x="482.923828" xlink:href="#DejaVuSans-105"/>
      <use x="510.707031" xlink:href="#DejaVuSans-32"/>
      <use x="542.494141" xlink:href="#DejaVuSans-122"/>
      <use x="594.984375" xlink:href="#DejaVuSans-225"/>
      <use x="656.263672" xlink:href="#DejaVuSans-114"/>
      <use x="695.126953" xlink:href="#DejaVuSans-243"/>
      <use x="756.308594" xlink:href="#DejaVuSans-32"/>
      <use x="788.095703" xlink:href="#DejaVuSans-225"/>
      <use x="849.375" xlink:href="#DejaVuSans-114"/>
      <use x="890.488281" xlink:href="#DejaVuSans-102"/>
      <use x="925.693359" xlink:href="#DejaVuSans-111"/>
      <use x="986.875" xlink:href="#DejaVuSans-108"/>
      <use x="1014.658203" xlink:href="#DejaVuSans-121"/>
      <use x="1073.837891" xlink:href="#DejaVuSans-97"/>
      <use x="1135.117188" xlink:href="#DejaVuSans-109"/>
      <use x="1232.529297" xlink:href="#DejaVuSans-111"/>
      <use x="1293.710938" xlink:href="#DejaVuSans-107"/>
     </g>
    </g>
   </g>
  </g>
 </g>
 <defs>
  <clipPath id="pd20c7726f1">
   <rect height="266.112" width="357.12" x="57.6" y="41.472"/>
  </clipPath>
 </defs>
</svg>
