<?xml version="1.0" encoding="utf-8" standalone="no"?>
<!DOCTYPE svg PUBLIC "-//W3C//DTD SVG 1.1//EN"
  "http://www.w3.org/Graphics/SVG/1.1/DTD/svg11.dtd">
<!-- Created with matplotlib (https://matplotlib.org/) -->
<svg height="345.6pt" version="1.1" viewBox="0 0 460.8 345.6" width="460.8pt" xmlns="http://www.w3.org/2000/svg" xmlns:xlink="http://www.w3.org/1999/xlink">
 <metadata>
  <rdf:RDF xmlns:cc="http://creativecommons.org/ns#" xmlns:dc="http://purl.org/dc/elements/1.1/" xmlns:rdf="http://www.w3.org/1999/02/22-rdf-syntax-ns#">
   <cc:Work>
    <dc:type rdf:resource="http://purl.org/dc/dcmitype/StillImage"/>
    <dc:date>2023-09-27T14:34:33.137780</dc:date>
    <dc:format>image/svg+xml</dc:format>
    <dc:creator>
     <cc:Agent>
      <dc:title>Matplotlib v3.3.2, https://matplotlib.org/</dc:title>
     </cc:Agent>
    </dc:creator>
   </cc:Work>
  </rdf:RDF>
 </metadata>
 <defs>
  <style type="text/css">*{stroke-linecap:butt;stroke-linejoin:round;}</style>
 </defs>
 <g id="figure_1">
  <g id="patch_1">
   <path d="M 0 345.6 
L 460.8 345.6 
L 460.8 0 
L 0 0 
z
" style="fill:#ffffff;"/>
  </g>
  <g id="axes_1">
   <g id="patch_2">
    <path d="M 57.6 307.584 
L 414.72 307.584 
L 414.72 41.472 
L 57.6 41.472 
z
" style="fill:#ffffff;"/>
   </g>
   <g id="matplotlib.axis_1">
    <g id="xtick_1">
     <g id="line2d_1">
      <defs>
       <path d="M 0 0 
L 0 3.5 
" id="ma9f0d9023d" style="stroke:#000000;stroke-width:0.8;"/>
      </defs>
      <g>
       <use style="stroke:#000000;stroke-width:0.8;" x="73.832727" xlink:href="#ma9f0d9023d" y="307.584"/>
      </g>
     </g>
     <g id="text_1">
      <!-- 2023-01 -->
      <g transform="translate(63.575701 342.518253)rotate(-45)scale(0.08 -0.08)">
       <defs>
        <path d="M 19.1875 8.296875 
L 53.609375 8.296875 
L 53.609375 0 
L 7.328125 0 
L 7.328125 8.296875 
Q 12.9375 14.109375 22.625 23.890625 
Q 32.328125 33.6875 34.8125 36.53125 
Q 39.546875 41.84375 41.421875 45.53125 
Q 43.3125 49.21875 43.3125 52.78125 
Q 43.3125 58.59375 39.234375 62.25 
Q 35.15625 65.921875 28.609375 65.921875 
Q 23.96875 65.921875 18.8125 64.3125 
Q 13.671875 62.703125 7.8125 59.421875 
L 7.8125 69.390625 
Q 13.765625 71.78125 18.9375 73 
Q 24.125 74.21875 28.421875 74.21875 
Q 39.75 74.21875 46.484375 68.546875 
Q 53.21875 62.890625 53.21875 53.421875 
Q 53.21875 48.921875 51.53125 44.890625 
Q 49.859375 40.875 45.40625 35.40625 
Q 44.1875 33.984375 37.640625 27.21875 
Q 31.109375 20.453125 19.1875 8.296875 
z
" id="DejaVuSans-50"/>
        <path d="M 31.78125 66.40625 
Q 24.171875 66.40625 20.328125 58.90625 
Q 16.5 51.421875 16.5 36.375 
Q 16.5 21.390625 20.328125 13.890625 
Q 24.171875 6.390625 31.78125 6.390625 
Q 39.453125 6.390625 43.28125 13.890625 
Q 47.125 21.390625 47.125 36.375 
Q 47.125 51.421875 43.28125 58.90625 
Q 39.453125 66.40625 31.78125 66.40625 
z
M 31.78125 74.21875 
Q 44.046875 74.21875 50.515625 64.515625 
Q 56.984375 54.828125 56.984375 36.375 
Q 56.984375 17.96875 50.515625 8.265625 
Q 44.046875 -1.421875 31.78125 -1.421875 
Q 19.53125 -1.421875 13.0625 8.265625 
Q 6.59375 17.96875 6.59375 36.375 
Q 6.59375 54.828125 13.0625 64.515625 
Q 19.53125 74.21875 31.78125 74.21875 
z
" id="DejaVuSans-48"/>
        <path d="M 40.578125 39.3125 
Q 47.65625 37.796875 51.625 33 
Q 55.609375 28.21875 55.609375 21.1875 
Q 55.609375 10.40625 48.1875 4.484375 
Q 40.765625 -1.421875 27.09375 -1.421875 
Q 22.515625 -1.421875 17.65625 -0.515625 
Q 12.796875 0.390625 7.625 2.203125 
L 7.625 11.71875 
Q 11.71875 9.328125 16.59375 8.109375 
Q 21.484375 6.890625 26.8125 6.890625 
Q 36.078125 6.890625 40.9375 10.546875 
Q 45.796875 14.203125 45.796875 21.1875 
Q 45.796875 27.640625 41.28125 31.265625 
Q 36.765625 34.90625 28.71875 34.90625 
L 20.21875 34.90625 
L 20.21875 43.015625 
L 29.109375 43.015625 
Q 36.375 43.015625 40.234375 45.921875 
Q 44.09375 48.828125 44.09375 54.296875 
Q 44.09375 59.90625 40.109375 62.90625 
Q 36.140625 65.921875 28.71875 65.921875 
Q 24.65625 65.921875 20.015625 65.03125 
Q 15.375 64.15625 9.8125 62.3125 
L 9.8125 71.09375 
Q 15.4375 72.65625 20.34375 73.4375 
Q 25.25 74.21875 29.59375 74.21875 
Q 40.828125 74.21875 47.359375 69.109375 
Q 53.90625 64.015625 53.90625 55.328125 
Q 53.90625 49.265625 50.4375 45.09375 
Q 46.96875 40.921875 40.578125 39.3125 
z
" id="DejaVuSans-51"/>
        <path d="M 4.890625 31.390625 
L 31.203125 31.390625 
L 31.203125 23.390625 
L 4.890625 23.390625 
z
" id="DejaVuSans-45"/>
        <path d="M 12.40625 8.296875 
L 28.515625 8.296875 
L 28.515625 63.921875 
L 10.984375 60.40625 
L 10.984375 69.390625 
L 28.421875 72.90625 
L 38.28125 72.90625 
L 38.28125 8.296875 
L 54.390625 8.296875 
L 54.390625 0 
L 12.40625 0 
z
" id="DejaVuSans-49"/>
       </defs>
       <use xlink:href="#DejaVuSans-50"/>
       <use x="63.623047" xlink:href="#DejaVuSans-48"/>
       <use x="127.246094" xlink:href="#DejaVuSans-50"/>
       <use x="190.869141" xlink:href="#DejaVuSans-51"/>
       <use x="254.492188" xlink:href="#DejaVuSans-45"/>
       <use x="290.576172" xlink:href="#DejaVuSans-48"/>
       <use x="354.199219" xlink:href="#DejaVuSans-49"/>
      </g>
     </g>
    </g>
    <g id="xtick_2">
     <g id="line2d_2">
      <g>
       <use style="stroke:#000000;stroke-width:0.8;" x="105.382229" xlink:href="#ma9f0d9023d" y="307.584"/>
      </g>
     </g>
     <g id="text_2">
      <!-- 2023-02 -->
      <g transform="translate(95.125203 342.518253)rotate(-45)scale(0.08 -0.08)">
       <use xlink:href="#DejaVuSans-50"/>
       <use x="63.623047" xlink:href="#DejaVuSans-48"/>
       <use x="127.246094" xlink:href="#DejaVuSans-50"/>
       <use x="190.869141" xlink:href="#DejaVuSans-51"/>
       <use x="254.492188" xlink:href="#DejaVuSans-45"/>
       <use x="290.576172" xlink:href="#DejaVuSans-48"/>
       <use x="354.199219" xlink:href="#DejaVuSans-50"/>
      </g>
     </g>
    </g>
    <g id="xtick_3">
     <g id="line2d_3">
      <g>
       <use style="stroke:#000000;stroke-width:0.8;" x="133.878552" xlink:href="#ma9f0d9023d" y="307.584"/>
      </g>
     </g>
     <g id="text_3">
      <!-- 2023-03 -->
      <g transform="translate(123.621526 342.518253)rotate(-45)scale(0.08 -0.08)">
       <use xlink:href="#DejaVuSans-50"/>
       <use x="63.623047" xlink:href="#DejaVuSans-48"/>
       <use x="127.246094" xlink:href="#DejaVuSans-50"/>
       <use x="190.869141" xlink:href="#DejaVuSans-51"/>
       <use x="254.492188" xlink:href="#DejaVuSans-45"/>
       <use x="290.576172" xlink:href="#DejaVuSans-48"/>
       <use x="354.199219" xlink:href="#DejaVuSans-51"/>
      </g>
     </g>
    </g>
    <g id="xtick_4">
     <g id="line2d_4">
      <g>
       <use style="stroke:#000000;stroke-width:0.8;" x="165.428054" xlink:href="#ma9f0d9023d" y="307.584"/>
      </g>
     </g>
     <g id="text_4">
      <!-- 2023-04 -->
      <g transform="translate(155.171028 342.518253)rotate(-45)scale(0.08 -0.08)">
       <defs>
        <path d="M 37.796875 64.3125 
L 12.890625 25.390625 
L 37.796875 25.390625 
z
M 35.203125 72.90625 
L 47.609375 72.90625 
L 47.609375 25.390625 
L 58.015625 25.390625 
L 58.015625 17.1875 
L 47.609375 17.1875 
L 47.609375 0 
L 37.796875 0 
L 37.796875 17.1875 
L 4.890625 17.1875 
L 4.890625 26.703125 
z
" id="DejaVuSans-52"/>
       </defs>
       <use xlink:href="#DejaVuSans-50"/>
       <use x="63.623047" xlink:href="#DejaVuSans-48"/>
       <use x="127.246094" xlink:href="#DejaVuSans-50"/>
       <use x="190.869141" xlink:href="#DejaVuSans-51"/>
       <use x="254.492188" xlink:href="#DejaVuSans-45"/>
       <use x="290.576172" xlink:href="#DejaVuSans-48"/>
       <use x="354.199219" xlink:href="#DejaVuSans-52"/>
      </g>
     </g>
    </g>
    <g id="xtick_5">
     <g id="line2d_5">
      <g>
       <use style="stroke:#000000;stroke-width:0.8;" x="195.959829" xlink:href="#ma9f0d9023d" y="307.584"/>
      </g>
     </g>
     <g id="text_5">
      <!-- 2023-05 -->
      <g transform="translate(185.702803 342.518253)rotate(-45)scale(0.08 -0.08)">
       <defs>
        <path d="M 10.796875 72.90625 
L 49.515625 72.90625 
L 49.515625 64.59375 
L 19.828125 64.59375 
L 19.828125 46.734375 
Q 21.96875 47.46875 24.109375 47.828125 
Q 26.265625 48.1875 28.421875 48.1875 
Q 40.625 48.1875 47.75 41.5 
Q 54.890625 34.8125 54.890625 23.390625 
Q 54.890625 11.625 47.5625 5.09375 
Q 40.234375 -1.421875 26.90625 -1.421875 
Q 22.3125 -1.421875 17.546875 -0.640625 
Q 12.796875 0.140625 7.71875 1.703125 
L 7.71875 11.625 
Q 12.109375 9.234375 16.796875 8.0625 
Q 21.484375 6.890625 26.703125 6.890625 
Q 35.15625 6.890625 40.078125 11.328125 
Q 45.015625 15.765625 45.015625 23.390625 
Q 45.015625 31 40.078125 35.4375 
Q 35.15625 39.890625 26.703125 39.890625 
Q 22.75 39.890625 18.8125 39.015625 
Q 14.890625 38.140625 10.796875 36.28125 
z
" id="DejaVuSans-53"/>
       </defs>
       <use xlink:href="#DejaVuSans-50"/>
       <use x="63.623047" xlink:href="#DejaVuSans-48"/>
       <use x="127.246094" xlink:href="#DejaVuSans-50"/>
       <use x="190.869141" xlink:href="#DejaVuSans-51"/>
       <use x="254.492188" xlink:href="#DejaVuSans-45"/>
       <use x="290.576172" xlink:href="#DejaVuSans-48"/>
       <use x="354.199219" xlink:href="#DejaVuSans-53"/>
      </g>
     </g>
    </g>
    <g id="xtick_6">
     <g id="line2d_6">
      <g>
       <use style="stroke:#000000;stroke-width:0.8;" x="227.50933" xlink:href="#ma9f0d9023d" y="307.584"/>
      </g>
     </g>
     <g id="text_6">
      <!-- 2023-06 -->
      <g transform="translate(217.252304 342.518253)rotate(-45)scale(0.08 -0.08)">
       <defs>
        <path d="M 33.015625 40.375 
Q 26.375 40.375 22.484375 35.828125 
Q 18.609375 31.296875 18.609375 23.390625 
Q 18.609375 15.53125 22.484375 10.953125 
Q 26.375 6.390625 33.015625 6.390625 
Q 39.65625 6.390625 43.53125 10.953125 
Q 47.40625 15.53125 47.40625 23.390625 
Q 47.40625 31.296875 43.53125 35.828125 
Q 39.65625 40.375 33.015625 40.375 
z
M 52.59375 71.296875 
L 52.59375 62.3125 
Q 48.875 64.0625 45.09375 64.984375 
Q 41.3125 65.921875 37.59375 65.921875 
Q 27.828125 65.921875 22.671875 59.328125 
Q 17.53125 52.734375 16.796875 39.40625 
Q 19.671875 43.65625 24.015625 45.921875 
Q 28.375 48.1875 33.59375 48.1875 
Q 44.578125 48.1875 50.953125 41.515625 
Q 57.328125 34.859375 57.328125 23.390625 
Q 57.328125 12.15625 50.6875 5.359375 
Q 44.046875 -1.421875 33.015625 -1.421875 
Q 20.359375 -1.421875 13.671875 8.265625 
Q 6.984375 17.96875 6.984375 36.375 
Q 6.984375 53.65625 15.1875 63.9375 
Q 23.390625 74.21875 37.203125 74.21875 
Q 40.921875 74.21875 44.703125 73.484375 
Q 48.484375 72.75 52.59375 71.296875 
z
" id="DejaVuSans-54"/>
       </defs>
       <use xlink:href="#DejaVuSans-50"/>
       <use x="63.623047" xlink:href="#DejaVuSans-48"/>
       <use x="127.246094" xlink:href="#DejaVuSans-50"/>
       <use x="190.869141" xlink:href="#DejaVuSans-51"/>
       <use x="254.492188" xlink:href="#DejaVuSans-45"/>
       <use x="290.576172" xlink:href="#DejaVuSans-48"/>
       <use x="354.199219" xlink:href="#DejaVuSans-54"/>
      </g>
     </g>
    </g>
    <g id="xtick_7">
     <g id="line2d_7">
      <g>
       <use style="stroke:#000000;stroke-width:0.8;" x="258.041106" xlink:href="#ma9f0d9023d" y="307.584"/>
      </g>
     </g>
     <g id="text_7">
      <!-- 2023-07 -->
      <g transform="translate(247.78408 342.518253)rotate(-45)scale(0.08 -0.08)">
       <defs>
        <path d="M 8.203125 72.90625 
L 55.078125 72.90625 
L 55.078125 68.703125 
L 28.609375 0 
L 18.3125 0 
L 43.21875 64.59375 
L 8.203125 64.59375 
z
" id="DejaVuSans-55"/>
       </defs>
       <use xlink:href="#DejaVuSans-50"/>
       <use x="63.623047" xlink:href="#DejaVuSans-48"/>
       <use x="127.246094" xlink:href="#DejaVuSans-50"/>
       <use x="190.869141" xlink:href="#DejaVuSans-51"/>
       <use x="254.492188" xlink:href="#DejaVuSans-45"/>
       <use x="290.576172" xlink:href="#DejaVuSans-48"/>
       <use x="354.199219" xlink:href="#DejaVuSans-55"/>
      </g>
     </g>
    </g>
    <g id="xtick_8">
     <g id="line2d_8">
      <g>
       <use style="stroke:#000000;stroke-width:0.8;" x="289.590607" xlink:href="#ma9f0d9023d" y="307.584"/>
      </g>
     </g>
     <g id="text_8">
      <!-- 2023-08 -->
      <g transform="translate(279.333581 342.518253)rotate(-45)scale(0.08 -0.08)">
       <defs>
        <path d="M 31.78125 34.625 
Q 24.75 34.625 20.71875 30.859375 
Q 16.703125 27.09375 16.703125 20.515625 
Q 16.703125 13.921875 20.71875 10.15625 
Q 24.75 6.390625 31.78125 6.390625 
Q 38.8125 6.390625 42.859375 10.171875 
Q 46.921875 13.96875 46.921875 20.515625 
Q 46.921875 27.09375 42.890625 30.859375 
Q 38.875 34.625 31.78125 34.625 
z
M 21.921875 38.8125 
Q 15.578125 40.375 12.03125 44.71875 
Q 8.5 49.078125 8.5 55.328125 
Q 8.5 64.0625 14.71875 69.140625 
Q 20.953125 74.21875 31.78125 74.21875 
Q 42.671875 74.21875 48.875 69.140625 
Q 55.078125 64.0625 55.078125 55.328125 
Q 55.078125 49.078125 51.53125 44.71875 
Q 48 40.375 41.703125 38.8125 
Q 48.828125 37.15625 52.796875 32.3125 
Q 56.78125 27.484375 56.78125 20.515625 
Q 56.78125 9.90625 50.3125 4.234375 
Q 43.84375 -1.421875 31.78125 -1.421875 
Q 19.734375 -1.421875 13.25 4.234375 
Q 6.78125 9.90625 6.78125 20.515625 
Q 6.78125 27.484375 10.78125 32.3125 
Q 14.796875 37.15625 21.921875 38.8125 
z
M 18.3125 54.390625 
Q 18.3125 48.734375 21.84375 45.5625 
Q 25.390625 42.390625 31.78125 42.390625 
Q 38.140625 42.390625 41.71875 45.5625 
Q 45.3125 48.734375 45.3125 54.390625 
Q 45.3125 60.0625 41.71875 63.234375 
Q 38.140625 66.40625 31.78125 66.40625 
Q 25.390625 66.40625 21.84375 63.234375 
Q 18.3125 60.0625 18.3125 54.390625 
z
" id="DejaVuSans-56"/>
       </defs>
       <use xlink:href="#DejaVuSans-50"/>
       <use x="63.623047" xlink:href="#DejaVuSans-48"/>
       <use x="127.246094" xlink:href="#DejaVuSans-50"/>
       <use x="190.869141" xlink:href="#DejaVuSans-51"/>
       <use x="254.492188" xlink:href="#DejaVuSans-45"/>
       <use x="290.576172" xlink:href="#DejaVuSans-48"/>
       <use x="354.199219" xlink:href="#DejaVuSans-56"/>
      </g>
     </g>
    </g>
    <g id="xtick_9">
     <g id="line2d_9">
      <g>
       <use style="stroke:#000000;stroke-width:0.8;" x="321.140108" xlink:href="#ma9f0d9023d" y="307.584"/>
      </g>
     </g>
     <g id="text_9">
      <!-- 2023-09 -->
      <g transform="translate(310.883082 342.518253)rotate(-45)scale(0.08 -0.08)">
       <defs>
        <path d="M 10.984375 1.515625 
L 10.984375 10.5 
Q 14.703125 8.734375 18.5 7.8125 
Q 22.3125 6.890625 25.984375 6.890625 
Q 35.75 6.890625 40.890625 13.453125 
Q 46.046875 20.015625 46.78125 33.40625 
Q 43.953125 29.203125 39.59375 26.953125 
Q 35.25 24.703125 29.984375 24.703125 
Q 19.046875 24.703125 12.671875 31.3125 
Q 6.296875 37.9375 6.296875 49.421875 
Q 6.296875 60.640625 12.9375 67.421875 
Q 19.578125 74.21875 30.609375 74.21875 
Q 43.265625 74.21875 49.921875 64.515625 
Q 56.59375 54.828125 56.59375 36.375 
Q 56.59375 19.140625 48.40625 8.859375 
Q 40.234375 -1.421875 26.421875 -1.421875 
Q 22.703125 -1.421875 18.890625 -0.6875 
Q 15.09375 0.046875 10.984375 1.515625 
z
M 30.609375 32.421875 
Q 37.25 32.421875 41.125 36.953125 
Q 45.015625 41.5 45.015625 49.421875 
Q 45.015625 57.28125 41.125 61.84375 
Q 37.25 66.40625 30.609375 66.40625 
Q 23.96875 66.40625 20.09375 61.84375 
Q 16.21875 57.28125 16.21875 49.421875 
Q 16.21875 41.5 20.09375 36.953125 
Q 23.96875 32.421875 30.609375 32.421875 
z
" id="DejaVuSans-57"/>
       </defs>
       <use xlink:href="#DejaVuSans-50"/>
       <use x="63.623047" xlink:href="#DejaVuSans-48"/>
       <use x="127.246094" xlink:href="#DejaVuSans-50"/>
       <use x="190.869141" xlink:href="#DejaVuSans-51"/>
       <use x="254.492188" xlink:href="#DejaVuSans-45"/>
       <use x="290.576172" xlink:href="#DejaVuSans-48"/>
       <use x="354.199219" xlink:href="#DejaVuSans-57"/>
      </g>
     </g>
    </g>
    <g id="xtick_10">
     <g id="line2d_10">
      <g>
       <use style="stroke:#000000;stroke-width:0.8;" x="351.671884" xlink:href="#ma9f0d9023d" y="307.584"/>
      </g>
     </g>
     <g id="text_10">
      <!-- 2023-10 -->
      <g transform="translate(341.414858 342.518253)rotate(-45)scale(0.08 -0.08)">
       <use xlink:href="#DejaVuSans-50"/>
       <use x="63.623047" xlink:href="#DejaVuSans-48"/>
       <use x="127.246094" xlink:href="#DejaVuSans-50"/>
       <use x="190.869141" xlink:href="#DejaVuSans-51"/>
       <use x="254.492188" xlink:href="#DejaVuSans-45"/>
       <use x="290.576172" xlink:href="#DejaVuSans-49"/>
       <use x="354.199219" xlink:href="#DejaVuSans-48"/>
      </g>
     </g>
    </g>
    <g id="xtick_11">
     <g id="line2d_11">
      <g>
       <use style="stroke:#000000;stroke-width:0.8;" x="383.221385" xlink:href="#ma9f0d9023d" y="307.584"/>
      </g>
     </g>
     <g id="text_11">
      <!-- 2023-11 -->
      <g transform="translate(372.964359 342.518253)rotate(-45)scale(0.08 -0.08)">
       <use xlink:href="#DejaVuSans-50"/>
       <use x="63.623047" xlink:href="#DejaVuSans-48"/>
       <use x="127.246094" xlink:href="#DejaVuSans-50"/>
       <use x="190.869141" xlink:href="#DejaVuSans-51"/>
       <use x="254.492188" xlink:href="#DejaVuSans-45"/>
       <use x="290.576172" xlink:href="#DejaVuSans-49"/>
       <use x="354.199219" xlink:href="#DejaVuSans-49"/>
      </g>
     </g>
    </g>
    <g id="xtick_12">
     <g id="line2d_12">
      <g>
       <use style="stroke:#000000;stroke-width:0.8;" x="413.75316" xlink:href="#ma9f0d9023d" y="307.584"/>
      </g>
     </g>
     <g id="text_12">
      <!-- 2023-12 -->
      <g transform="translate(403.496135 342.518253)rotate(-45)scale(0.08 -0.08)">
       <use xlink:href="#DejaVuSans-50"/>
       <use x="63.623047" xlink:href="#DejaVuSans-48"/>
       <use x="127.246094" xlink:href="#DejaVuSans-50"/>
       <use x="190.869141" xlink:href="#DejaVuSans-51"/>
       <use x="254.492188" xlink:href="#DejaVuSans-45"/>
       <use x="290.576172" xlink:href="#DejaVuSans-49"/>
       <use x="354.199219" xlink:href="#DejaVuSans-50"/>
      </g>
     </g>
    </g>
   </g>
   <g id="matplotlib.axis_2">
    <g id="ytick_1">
     <g id="line2d_13">
      <defs>
       <path d="M 0 0 
L -3.5 0 
" id="mdd5e08928a" style="stroke:#000000;stroke-width:0.8;"/>
      </defs>
      <g>
       <use style="stroke:#000000;stroke-width:0.8;" x="57.6" xlink:href="#mdd5e08928a" y="295.741977"/>
      </g>
     </g>
     <g id="text_13">
      <!-- 1200 -->
      <g transform="translate(25.15 299.541195)scale(0.1 -0.1)">
       <use xlink:href="#DejaVuSans-49"/>
       <use x="63.623047" xlink:href="#DejaVuSans-50"/>
       <use x="127.246094" xlink:href="#DejaVuSans-48"/>
       <use x="190.869141" xlink:href="#DejaVuSans-48"/>
      </g>
     </g>
    </g>
    <g id="ytick_2">
     <g id="line2d_14">
      <g>
       <use style="stroke:#000000;stroke-width:0.8;" x="57.6" xlink:href="#mdd5e08928a" y="243.095795"/>
      </g>
     </g>
     <g id="text_14">
      <!-- 1400 -->
      <g transform="translate(25.15 246.895014)scale(0.1 -0.1)">
       <use xlink:href="#DejaVuSans-49"/>
       <use x="63.623047" xlink:href="#DejaVuSans-52"/>
       <use x="127.246094" xlink:href="#DejaVuSans-48"/>
       <use x="190.869141" xlink:href="#DejaVuSans-48"/>
      </g>
     </g>
    </g>
    <g id="ytick_3">
     <g id="line2d_15">
      <g>
       <use style="stroke:#000000;stroke-width:0.8;" x="57.6" xlink:href="#mdd5e08928a" y="190.449614"/>
      </g>
     </g>
     <g id="text_15">
      <!-- 1600 -->
      <g transform="translate(25.15 194.248833)scale(0.1 -0.1)">
       <use xlink:href="#DejaVuSans-49"/>
       <use x="63.623047" xlink:href="#DejaVuSans-54"/>
       <use x="127.246094" xlink:href="#DejaVuSans-48"/>
       <use x="190.869141" xlink:href="#DejaVuSans-48"/>
      </g>
     </g>
    </g>
    <g id="ytick_4">
     <g id="line2d_16">
      <g>
       <use style="stroke:#000000;stroke-width:0.8;" x="57.6" xlink:href="#mdd5e08928a" y="137.803433"/>
      </g>
     </g>
     <g id="text_16">
      <!-- 1800 -->
      <g transform="translate(25.15 141.602651)scale(0.1 -0.1)">
       <use xlink:href="#DejaVuSans-49"/>
       <use x="63.623047" xlink:href="#DejaVuSans-56"/>
       <use x="127.246094" xlink:href="#DejaVuSans-48"/>
       <use x="190.869141" xlink:href="#DejaVuSans-48"/>
      </g>
     </g>
    </g>
    <g id="ytick_5">
     <g id="line2d_17">
      <g>
       <use style="stroke:#000000;stroke-width:0.8;" x="57.6" xlink:href="#mdd5e08928a" y="85.157251"/>
      </g>
     </g>
     <g id="text_17">
      <!-- 2000 -->
      <g transform="translate(25.15 88.95647)scale(0.1 -0.1)">
       <use xlink:href="#DejaVuSans-50"/>
       <use x="63.623047" xlink:href="#DejaVuSans-48"/>
       <use x="127.246094" xlink:href="#DejaVuSans-48"/>
       <use x="190.869141" xlink:href="#DejaVuSans-48"/>
      </g>
     </g>
    </g>
    <g id="text_18">
     <!-- Ár ($) -->
     <g transform="translate(19.070312 188.675656)rotate(-90)scale(0.1 -0.1)">
      <defs>
       <path d="M 34.1875 63.1875 
L 20.796875 26.90625 
L 47.609375 26.90625 
z
M 28.609375 72.90625 
L 39.796875 72.90625 
L 67.578125 0 
L 57.328125 0 
L 50.6875 18.703125 
L 17.828125 18.703125 
L 11.1875 0 
L 0.78125 0 
z
M 36.8125 92.515625 
L 45.84375 92.515625 
L 34.71875 79.625 
L 27.234375 79.625 
z
" id="DejaVuSans-193"/>
       <path d="M 41.109375 46.296875 
Q 39.59375 47.171875 37.8125 47.578125 
Q 36.03125 48 33.890625 48 
Q 26.265625 48 22.1875 43.046875 
Q 18.109375 38.09375 18.109375 28.8125 
L 18.109375 0 
L 9.078125 0 
L 9.078125 54.6875 
L 18.109375 54.6875 
L 18.109375 46.1875 
Q 20.953125 51.171875 25.484375 53.578125 
Q 30.03125 56 36.53125 56 
Q 37.453125 56 38.578125 55.875 
Q 39.703125 55.765625 41.0625 55.515625 
z
" id="DejaVuSans-114"/>
       <path id="DejaVuSans-32"/>
       <path d="M 31 75.875 
Q 24.46875 64.65625 21.28125 53.65625 
Q 18.109375 42.671875 18.109375 31.390625 
Q 18.109375 20.125 21.3125 9.0625 
Q 24.515625 -2 31 -13.1875 
L 23.1875 -13.1875 
Q 15.875 -1.703125 12.234375 9.375 
Q 8.59375 20.453125 8.59375 31.390625 
Q 8.59375 42.28125 12.203125 53.3125 
Q 15.828125 64.359375 23.1875 75.875 
z
" id="DejaVuSans-40"/>
       <path d="M 33.796875 -14.703125 
L 28.90625 -14.703125 
L 28.859375 0 
Q 23.734375 0.09375 18.609375 1.1875 
Q 13.484375 2.296875 8.296875 4.5 
L 8.296875 13.28125 
Q 13.28125 10.15625 18.375 8.5625 
Q 23.484375 6.984375 28.90625 6.9375 
L 28.90625 29.203125 
Q 18.109375 30.953125 13.203125 35.15625 
Q 8.296875 39.359375 8.296875 46.6875 
Q 8.296875 54.640625 13.625 59.21875 
Q 18.953125 63.8125 28.90625 64.5 
L 28.90625 75.984375 
L 33.796875 75.984375 
L 33.796875 64.65625 
Q 38.328125 64.453125 42.578125 63.6875 
Q 46.828125 62.9375 50.875 61.625 
L 50.875 53.078125 
Q 46.828125 55.125 42.546875 56.25 
Q 38.28125 57.375 33.796875 57.5625 
L 33.796875 36.71875 
Q 44.875 35.015625 50.09375 30.609375 
Q 55.328125 26.21875 55.328125 18.609375 
Q 55.328125 10.359375 49.78125 5.59375 
Q 44.234375 0.828125 33.796875 0.09375 
z
M 28.90625 37.59375 
L 28.90625 57.625 
Q 23.25 56.984375 20.265625 54.390625 
Q 17.28125 51.8125 17.28125 47.515625 
Q 17.28125 43.3125 20.03125 40.96875 
Q 22.796875 38.625 28.90625 37.59375 
z
M 33.796875 28.21875 
L 33.796875 7.078125 
Q 39.984375 7.90625 43.140625 10.59375 
Q 46.296875 13.28125 46.296875 17.671875 
Q 46.296875 21.96875 43.28125 24.5 
Q 40.28125 27.046875 33.796875 28.21875 
z
" id="DejaVuSans-36"/>
       <path d="M 8.015625 75.875 
L 15.828125 75.875 
Q 23.140625 64.359375 26.78125 53.3125 
Q 30.421875 42.28125 30.421875 31.390625 
Q 30.421875 20.453125 26.78125 9.375 
Q 23.140625 -1.703125 15.828125 -13.1875 
L 8.015625 -13.1875 
Q 14.5 -2 17.703125 9.0625 
Q 20.90625 20.125 20.90625 31.390625 
Q 20.90625 42.671875 17.703125 53.65625 
Q 14.5 64.65625 8.015625 75.875 
z
" id="DejaVuSans-41"/>
      </defs>
      <use xlink:href="#DejaVuSans-193"/>
      <use x="68.408203" xlink:href="#DejaVuSans-114"/>
      <use x="109.521484" xlink:href="#DejaVuSans-32"/>
      <use x="141.308594" xlink:href="#DejaVuSans-40"/>
      <use x="180.322266" xlink:href="#DejaVuSans-36"/>
      <use x="243.945312" xlink:href="#DejaVuSans-41"/>
     </g>
    </g>
   </g>
   <g id="line2d_18">
    <path clip-path="url(#pcb8f95b98e)" d="M 73.832727 295.488 
L 74.850453 291.883902 
L 75.868179 291.851738 
L 76.885905 280.862426 
L 77.903631 282.464979 
L 78.921357 277.479272 
L 79.939082 278.824025 
L 80.956808 272.746257 
L 81.974534 263.749171 
L 82.99226 259.788304 
L 84.009986 246.272271 
L 85.027712 238.373834 
L 86.045437 229.509167 
L 87.063163 203.425079 
L 88.080889 202.95848 
L 89.098615 196.547754 
L 90.116341 198.913522 
L 91.134067 212.690794 
L 92.151793 202.938205 
L 93.169518 174.720475 
L 94.187244 183.311275 
L 95.20497 182.978573 
L 96.222696 183.013052 
L 97.240422 201.872717 
L 98.258148 187.366901 
L 99.275873 189.63203 
L 100.293599 190.934882 
L 101.311325 197.705558 
L 102.329051 178.300023 
L 103.346777 199.050279 
L 104.364503 193.993913 
L 105.382229 179.448477 
L 106.399954 179.067094 
L 107.41768 173.40657 
L 108.435406 172.797559 
L 109.453132 182.119442 
L 110.470858 186.172883 
L 111.488584 171.496057 
L 112.506309 177.099386 
L 113.524035 204.548727 
L 114.541761 212.858687 
L 115.559487 206.262748 
L 116.577213 212.815372 
L 117.594939 214.88642 
L 118.612665 201.801415 
L 119.63039 171.037395 
L 120.648116 179.902576 
L 121.665842 165.499713 
L 122.683568 166.279895 
L 123.701294 169.0131 
L 124.71902 163.422336 
L 125.736746 175.172646 
L 126.754471 179.069697 
L 127.772197 177.005397 
L 128.789923 188.245537 
L 129.807649 191.788165 
L 130.825375 179.705282 
L 131.843101 181.41384 
L 132.860826 188.89783 
L 133.878552 173.751899 
L 134.896278 177.993702 
L 135.914004 198.565654 
L 137.949456 199.802537 
L 138.967182 199.031289 
L 139.984907 200.469997 
L 141.002633 207.799622 
L 142.020359 232.919087 
L 143.038085 235.420487 
L 144.055811 221.348527 
L 145.073537 193.004805 
L 146.091262 169.309814 
L 147.108988 163.203351 
L 148.126714 175.661159 
L 149.14444 170.12412 
L 150.162166 139.781585 
L 151.179892 147.895793 
L 152.197618 141.600134 
L 153.215343 154.828868 
L 154.233069 136.023796 
L 155.250795 154.198232 
L 156.268521 133.48509 
L 157.286247 150.426723 
L 158.303973 152.606283 
L 159.321698 144.206062 
L 160.339424 160.056759 
L 161.35715 144.967092 
L 162.374876 139.645567 
L 163.392602 139.715231 
L 164.410328 132.006537 
L 165.428054 134.154895 
L 166.445779 138.933185 
L 167.463505 135.092913 
L 168.481231 119.112689 
L 169.498957 109.081252 
L 170.516683 118.607948 
L 171.534409 120.52598 
L 172.552135 124.773985 
L 173.56986 122.170724 
L 174.587586 108.530176 
L 175.605312 113.536255 
L 176.623038 106.036166 
L 178.65849 58.403647 
L 179.676215 60.817132 
L 180.693941 53.568 
L 181.711667 65.087758 
L 182.729393 57.639789 
L 183.747119 101.897831 
L 184.764845 100.135707 
L 185.782571 124.641919 
L 186.800296 118.264161 
L 187.818022 121.466793 
L 188.835748 126.548351 
L 189.853474 120.231806 
L 190.8712 120.281675 
L 191.888926 109.167496 
L 192.906651 113.4512 
L 193.924377 109.133114 
L 194.942103 117.554575 
L 195.959829 129.391933 
L 196.977555 119.169499 
L 197.995281 110.25583 
L 199.013007 117.349311 
L 200.030732 86.457372 
L 201.048458 111.421957 
L 202.066184 118.567461 
L 203.08391 124.893872 
L 204.101636 125.009581 
L 205.119362 126.64205 
L 206.137087 138.727215 
L 207.154813 135.69238 
L 208.172539 138.826119 
L 209.190265 137.67156 
L 210.207991 133.183749 
L 211.225717 131.453919 
L 212.243443 132.049305 
L 213.261168 137.348434 
L 214.278894 134.489493 
L 215.29662 132.412983 
L 216.314346 136.610635 
L 217.332072 133.187734 
L 218.349798 123.488774 
L 219.367524 137.777116 
L 220.385249 136.236225 
L 221.402975 130.251418 
L 222.420701 129.612138 
L 223.438427 108.607391 
L 224.456153 113.302393 
L 225.473879 111.210106 
L 226.491604 118.289996 
L 227.50933 121.430097 
L 228.527056 109.570183 
L 229.544782 113.477613 
L 230.562508 113.977469 
L 231.580234 134.68984 
L 232.59796 115.561771 
L 233.615685 129.275805 
L 234.633411 125.615347 
L 235.651137 127.214912 
L 236.668863 150.337234 
L 237.686589 150.06597 
L 238.704315 152.931659 
L 239.72204 153.850621 
L 240.739766 177.151376 
L 241.757492 173.202784 
L 242.775218 159.738774 
L 243.792944 156.965563 
L 244.81067 158.709885 
L 245.828396 154.213399 
L 246.846121 139.877693 
L 247.863847 113.847524 
L 248.881573 118.602582 
L 249.899299 113.359268 
L 250.917025 117.782171 
L 251.934751 111.34712 
L 252.952476 122.158867 
L 253.970202 114.190733 
L 254.987928 130.44055 
L 256.005654 124.055594 
L 257.02338 102.743981 
L 258.041106 105.013833 
L 259.058832 101.62541 
L 260.076557 96.900203 
L 261.094283 101.837261 
L 262.112009 108.69325 
L 263.129735 125.000809 
L 264.147461 119.218662 
L 265.165187 120.551397 
L 266.182913 121.217315 
L 267.200638 116.598499 
L 268.218364 117.182961 
L 269.23609 118.82086 
L 270.253816 83.44323 
L 271.271542 101.122983 
L 273.306993 105.246538 
L 274.324719 108.414724 
L 275.342445 112.112295 
L 276.360171 114.373793 
L 277.377897 113.85755 
L 278.395623 113.56511 
L 279.413349 120.716495 
L 280.431074 114.325434 
L 281.4488 124.641341 
L 282.466526 122.603968 
L 283.484252 118.808713 
L 284.501978 121.915558 
L 285.519704 118.128272 
L 286.537429 116.463606 
L 287.555155 121.57688 
L 288.572881 123.019765 
L 289.590607 118.905529 
L 290.608333 127.51381 
L 291.626059 128.554426 
L 292.643785 130.508543 
L 293.66151 128.593532 
L 294.679236 130.574576 
L 295.696962 130.712297 
L 296.714688 123.113207 
L 297.732414 123.510624 
L 299.767865 125.398837 
L 300.785591 124.934102 
L 301.803317 127.463683 
L 302.821043 126.172367 
L 303.838769 130.713903 
L 304.856495 136.313794 
L 305.874221 168.092499 
L 306.891946 174.406988 
L 307.909672 172.162456 
L 308.927398 168.113932 
L 309.945124 172.742323 
L 310.96285 181.52804 
L 311.980576 169.582138 
L 312.998302 174.670348 
L 315.033753 178.260243 
L 316.051479 175.310399 
L 317.069205 176.641206 
L 318.086931 156.301798 
L 319.104657 162.780839 
L 320.122382 178.435976 
L 321.140108 182.949847 
L 322.157834 180.703387 
L 323.17556 180.942325 
L 324.193286 182.643429 
L 325.211012 181.597318 
L 326.228738 181.959807 
L 327.246463 177.920279 
L 328.264189 180.937024 
L 329.281915 181.193796 
L 330.299641 186.019739 
L 331.317367 203.180067 
L 332.335093 192.442418 
L 333.352818 188.346787 
L 334.370544 183.349127 
L 335.38827 179.488579 
L 336.405996 181.178179 
L 337.423722 184.422487 
L 338.441448 180.618717 
L 339.459174 178.987309 
L 340.476899 184.424094 
L 341.494625 194.580495 
L 342.512351 192.221603 
L 343.530077 192.066434 
L 344.547803 195.489593 
L 345.565529 193.523394 
L 346.583254 192.182401 
L 347.60098 183.68938 
L 348.618706 142.061655 
L 350.654158 142.233983 
L 351.671884 142.205449 
L 352.68961 142.063069 
L 353.707335 141.766741 
L 354.725061 141.281859 
L 355.742787 140.580435 
L 356.760513 139.631396 
L 357.778239 138.433715 
L 358.795965 178.970471 
L 360.831416 178.515441 
L 361.849142 178.118184 
L 362.866868 177.575495 
L 363.884594 176.853056 
L 364.90232 175.944473 
L 365.920046 174.856043 
L 367.955497 172.20198 
L 368.973223 145.516979 
L 371.008675 145.419874 
L 372.026401 145.217534 
L 373.044127 144.875835 
L 374.061852 144.3558 
L 375.079578 143.634068 
L 376.097304 142.698686 
L 377.11503 141.539178 
L 378.132756 140.186039 
L 379.150482 157.110642 
L 381.185933 157.467122 
L 383.221385 157.542602 
L 384.239111 157.403853 
L 385.256837 157.100135 
L 386.274563 156.600696 
L 387.292288 155.873213 
L 388.310014 154.910871 
L 389.32774 209.11674 
L 391.363192 209.551753 
L 392.380918 209.599213 
L 393.398643 209.472513 
L 394.416369 209.104369 
L 395.434095 208.428073 
L 396.451821 207.382636 
L 397.469547 205.898845 
L 398.487273 203.945885 
L 398.487273 203.945885 
" style="fill:none;stroke:#008000;stroke-linecap:square;stroke-width:1.5;"/>
   </g>
   <g id="line2d_19">
    <path clip-path="url(#pcb8f95b98e)" d="M 73.832727 295.488 
L 74.850453 291.883902 
L 75.868179 291.851738 
L 76.885905 280.862426 
L 77.903631 282.464979 
L 78.921357 277.479272 
L 79.939082 278.824025 
L 80.956808 272.746257 
L 81.974534 263.749171 
L 82.99226 259.788304 
L 84.009986 246.272271 
L 85.027712 238.373834 
L 86.045437 229.509167 
L 87.063163 203.425079 
L 88.080889 202.95848 
L 89.098615 196.547754 
L 90.116341 198.913522 
L 91.134067 212.690794 
L 92.151793 202.938205 
L 93.169518 174.720475 
L 94.187244 183.311275 
L 95.20497 182.978573 
L 96.222696 183.013052 
L 97.240422 201.872717 
L 98.258148 187.366901 
L 99.275873 189.63203 
L 100.293599 190.934882 
L 101.311325 197.705558 
L 102.329051 178.300023 
L 103.346777 199.050279 
L 104.364503 193.993913 
L 105.382229 179.448477 
L 106.399954 179.067094 
L 107.41768 173.40657 
L 108.435406 172.797559 
L 109.453132 182.119442 
L 110.470858 186.172883 
L 111.488584 171.496057 
L 112.506309 177.099386 
L 113.524035 204.548727 
L 114.541761 212.858687 
L 115.559487 206.262748 
L 116.577213 212.815372 
L 117.594939 214.88642 
L 118.612665 201.801415 
L 119.63039 171.037395 
L 120.648116 179.902576 
L 121.665842 165.499713 
L 122.683568 166.279895 
L 123.701294 169.0131 
L 124.71902 163.422336 
L 125.736746 175.172646 
L 126.754471 179.069697 
L 127.772197 177.005397 
L 128.789923 188.245537 
L 129.807649 191.788165 
L 130.825375 179.705282 
L 131.843101 181.41384 
L 132.860826 188.89783 
L 133.878552 173.751899 
L 134.896278 177.993702 
L 135.914004 198.565654 
L 137.949456 199.802537 
L 138.967182 199.031289 
L 139.984907 200.469997 
L 141.002633 207.799622 
L 142.020359 232.919087 
L 143.038085 235.420487 
L 144.055811 221.348527 
L 145.073537 193.004805 
L 146.091262 169.309814 
L 147.108988 163.203351 
L 148.126714 175.661159 
L 149.14444 170.12412 
L 150.162166 139.781585 
L 151.179892 147.895793 
L 152.197618 141.600134 
L 153.215343 154.828868 
L 154.233069 136.023796 
L 155.250795 154.198232 
L 156.268521 133.48509 
L 157.286247 150.426723 
L 158.303973 152.606283 
L 159.321698 144.206062 
L 160.339424 160.056759 
L 161.35715 144.967092 
L 162.374876 139.645567 
L 163.392602 139.715231 
L 164.410328 132.006537 
L 165.428054 134.154895 
L 166.445779 138.933185 
L 167.463505 135.092913 
L 168.481231 119.112689 
L 169.498957 109.081252 
L 170.516683 118.607948 
L 171.534409 120.52598 
L 172.552135 124.773985 
L 173.56986 122.170724 
L 174.587586 108.530176 
L 175.605312 113.536255 
L 176.623038 106.036166 
L 178.65849 58.403647 
L 179.676215 60.817132 
L 180.693941 53.568 
L 181.711667 65.087758 
L 182.729393 57.639789 
L 183.747119 101.897831 
L 184.764845 100.135707 
L 185.782571 124.641919 
L 186.800296 118.264161 
L 187.818022 121.466793 
L 188.835748 126.548351 
L 189.853474 120.231806 
L 190.8712 120.281675 
L 191.888926 109.167496 
L 192.906651 113.4512 
L 193.924377 109.133114 
L 194.942103 117.554575 
L 195.959829 129.391933 
L 196.977555 119.169499 
L 197.995281 110.25583 
L 199.013007 117.349311 
L 200.030732 86.457372 
L 201.048458 111.421957 
L 202.066184 118.567461 
L 203.08391 124.893872 
L 204.101636 125.009581 
L 205.119362 126.64205 
L 206.137087 138.727215 
L 207.154813 135.69238 
L 208.172539 138.826119 
L 209.190265 137.67156 
L 210.207991 133.183749 
L 211.225717 131.453919 
L 212.243443 132.049305 
L 213.261168 137.348434 
L 214.278894 134.489493 
L 215.29662 132.412983 
L 216.314346 136.610635 
L 217.332072 133.187734 
L 218.349798 123.488774 
L 219.367524 137.777116 
L 220.385249 136.236225 
L 221.402975 130.251418 
L 222.420701 129.612138 
L 223.438427 108.607391 
L 224.456153 113.302393 
L 225.473879 111.210106 
L 226.491604 118.289996 
L 227.50933 121.430097 
L 228.527056 109.570183 
L 229.544782 113.477613 
L 230.562508 113.977469 
L 231.580234 134.68984 
L 232.59796 115.561771 
L 233.615685 129.275805 
L 234.633411 125.615347 
L 235.651137 127.214912 
L 236.668863 150.337234 
L 237.686589 150.06597 
L 238.704315 152.931659 
L 239.72204 153.850621 
L 240.739766 177.151376 
L 241.757492 173.202784 
L 242.775218 159.738774 
L 243.792944 156.965563 
L 244.81067 158.709885 
L 245.828396 154.213399 
L 246.846121 139.877693 
L 247.863847 113.847524 
L 248.881573 118.602582 
L 249.899299 113.359268 
L 250.917025 117.782171 
L 251.934751 111.34712 
L 252.952476 122.158867 
L 253.970202 114.190733 
L 254.987928 130.44055 
L 256.005654 124.055594 
L 257.02338 102.743981 
L 258.041106 105.013833 
L 259.058832 101.62541 
L 260.076557 96.900203 
L 261.094283 101.837261 
L 262.112009 108.69325 
L 263.129735 125.000809 
L 264.147461 119.218662 
L 265.165187 120.551397 
L 266.182913 121.217315 
L 267.200638 116.598499 
L 268.218364 117.182961 
L 269.23609 118.82086 
L 270.253816 83.44323 
L 271.271542 101.122983 
L 273.306993 105.246538 
L 274.324719 108.414724 
L 275.342445 112.112295 
L 276.360171 114.373793 
L 277.377897 113.85755 
L 278.395623 113.56511 
L 279.413349 120.716495 
L 280.431074 114.325434 
L 281.4488 124.641341 
L 282.466526 122.603968 
L 283.484252 118.808713 
L 284.501978 121.915558 
L 285.519704 118.128272 
L 286.537429 116.463606 
L 287.555155 121.57688 
L 288.572881 123.019765 
L 289.590607 118.905529 
L 290.608333 127.51381 
L 291.626059 128.554426 
L 292.643785 130.508543 
L 293.66151 128.593532 
L 294.679236 130.574576 
L 295.696962 130.712297 
L 296.714688 123.113207 
L 297.732414 123.510624 
L 299.767865 125.398837 
L 300.785591 124.934102 
L 301.803317 127.463683 
L 302.821043 126.172367 
L 303.838769 130.713903 
L 304.856495 136.313794 
L 305.874221 168.092499 
L 306.891946 174.406988 
L 307.909672 172.162456 
L 308.927398 168.113932 
L 309.945124 172.742323 
L 310.96285 181.52804 
L 311.980576 169.582138 
L 312.998302 174.670348 
L 315.033753 178.260243 
L 316.051479 175.310399 
L 317.069205 176.641206 
L 318.086931 156.301798 
L 319.104657 162.780839 
L 320.122382 178.435976 
L 321.140108 182.949847 
L 322.157834 180.703387 
L 323.17556 180.942325 
L 324.193286 182.643429 
L 325.211012 181.597318 
L 326.228738 181.959807 
L 327.246463 177.920279 
L 328.264189 180.937024 
L 329.281915 181.193796 
L 330.299641 186.019739 
L 331.317367 203.180067 
L 332.335093 192.442418 
L 333.352818 188.346787 
L 334.370544 183.349127 
L 335.38827 179.488579 
L 336.405996 181.178179 
L 337.423722 184.422487 
L 338.441448 180.618717 
L 339.459174 178.987309 
L 340.476899 184.424094 
L 341.494625 194.580495 
L 342.512351 192.221603 
L 343.530077 192.066434 
L 344.547803 195.489593 
L 345.565529 193.523394 
L 346.583254 192.182401 
L 347.60098 183.68938 
L 347.60098 183.68938 
" style="fill:none;stroke:#000000;stroke-linecap:square;stroke-width:1.5;"/>
   </g>
   <g id="patch_3">
    <path d="M 57.6 307.584 
L 57.6 41.472 
" style="fill:none;stroke:#000000;stroke-linecap:square;stroke-linejoin:miter;stroke-width:0.8;"/>
   </g>
   <g id="patch_4">
    <path d="M 414.72 307.584 
L 414.72 41.472 
" style="fill:none;stroke:#000000;stroke-linecap:square;stroke-linejoin:miter;stroke-width:0.8;"/>
   </g>
   <g id="patch_5">
    <path d="M 57.6 307.584 
L 414.72 307.584 
" style="fill:none;stroke:#000000;stroke-linecap:square;stroke-linejoin:miter;stroke-width:0.8;"/>
   </g>
   <g id="patch_6">
    <path d="M 57.6 41.472 
L 414.72 41.472 
" style="fill:none;stroke:#000000;stroke-linecap:square;stroke-linejoin:miter;stroke-width:0.8;"/>
   </g>
   <g id="text_19">
    <!-- ETH záró árfolyam előrejelzés LSTM modellel -->
    <g transform="translate(101.414062 35.472)scale(0.12 -0.12)">
     <defs>
      <path d="M 9.8125 72.90625 
L 55.90625 72.90625 
L 55.90625 64.59375 
L 19.671875 64.59375 
L 19.671875 43.015625 
L 54.390625 43.015625 
L 54.390625 34.71875 
L 19.671875 34.71875 
L 19.671875 8.296875 
L 56.78125 8.296875 
L 56.78125 0 
L 9.8125 0 
z
" id="DejaVuSans-69"/>
      <path d="M -0.296875 72.90625 
L 61.375 72.90625 
L 61.375 64.59375 
L 35.5 64.59375 
L 35.5 0 
L 25.59375 0 
L 25.59375 64.59375 
L -0.296875 64.59375 
z
" id="DejaVuSans-84"/>
      <path d="M 9.8125 72.90625 
L 19.671875 72.90625 
L 19.671875 43.015625 
L 55.515625 43.015625 
L 55.515625 72.90625 
L 65.375 72.90625 
L 65.375 0 
L 55.515625 0 
L 55.515625 34.71875 
L 19.671875 34.71875 
L 19.671875 0 
L 9.8125 0 
z
" id="DejaVuSans-72"/>
      <path d="M 5.515625 54.6875 
L 48.1875 54.6875 
L 48.1875 46.484375 
L 14.40625 7.171875 
L 48.1875 7.171875 
L 48.1875 0 
L 4.296875 0 
L 4.296875 8.203125 
L 38.09375 47.515625 
L 5.515625 47.515625 
z
" id="DejaVuSans-122"/>
      <path d="M 34.28125 27.484375 
Q 23.390625 27.484375 19.1875 25 
Q 14.984375 22.515625 14.984375 16.5 
Q 14.984375 11.71875 18.140625 8.90625 
Q 21.296875 6.109375 26.703125 6.109375 
Q 34.1875 6.109375 38.703125 11.40625 
Q 43.21875 16.703125 43.21875 25.484375 
L 43.21875 27.484375 
z
M 52.203125 31.203125 
L 52.203125 0 
L 43.21875 0 
L 43.21875 8.296875 
Q 40.140625 3.328125 35.546875 0.953125 
Q 30.953125 -1.421875 24.3125 -1.421875 
Q 15.921875 -1.421875 10.953125 3.296875 
Q 6 8.015625 6 15.921875 
Q 6 25.140625 12.171875 29.828125 
Q 18.359375 34.515625 30.609375 34.515625 
L 43.21875 34.515625 
L 43.21875 35.40625 
Q 43.21875 41.609375 39.140625 45 
Q 35.0625 48.390625 27.6875 48.390625 
Q 23 48.390625 18.546875 47.265625 
Q 14.109375 46.140625 10.015625 43.890625 
L 10.015625 52.203125 
Q 14.9375 54.109375 19.578125 55.046875 
Q 24.21875 56 28.609375 56 
Q 40.484375 56 46.34375 49.84375 
Q 52.203125 43.703125 52.203125 31.203125 
z
M 35.78125 79.984375 
L 45.5 79.984375 
L 29.59375 61.625 
L 22.109375 61.625 
z
" id="DejaVuSans-225"/>
      <path d="M 30.609375 48.390625 
Q 23.390625 48.390625 19.1875 42.75 
Q 14.984375 37.109375 14.984375 27.296875 
Q 14.984375 17.484375 19.15625 11.84375 
Q 23.34375 6.203125 30.609375 6.203125 
Q 37.796875 6.203125 41.984375 11.859375 
Q 46.1875 17.53125 46.1875 27.296875 
Q 46.1875 37.015625 41.984375 42.703125 
Q 37.796875 48.390625 30.609375 48.390625 
z
M 30.609375 56 
Q 42.328125 56 49.015625 48.375 
Q 55.71875 40.765625 55.71875 27.296875 
Q 55.71875 13.875 49.015625 6.21875 
Q 42.328125 -1.421875 30.609375 -1.421875 
Q 18.84375 -1.421875 12.171875 6.21875 
Q 5.515625 13.875 5.515625 27.296875 
Q 5.515625 40.765625 12.171875 48.375 
Q 18.84375 56 30.609375 56 
z
M 37.40625 79.984375 
L 47.125 79.984375 
L 31.21875 61.625 
L 23.734375 61.625 
z
" id="DejaVuSans-243"/>
      <path d="M 37.109375 75.984375 
L 37.109375 68.5 
L 28.515625 68.5 
Q 23.6875 68.5 21.796875 66.546875 
Q 19.921875 64.59375 19.921875 59.515625 
L 19.921875 54.6875 
L 34.71875 54.6875 
L 34.71875 47.703125 
L 19.921875 47.703125 
L 19.921875 0 
L 10.890625 0 
L 10.890625 47.703125 
L 2.296875 47.703125 
L 2.296875 54.6875 
L 10.890625 54.6875 
L 10.890625 58.5 
Q 10.890625 67.625 15.140625 71.796875 
Q 19.390625 75.984375 28.609375 75.984375 
z
" id="DejaVuSans-102"/>
      <path d="M 30.609375 48.390625 
Q 23.390625 48.390625 19.1875 42.75 
Q 14.984375 37.109375 14.984375 27.296875 
Q 14.984375 17.484375 19.15625 11.84375 
Q 23.34375 6.203125 30.609375 6.203125 
Q 37.796875 6.203125 41.984375 11.859375 
Q 46.1875 17.53125 46.1875 27.296875 
Q 46.1875 37.015625 41.984375 42.703125 
Q 37.796875 48.390625 30.609375 48.390625 
z
M 30.609375 56 
Q 42.328125 56 49.015625 48.375 
Q 55.71875 40.765625 55.71875 27.296875 
Q 55.71875 13.875 49.015625 6.21875 
Q 42.328125 -1.421875 30.609375 -1.421875 
Q 18.84375 -1.421875 12.171875 6.21875 
Q 5.515625 13.875 5.515625 27.296875 
Q 5.515625 40.765625 12.171875 48.375 
Q 18.84375 56 30.609375 56 
z
" id="DejaVuSans-111"/>
      <path d="M 9.421875 75.984375 
L 18.40625 75.984375 
L 18.40625 0 
L 9.421875 0 
z
" id="DejaVuSans-108"/>
      <path d="M 32.171875 -5.078125 
Q 28.375 -14.84375 24.75 -17.8125 
Q 21.140625 -20.796875 15.09375 -20.796875 
L 7.90625 -20.796875 
L 7.90625 -13.28125 
L 13.1875 -13.28125 
Q 16.890625 -13.28125 18.9375 -11.515625 
Q 21 -9.765625 23.484375 -3.21875 
L 25.09375 0.875 
L 2.984375 54.6875 
L 12.5 54.6875 
L 29.59375 11.921875 
L 46.6875 54.6875 
L 56.203125 54.6875 
z
" id="DejaVuSans-121"/>
      <path d="M 34.28125 27.484375 
Q 23.390625 27.484375 19.1875 25 
Q 14.984375 22.515625 14.984375 16.5 
Q 14.984375 11.71875 18.140625 8.90625 
Q 21.296875 6.109375 26.703125 6.109375 
Q 34.1875 6.109375 38.703125 11.40625 
Q 43.21875 16.703125 43.21875 25.484375 
L 43.21875 27.484375 
z
M 52.203125 31.203125 
L 52.203125 0 
L 43.21875 0 
L 43.21875 8.296875 
Q 40.140625 3.328125 35.546875 0.953125 
Q 30.953125 -1.421875 24.3125 -1.421875 
Q 15.921875 -1.421875 10.953125 3.296875 
Q 6 8.015625 6 15.921875 
Q 6 25.140625 12.171875 29.828125 
Q 18.359375 34.515625 30.609375 34.515625 
L 43.21875 34.515625 
L 43.21875 35.40625 
Q 43.21875 41.609375 39.140625 45 
Q 35.0625 48.390625 27.6875 48.390625 
Q 23 48.390625 18.546875 47.265625 
Q 14.109375 46.140625 10.015625 43.890625 
L 10.015625 52.203125 
Q 14.9375 54.109375 19.578125 55.046875 
Q 24.21875 56 28.609375 56 
Q 40.484375 56 46.34375 49.84375 
Q 52.203125 43.703125 52.203125 31.203125 
z
" id="DejaVuSans-97"/>
      <path d="M 52 44.1875 
Q 55.375 50.25 60.0625 53.125 
Q 64.75 56 71.09375 56 
Q 79.640625 56 84.28125 50.015625 
Q 88.921875 44.046875 88.921875 33.015625 
L 88.921875 0 
L 79.890625 0 
L 79.890625 32.71875 
Q 79.890625 40.578125 77.09375 44.375 
Q 74.3125 48.1875 68.609375 48.1875 
Q 61.625 48.1875 57.5625 43.546875 
Q 53.515625 38.921875 53.515625 30.90625 
L 53.515625 0 
L 44.484375 0 
L 44.484375 32.71875 
Q 44.484375 40.625 41.703125 44.40625 
Q 38.921875 48.1875 33.109375 48.1875 
Q 26.21875 48.1875 22.15625 43.53125 
Q 18.109375 38.875 18.109375 30.90625 
L 18.109375 0 
L 9.078125 0 
L 9.078125 54.6875 
L 18.109375 54.6875 
L 18.109375 46.1875 
Q 21.1875 51.21875 25.484375 53.609375 
Q 29.78125 56 35.6875 56 
Q 41.65625 56 45.828125 52.96875 
Q 50 49.953125 52 44.1875 
z
" id="DejaVuSans-109"/>
      <path d="M 56.203125 29.59375 
L 56.203125 25.203125 
L 14.890625 25.203125 
Q 15.484375 15.921875 20.484375 11.0625 
Q 25.484375 6.203125 34.421875 6.203125 
Q 39.59375 6.203125 44.453125 7.46875 
Q 49.3125 8.734375 54.109375 11.28125 
L 54.109375 2.78125 
Q 49.265625 0.734375 44.1875 -0.34375 
Q 39.109375 -1.421875 33.890625 -1.421875 
Q 20.796875 -1.421875 13.15625 6.1875 
Q 5.515625 13.8125 5.515625 26.8125 
Q 5.515625 40.234375 12.765625 48.109375 
Q 20.015625 56 32.328125 56 
Q 43.359375 56 49.78125 48.890625 
Q 56.203125 41.796875 56.203125 29.59375 
z
M 47.21875 32.234375 
Q 47.125 39.59375 43.09375 43.984375 
Q 39.0625 48.390625 32.421875 48.390625 
Q 24.90625 48.390625 20.390625 44.140625 
Q 15.875 39.890625 15.1875 32.171875 
z
" id="DejaVuSans-101"/>
      <path d="M 45.1875 79.984375 
L 53.875 79.984375 
L 41.765625 61.625 
L 35.171875 61.625 
z
M 28.875 79.984375 
L 37.171875 79.984375 
L 26.28125 61.625 
L 19.59375 61.625 
z
M 30.609375 48.390625 
Q 23.390625 48.390625 19.1875 42.75 
Q 14.984375 37.109375 14.984375 27.296875 
Q 14.984375 17.484375 19.15625 11.84375 
Q 23.34375 6.203125 30.609375 6.203125 
Q 37.796875 6.203125 41.984375 11.859375 
Q 46.1875 17.53125 46.1875 27.296875 
Q 46.1875 37.015625 41.984375 42.703125 
Q 37.796875 48.390625 30.609375 48.390625 
z
M 30.609375 56 
Q 42.328125 56 49.015625 48.375 
Q 55.71875 40.765625 55.71875 27.296875 
Q 55.71875 13.875 49.015625 6.21875 
Q 42.328125 -1.421875 30.609375 -1.421875 
Q 18.84375 -1.421875 12.171875 6.21875 
Q 5.515625 13.875 5.515625 27.296875 
Q 5.515625 40.765625 12.171875 48.375 
Q 18.84375 56 30.609375 56 
z
" id="DejaVuSans-337"/>
      <path d="M 9.421875 54.6875 
L 18.40625 54.6875 
L 18.40625 -0.984375 
Q 18.40625 -11.421875 14.421875 -16.109375 
Q 10.453125 -20.796875 1.609375 -20.796875 
L -1.8125 -20.796875 
L -1.8125 -13.1875 
L 0.59375 -13.1875 
Q 5.71875 -13.1875 7.5625 -10.8125 
Q 9.421875 -8.453125 9.421875 -0.984375 
z
M 9.421875 75.984375 
L 18.40625 75.984375 
L 18.40625 64.59375 
L 9.421875 64.59375 
z
" id="DejaVuSans-106"/>
      <path d="M 56.203125 29.59375 
L 56.203125 25.203125 
L 14.890625 25.203125 
Q 15.484375 15.921875 20.484375 11.0625 
Q 25.484375 6.203125 34.421875 6.203125 
Q 39.59375 6.203125 44.453125 7.46875 
Q 49.3125 8.734375 54.109375 11.28125 
L 54.109375 2.78125 
Q 49.265625 0.734375 44.1875 -0.34375 
Q 39.109375 -1.421875 33.890625 -1.421875 
Q 20.796875 -1.421875 13.15625 6.1875 
Q 5.515625 13.8125 5.515625 26.8125 
Q 5.515625 40.234375 12.765625 48.109375 
Q 20.015625 56 32.328125 56 
Q 43.359375 56 49.78125 48.890625 
Q 56.203125 41.796875 56.203125 29.59375 
z
M 47.21875 32.234375 
Q 47.125 39.59375 43.09375 43.984375 
Q 39.0625 48.390625 32.421875 48.390625 
Q 24.90625 48.390625 20.390625 44.140625 
Q 15.875 39.890625 15.1875 32.171875 
z
M 38.53125 79.984375 
L 48.25 79.984375 
L 32.34375 61.625 
L 24.859375 61.625 
z
" id="DejaVuSans-233"/>
      <path d="M 44.28125 53.078125 
L 44.28125 44.578125 
Q 40.484375 46.53125 36.375 47.5 
Q 32.28125 48.484375 27.875 48.484375 
Q 21.1875 48.484375 17.84375 46.4375 
Q 14.5 44.390625 14.5 40.28125 
Q 14.5 37.15625 16.890625 35.375 
Q 19.28125 33.59375 26.515625 31.984375 
L 29.59375 31.296875 
Q 39.15625 29.25 43.1875 25.515625 
Q 47.21875 21.78125 47.21875 15.09375 
Q 47.21875 7.46875 41.1875 3.015625 
Q 35.15625 -1.421875 24.609375 -1.421875 
Q 20.21875 -1.421875 15.453125 -0.5625 
Q 10.6875 0.296875 5.421875 2 
L 5.421875 11.28125 
Q 10.40625 8.6875 15.234375 7.390625 
Q 20.0625 6.109375 24.8125 6.109375 
Q 31.15625 6.109375 34.5625 8.28125 
Q 37.984375 10.453125 37.984375 14.40625 
Q 37.984375 18.0625 35.515625 20.015625 
Q 33.0625 21.96875 24.703125 23.78125 
L 21.578125 24.515625 
Q 13.234375 26.265625 9.515625 29.90625 
Q 5.8125 33.546875 5.8125 39.890625 
Q 5.8125 47.609375 11.28125 51.796875 
Q 16.75 56 26.8125 56 
Q 31.78125 56 36.171875 55.265625 
Q 40.578125 54.546875 44.28125 53.078125 
z
" id="DejaVuSans-115"/>
      <path d="M 9.8125 72.90625 
L 19.671875 72.90625 
L 19.671875 8.296875 
L 55.171875 8.296875 
L 55.171875 0 
L 9.8125 0 
z
" id="DejaVuSans-76"/>
      <path d="M 53.515625 70.515625 
L 53.515625 60.890625 
Q 47.90625 63.578125 42.921875 64.890625 
Q 37.9375 66.21875 33.296875 66.21875 
Q 25.25 66.21875 20.875 63.09375 
Q 16.5 59.96875 16.5 54.203125 
Q 16.5 49.359375 19.40625 46.890625 
Q 22.3125 44.4375 30.421875 42.921875 
L 36.375 41.703125 
Q 47.40625 39.59375 52.65625 34.296875 
Q 57.90625 29 57.90625 20.125 
Q 57.90625 9.515625 50.796875 4.046875 
Q 43.703125 -1.421875 29.984375 -1.421875 
Q 24.8125 -1.421875 18.96875 -0.25 
Q 13.140625 0.921875 6.890625 3.21875 
L 6.890625 13.375 
Q 12.890625 10.015625 18.65625 8.296875 
Q 24.421875 6.59375 29.984375 6.59375 
Q 38.421875 6.59375 43.015625 9.90625 
Q 47.609375 13.234375 47.609375 19.390625 
Q 47.609375 24.75 44.3125 27.78125 
Q 41.015625 30.8125 33.5 32.328125 
L 27.484375 33.5 
Q 16.453125 35.6875 11.515625 40.375 
Q 6.59375 45.0625 6.59375 53.421875 
Q 6.59375 63.09375 13.40625 68.65625 
Q 20.21875 74.21875 32.171875 74.21875 
Q 37.3125 74.21875 42.625 73.28125 
Q 47.953125 72.359375 53.515625 70.515625 
z
" id="DejaVuSans-83"/>
      <path d="M 9.8125 72.90625 
L 24.515625 72.90625 
L 43.109375 23.296875 
L 61.8125 72.90625 
L 76.515625 72.90625 
L 76.515625 0 
L 66.890625 0 
L 66.890625 64.015625 
L 48.09375 14.015625 
L 38.1875 14.015625 
L 19.390625 64.015625 
L 19.390625 0 
L 9.8125 0 
z
" id="DejaVuSans-77"/>
      <path d="M 45.40625 46.390625 
L 45.40625 75.984375 
L 54.390625 75.984375 
L 54.390625 0 
L 45.40625 0 
L 45.40625 8.203125 
Q 42.578125 3.328125 38.25 0.953125 
Q 33.9375 -1.421875 27.875 -1.421875 
Q 17.96875 -1.421875 11.734375 6.484375 
Q 5.515625 14.40625 5.515625 27.296875 
Q 5.515625 40.1875 11.734375 48.09375 
Q 17.96875 56 27.875 56 
Q 33.9375 56 38.25 53.625 
Q 42.578125 51.265625 45.40625 46.390625 
z
M 14.796875 27.296875 
Q 14.796875 17.390625 18.875 11.75 
Q 22.953125 6.109375 30.078125 6.109375 
Q 37.203125 6.109375 41.296875 11.75 
Q 45.40625 17.390625 45.40625 27.296875 
Q 45.40625 37.203125 41.296875 42.84375 
Q 37.203125 48.484375 30.078125 48.484375 
Q 22.953125 48.484375 18.875 42.84375 
Q 14.796875 37.203125 14.796875 27.296875 
z
" id="DejaVuSans-100"/>
     </defs>
     <use xlink:href="#DejaVuSans-69"/>
     <use x="63.183594" xlink:href="#DejaVuSans-84"/>
     <use x="124.267578" xlink:href="#DejaVuSans-72"/>
     <use x="199.462891" xlink:href="#DejaVuSans-32"/>
     <use x="231.25" xlink:href="#DejaVuSans-122"/>
     <use x="283.740234" xlink:href="#DejaVuSans-225"/>
     <use x="345.019531" xlink:href="#DejaVuSans-114"/>
     <use x="383.882812" xlink:href="#DejaVuSans-243"/>
     <use x="445.064453" xlink:href="#DejaVuSans-32"/>
     <use x="476.851562" xlink:href="#DejaVuSans-225"/>
     <use x="538.130859" xlink:href="#DejaVuSans-114"/>
     <use x="579.244141" xlink:href="#DejaVuSans-102"/>
     <use x="614.449219" xlink:href="#DejaVuSans-111"/>
     <use x="675.630859" xlink:href="#DejaVuSans-108"/>
     <use x="703.414062" xlink:href="#DejaVuSans-121"/>
     <use x="762.59375" xlink:href="#DejaVuSans-97"/>
     <use x="823.873047" xlink:href="#DejaVuSans-109"/>
     <use x="921.285156" xlink:href="#DejaVuSans-32"/>
     <use x="953.072266" xlink:href="#DejaVuSans-101"/>
     <use x="1014.595703" xlink:href="#DejaVuSans-108"/>
     <use x="1042.378906" xlink:href="#DejaVuSans-337"/>
     <use x="1103.560547" xlink:href="#DejaVuSans-114"/>
     <use x="1142.423828" xlink:href="#DejaVuSans-101"/>
     <use x="1203.947266" xlink:href="#DejaVuSans-106"/>
     <use x="1231.730469" xlink:href="#DejaVuSans-101"/>
     <use x="1293.253906" xlink:href="#DejaVuSans-108"/>
     <use x="1321.037109" xlink:href="#DejaVuSans-122"/>
     <use x="1373.527344" xlink:href="#DejaVuSans-233"/>
     <use x="1435.050781" xlink:href="#DejaVuSans-115"/>
     <use x="1487.150391" xlink:href="#DejaVuSans-32"/>
     <use x="1518.9375" xlink:href="#DejaVuSans-76"/>
     <use x="1574.650391" xlink:href="#DejaVuSans-83"/>
     <use x="1638.126953" xlink:href="#DejaVuSans-84"/>
     <use x="1699.210938" xlink:href="#DejaVuSans-77"/>
     <use x="1785.490234" xlink:href="#DejaVuSans-32"/>
     <use x="1817.277344" xlink:href="#DejaVuSans-109"/>
     <use x="1914.689453" xlink:href="#DejaVuSans-111"/>
     <use x="1975.871094" xlink:href="#DejaVuSans-100"/>
     <use x="2039.347656" xlink:href="#DejaVuSans-101"/>
     <use x="2100.871094" xlink:href="#DejaVuSans-108"/>
     <use x="2128.654297" xlink:href="#DejaVuSans-108"/>
     <use x="2156.4375" xlink:href="#DejaVuSans-101"/>
     <use x="2217.960938" xlink:href="#DejaVuSans-108"/>
    </g>
   </g>
   <g id="legend_1">
    <g id="patch_7">
     <path d="M 64.6 79.62825 
L 325.379688 79.62825 
Q 327.379688 79.62825 327.379688 77.62825 
L 327.379688 48.472 
Q 327.379688 46.472 325.379688 46.472 
L 64.6 46.472 
Q 62.6 46.472 62.6 48.472 
L 62.6 77.62825 
Q 62.6 79.62825 64.6 79.62825 
z
" style="fill:#ffffff;opacity:0.8;stroke:#cccccc;stroke-linejoin:miter;"/>
    </g>
    <g id="line2d_20">
     <path d="M 66.6 54.970438 
L 86.6 54.970438 
" style="fill:none;stroke:#008000;stroke-linecap:square;stroke-width:1.5;"/>
    </g>
    <g id="line2d_21"/>
    <g id="text_20">
     <!-- Modell alapján előrejelzett napi záró árfolyam -->
     <g transform="translate(94.6 58.470438)scale(0.1 -0.1)">
      <defs>
       <path d="M 18.109375 8.203125 
L 18.109375 -20.796875 
L 9.078125 -20.796875 
L 9.078125 54.6875 
L 18.109375 54.6875 
L 18.109375 46.390625 
Q 20.953125 51.265625 25.265625 53.625 
Q 29.59375 56 35.59375 56 
Q 45.5625 56 51.78125 48.09375 
Q 58.015625 40.1875 58.015625 27.296875 
Q 58.015625 14.40625 51.78125 6.484375 
Q 45.5625 -1.421875 35.59375 -1.421875 
Q 29.59375 -1.421875 25.265625 0.953125 
Q 20.953125 3.328125 18.109375 8.203125 
z
M 48.6875 27.296875 
Q 48.6875 37.203125 44.609375 42.84375 
Q 40.53125 48.484375 33.40625 48.484375 
Q 26.265625 48.484375 22.1875 42.84375 
Q 18.109375 37.203125 18.109375 27.296875 
Q 18.109375 17.390625 22.1875 11.75 
Q 26.265625 6.109375 33.40625 6.109375 
Q 40.53125 6.109375 44.609375 11.75 
Q 48.6875 17.390625 48.6875 27.296875 
z
" id="DejaVuSans-112"/>
       <path d="M 54.890625 33.015625 
L 54.890625 0 
L 45.90625 0 
L 45.90625 32.71875 
Q 45.90625 40.484375 42.875 44.328125 
Q 39.84375 48.1875 33.796875 48.1875 
Q 26.515625 48.1875 22.3125 43.546875 
Q 18.109375 38.921875 18.109375 30.90625 
L 18.109375 0 
L 9.078125 0 
L 9.078125 54.6875 
L 18.109375 54.6875 
L 18.109375 46.1875 
Q 21.34375 51.125 25.703125 53.5625 
Q 30.078125 56 35.796875 56 
Q 45.21875 56 50.046875 50.171875 
Q 54.890625 44.34375 54.890625 33.015625 
z
" id="DejaVuSans-110"/>
       <path d="M 18.3125 70.21875 
L 18.3125 54.6875 
L 36.8125 54.6875 
L 36.8125 47.703125 
L 18.3125 47.703125 
L 18.3125 18.015625 
Q 18.3125 11.328125 20.140625 9.421875 
Q 21.96875 7.515625 27.59375 7.515625 
L 36.8125 7.515625 
L 36.8125 0 
L 27.59375 0 
Q 17.1875 0 13.234375 3.875 
Q 9.28125 7.765625 9.28125 18.015625 
L 9.28125 47.703125 
L 2.6875 47.703125 
L 2.6875 54.6875 
L 9.28125 54.6875 
L 9.28125 70.21875 
z
" id="DejaVuSans-116"/>
       <path d="M 9.421875 54.6875 
L 18.40625 54.6875 
L 18.40625 0 
L 9.421875 0 
z
M 9.421875 75.984375 
L 18.40625 75.984375 
L 18.40625 64.59375 
L 9.421875 64.59375 
z
" id="DejaVuSans-105"/>
      </defs>
      <use xlink:href="#DejaVuSans-77"/>
      <use x="86.279297" xlink:href="#DejaVuSans-111"/>
      <use x="147.460938" xlink:href="#DejaVuSans-100"/>
      <use x="210.9375" xlink:href="#DejaVuSans-101"/>
      <use x="272.460938" xlink:href="#DejaVuSans-108"/>
      <use x="300.244141" xlink:href="#DejaVuSans-108"/>
      <use x="328.027344" xlink:href="#DejaVuSans-32"/>
      <use x="359.814453" xlink:href="#DejaVuSans-97"/>
      <use x="421.09375" xlink:href="#DejaVuSans-108"/>
      <use x="448.876953" xlink:href="#DejaVuSans-97"/>
      <use x="510.15625" xlink:href="#DejaVuSans-112"/>
      <use x="573.632812" xlink:href="#DejaVuSans-106"/>
      <use x="601.416016" xlink:href="#DejaVuSans-225"/>
      <use x="662.695312" xlink:href="#DejaVuSans-110"/>
      <use x="726.074219" xlink:href="#DejaVuSans-32"/>
      <use x="757.861328" xlink:href="#DejaVuSans-101"/>
      <use x="819.384766" xlink:href="#DejaVuSans-108"/>
      <use x="847.167969" xlink:href="#DejaVuSans-337"/>
      <use x="908.349609" xlink:href="#DejaVuSans-114"/>
      <use x="947.212891" xlink:href="#DejaVuSans-101"/>
      <use x="1008.736328" xlink:href="#DejaVuSans-106"/>
      <use x="1036.519531" xlink:href="#DejaVuSans-101"/>
      <use x="1098.042969" xlink:href="#DejaVuSans-108"/>
      <use x="1125.826172" xlink:href="#DejaVuSans-122"/>
      <use x="1178.316406" xlink:href="#DejaVuSans-101"/>
      <use x="1239.839844" xlink:href="#DejaVuSans-116"/>
      <use x="1279.048828" xlink:href="#DejaVuSans-116"/>
      <use x="1318.257812" xlink:href="#DejaVuSans-32"/>
      <use x="1350.044922" xlink:href="#DejaVuSans-110"/>
      <use x="1413.423828" xlink:href="#DejaVuSans-97"/>
      <use x="1474.703125" xlink:href="#DejaVuSans-112"/>
      <use x="1538.179688" xlink:href="#DejaVuSans-105"/>
      <use x="1565.962891" xlink:href="#DejaVuSans-32"/>
      <use x="1597.75" xlink:href="#DejaVuSans-122"/>
      <use x="1650.240234" xlink:href="#DejaVuSans-225"/>
      <use x="1711.519531" xlink:href="#DejaVuSans-114"/>
      <use x="1750.382812" xlink:href="#DejaVuSans-243"/>
      <use x="1811.564453" xlink:href="#DejaVuSans-32"/>
      <use x="1843.351562" xlink:href="#DejaVuSans-225"/>
      <use x="1904.630859" xlink:href="#DejaVuSans-114"/>
      <use x="1945.744141" xlink:href="#DejaVuSans-102"/>
      <use x="1980.949219" xlink:href="#DejaVuSans-111"/>
      <use x="2042.130859" xlink:href="#DejaVuSans-108"/>
      <use x="2069.914062" xlink:href="#DejaVuSans-121"/>
      <use x="2129.09375" xlink:href="#DejaVuSans-97"/>
      <use x="2190.373047" xlink:href="#DejaVuSans-109"/>
     </g>
    </g>
    <g id="line2d_22">
     <path d="M 66.6 70.048563 
L 86.6 70.048563 
" style="fill:none;stroke:#000000;stroke-linecap:square;stroke-width:1.5;"/>
    </g>
    <g id="line2d_23"/>
    <g id="text_21">
     <!-- Valós napi záró árfolyamok -->
     <g transform="translate(94.6 73.548563)scale(0.1 -0.1)">
      <defs>
       <path d="M 28.609375 0 
L 0.78125 72.90625 
L 11.078125 72.90625 
L 34.1875 11.53125 
L 57.328125 72.90625 
L 67.578125 72.90625 
L 39.796875 0 
z
" id="DejaVuSans-86"/>
       <path d="M 9.078125 75.984375 
L 18.109375 75.984375 
L 18.109375 31.109375 
L 44.921875 54.6875 
L 56.390625 54.6875 
L 27.390625 29.109375 
L 57.625 0 
L 45.90625 0 
L 18.109375 26.703125 
L 18.109375 0 
L 9.078125 0 
z
" id="DejaVuSans-107"/>
      </defs>
      <use xlink:href="#DejaVuSans-86"/>
      <use x="60.658203" xlink:href="#DejaVuSans-97"/>
      <use x="121.9375" xlink:href="#DejaVuSans-108"/>
      <use x="149.720703" xlink:href="#DejaVuSans-243"/>
      <use x="210.902344" xlink:href="#DejaVuSans-115"/>
      <use x="263.001953" xlink:href="#DejaVuSans-32"/>
      <use x="294.789062" xlink:href="#DejaVuSans-110"/>
      <use x="358.167969" xlink:href="#DejaVuSans-97"/>
      <use x="419.447266" xlink:href="#DejaVuSans-112"/>
      <use x="482.923828" xlink:href="#DejaVuSans-105"/>
      <use x="510.707031" xlink:href="#DejaVuSans-32"/>
      <use x="542.494141" xlink:href="#DejaVuSans-122"/>
      <use x="594.984375" xlink:href="#DejaVuSans-225"/>
      <use x="656.263672" xlink:href="#DejaVuSans-114"/>
      <use x="695.126953" xlink:href="#DejaVuSans-243"/>
      <use x="756.308594" xlink:href="#DejaVuSans-32"/>
      <use x="788.095703" xlink:href="#DejaVuSans-225"/>
      <use x="849.375" xlink:href="#DejaVuSans-114"/>
      <use x="890.488281" xlink:href="#DejaVuSans-102"/>
      <use x="925.693359" xlink:href="#DejaVuSans-111"/>
      <use x="986.875" xlink:href="#DejaVuSans-108"/>
      <use x="1014.658203" xlink:href="#DejaVuSans-121"/>
      <use x="1073.837891" xlink:href="#DejaVuSans-97"/>
      <use x="1135.117188" xlink:href="#DejaVuSans-109"/>
      <use x="1232.529297" xlink:href="#DejaVuSans-111"/>
      <use x="1293.710938" xlink:href="#DejaVuSans-107"/>
     </g>
    </g>
   </g>
  </g>
 </g>
 <defs>
  <clipPath id="pcb8f95b98e">
   <rect height="266.112" width="357.12" x="57.6" y="41.472"/>
  </clipPath>
 </defs>
</svg>
